SubSource-HROTdd_VROTd.ufo
<glyph name="exclam" format="2">
  <advance width="261"/>
  <unicode hex="0021"/>
  <outline>
    <contour>
      <point x="177" y="640" type="curve" smooth="yes"/>
      <point x="177" y="599"/>
      <point x="177" y="567"/>
      <point x="177" y="539" type="curve" smooth="yes"/>
      <point x="177" y="468"/>
      <point x="177" y="411"/>
      <point x="177" y="364" type="curve" smooth="yes"/>
      <point x="177" y="332"/>
      <point x="177" y="304"/>
      <point x="177" y="285" type="curve" smooth="yes"/>
      <point x="177" y="218"/>
      <point x="87" y="218"/>
      <point x="87" y="285" type="curve" smooth="yes"/>
      <point x="87" y="313"/>
      <point x="87" y="343"/>
      <point x="87" y="364" type="curve" smooth="yes"/>
      <point x="87" y="435"/>
      <point x="87" y="492"/>
      <point x="87" y="539" type="curve" smooth="yes"/>
      <point x="87" y="580"/>
      <point x="87" y="612"/>
      <point x="87" y="640" type="curve" smooth="yes"/>
      <point x="87" y="708"/>
      <point x="177" y="708"/>
    </contour>
    <contour>
      <point x="133" y="-5" type="curve" smooth="yes"/>
      <point x="49" y="8"/>
      <point x="49" y="116"/>
      <point x="133" y="129" type="curve" smooth="yes"/>
      <point x="200" y="138"/>
      <point x="213" y="49"/>
      <point x="147" y="39" type="curve" smooth="yes"/>
      <point x="144" y="39"/>
      <point x="144" y="85"/>
      <point x="147" y="85" type="curve" smooth="yes"/>
      <point x="213" y="75"/>
      <point x="200" y="-14"/>
    </contour>
  </outline>
</glyph>
<glyph name="quotedbl" format="2">
  <advance width="496"/>
  <unicode hex="0022"/>
  <outline>
    <contour>
      <point x="103.00000724989454" y="437.9999985073747" type="curve" smooth="yes"/>
      <point x="103.00001340316638" y="639.9999954307386" type="line" smooth="yes"/>
      <point x="103.00001545933395" y="707.4999954307386"/>
      <point x="193.0000154593339" y="707.4999926891819"/>
      <point x="193.00001340316632" y="639.9999926891819" type="curve" smooth="yes"/>
      <point x="193.00000724989448" y="437.99999576581786" type="line" smooth="yes"/>
      <point x="193.0000051937269" y="370.49999576581786"/>
      <point x="103.00000519372696" y="370.4999985073747"/>
    </contour>
    <contour>
      <point x="303.0000042037203" y="437.9999985073747" type="curve" smooth="yes"/>
      <point x="303.00001035699216" y="639.9999954307386" type="line" smooth="yes"/>
      <point x="303.0000124131597" y="707.4999954307386"/>
      <point x="393.0000124131597" y="707.4999926891819"/>
      <point x="393.00001035699216" y="639.9999926891819" type="curve" smooth="yes"/>
      <point x="393.0000042037203" y="437.99999576581786" type="line" smooth="yes"/>
      <point x="393.0000021475527" y="370.49999576581786"/>
      <point x="303.0000021475527" y="370.4999985073747"/>
    </contour>
  </outline>
</glyph>
<glyph name="dollar" format="2">
  <advance width="500"/>
  <unicode hex="0024"/>
  <outline>
    <contour>
      <point x="185.10422478362244" y="-56.93891895097303" type="curve" smooth="yes"/>
      <point x="194.1042286674945" y="75.06107903855204" type="line" smooth="yes"/>
      <point x="198.69584315868005" y="142.40472815533465"/>
      <point x="288.48737531439014" y="136.28257550042062"/>
      <point x="283.8957608232046" y="68.938926383638" type="curve" smooth="yes"/>
      <point x="274.89575693933256" y="-63.061071605887065" type="line" smooth="yes"/>
      <point x="270.304142448147" y="-130.40472072266968"/>
      <point x="180.5126102924369" y="-124.28256806775565"/>
    </contour>
    <contour>
      <point x="228.11258190105696" y="606.1809948610459" type="curve" smooth="yes"/>
      <point x="237.11258563262032" y="733.1809929267253" type="line" smooth="yes"/>
      <point x="241.8840859889354" y="800.5121356791669"/>
      <point x="331.65894299219104" y="794.1501352040802"/>
      <point x="326.88744263587597" y="726.8189924516386" type="curve" smooth="yes"/>
      <point x="317.8874389043126" y="599.8189943859592" type="line" smooth="yes"/>
      <point x="313.11593854799753" y="532.4878516335175"/>
      <point x="223.34108154474188" y="538.8498521086042"/>
    </contour>
    <contour>
      <point x="107.30406629559133" y="147.10913847989988" type="curve" smooth="yes"/>
      <point x="205.63635656433698" y="103.32614732844326"/>
      <point x="375.9999929910499" y="105.40974218675248"/>
      <point x="375.99999581151053" y="198.00000216278374" type="curve" smooth="yes"/>
      <point x="375.9999993912622" y="315.51631135721476"/>
      <point x="56.00000331843765" y="284.4378800741133"/>
      <point x="56.0000092146769" y="477.99999789813984" type="curve" smooth="yes"/>
      <point x="56.00001379531479" y="628.3734699838915"/>
      <point x="263.5507432512063" y="695.4455936189096"/>
      <point x="430.49078169468714" y="610.0640459092033" type="curve" smooth="yes"/>
      <point x="490.58685786931005" y="579.3278843333994"/>
      <point x="449.6053091015717" y="499.1997827672356"/>
      <point x="389.5092329269488" y="529.9359443430394" type="curve" smooth="yes"/>
      <point x="296.3701494199509" y="577.5719648941156"/>
      <point x="146.00001177030353" y="561.8962701569856"/>
      <point x="146.00000921467685" y="477.999995156583" type="curve" smooth="yes"/>
      <point x="146.0000057717749" y="364.97619248124386"/>
      <point x="466.00000194211725" y="399.2559369740889"/>
      <point x="465.99999581151053" y="197.99999942122685" type="curve" smooth="yes"/>
      <point x="465.9999908463749" y="35.004215505616784"/>
      <point x="243.7999770727079" y="-12.184659820945585"/>
      <point x="70.69592983576752" y="64.89086590659096" type="curve" smooth="yes"/>
      <point x="9.032225405785837" y="92.34696825145882"/>
      <point x="45.64036186560965" y="174.56524082476773"/>
    </contour>
  </outline>
</glyph>
<glyph name="percent" format="2">
  <advance width="1023"/>
  <unicode hex="0025"/>
  <outline>
    <contour>
      <point x="709.586881307681" y="3.92996930127682" type="curve" smooth="yes"/>
      <point x="645.8719597833082" y="32.534793274408436"/>
      <point x="603.0209373076638" y="100.15437336150181"/>
      <point x="603.0209399220332" y="185.97905839463658" type="curve" smooth="yes"/>
      <point x="603.0209433922123" y="299.898308675583"/>
      <point x="677.868913779476" y="381.9790547239966"/>
      <point x="784.0209424503578" y="381.9790547239966" type="curve" smooth="yes"/>
      <point x="890.1184583875315" y="381.9790547239966"/>
      <point x="967.0209392171718" y="299.8398044637049"/>
      <point x="967.0209357487747" y="185.97905565307968" type="curve" smooth="yes"/>
      <point x="967.0209331383229" y="100.28297901766751"/>
      <point x="923.0620779132156" y="32.22390069036276"/>
      <point x="856.8389821914153" y="3.6619410816841125" type="curve" smooth="yes"/>
      <point x="794.8580690690957" y="-23.070369116341485"/>
      <point x="759.2149888050616" y="59.5708483800847"/>
      <point x="821.1959019273812" y="86.3031585781103" type="curve" smooth="yes"/>
      <point x="856.8302611088627" y="101.67222455923395"/>
      <point x="877.0209343441019" y="139.8663730544863"/>
      <point x="877.0209357487747" y="185.97905839463658" type="curve" smooth="yes"/>
      <point x="877.0209376385822" y="248.01777779098737"/>
      <point x="841.8297491605938" y="291.9790547239966"/>
      <point x="784.0209424503578" y="291.9790547239966" type="curve" smooth="yes"/>
      <point x="726.2988056008084" y="291.9790547239966"/>
      <point x="693.0209418090075" y="247.92476349162064"/>
      <point x="693.0209399220332" y="185.97905565307968" type="curve" smooth="yes"/>
      <point x="693.0209385228345" y="140.0460798300115"/>
      <point x="712.3480738848071" y="101.34430029574148"/>
      <point x="746.4480061923688" y="86.03513035851759" type="curve" smooth="yes"/>
      <point x="808.0268769852994" y="58.38928669500166"/>
      <point x="771.1657521006116" y="-23.71587436223911"/>
    </contour>
    <contour>
      <point x="418.8560194882097" y="516.7909397047255" type="curve" smooth="yes"/>
      <point x="430.4355518510943" y="380.4581175327527"/>
      <point x="340.6241423142282" y="296.9790546478423"/>
      <point x="239.02095090349115" y="296.9790546478423" type="curve" smooth="yes"/>
      <point x="131.73687371894593" y="296.9790546478423"/>
      <point x="57.02095415537423" y="380.2320803030469"/>
      <point x="57.02095762030526" y="493.97905370352834" type="curve" smooth="yes"/>
      <point x="57.020961088702094" y="607.8398025141539"/>
      <point x="132.92486414022554" y="689.9765411957337"/>
      <point x="239.01989602063475" y="689.9790500203069" type="curve" smooth="yes"/>
      <point x="317.35061456725293" y="689.9809023033785"/>
      <point x="390.27446589109724" y="647.269220717264"/>
      <point x="511.736267932725" y="647.9943058952092" type="curve" smooth="yes"/>
      <point x="767.9976746870345" y="649.5240983451296"/>
      <point x="842.3836084587068" y="748.9453168667485"/>
      <point x="642.1493349101216" y="456.5530224716738" type="curve" smooth="yes"/>
      <point x="564.0116034878439" y="342.4523235029615"/>
      <point x="513.259161942688" y="270.2712829086185"/>
      <point x="433.9616770904008" y="156.28115423454076" type="curve" smooth="yes"/>
      <point x="401.09541972349024" y="109.03591167397002"/>
      <point x="364.6838474143006" y="60.88773031338366"/>
      <point x="331.84177228032394" y="14.122339419674557" type="curve" smooth="yes"/>
      <point x="293.04883855689377" y="-41.11676170561128"/>
      <point x="219.39670372317937" y="10.607149925628995"/>
      <point x="258.18963744660954" y="65.84625105091483" type="curve" smooth="yes"/>
      <point x="291.14915873450536" y="112.77887910228215"/>
      <point x="327.3319099011531" y="160.60128071460247"/>
      <point x="360.08021015586894" y="207.6769599350225" type="curve" smooth="yes"/>
      <point x="439.21169444001805" y="321.4284628045454"/>
      <point x="489.91840560668624" y="393.54324086196726"/>
      <point x="567.8925642771509" y="507.405082559367" type="curve" smooth="yes"/>
      <point x="626.286356698309" y="592.674675231319"/>
      <point x="587.0063647244943" y="558.4420388403659"/>
      <point x="512.2735274016463" y="557.9959095080344" type="curve" smooth="yes"/>
      <point x="371.5543866180887" y="557.1558646419095"/>
      <point x="306.63319227825485" y="599.9806488437996"/>
      <point x="239.02202424616303" y="599.9790500454699" type="curve" smooth="yes"/>
      <point x="181.2434747377518" y="599.97768375864"/>
      <point x="147.0209595091678" y="555.9867509986241"/>
      <point x="147.0209576203052" y="493.9790509619715" type="curve" smooth="yes"/>
      <point x="147.02095572863243" y="431.8790976143911"/>
      <point x="180.44940399611414" y="386.9790546478423"/>
      <point x="239.02095090349115" y="386.9790546478423" type="curve" smooth="yes"/>
      <point x="295.2168940024288" y="386.9790546478423"/>
      <point x="335.5834575262529" y="433.769511150416"/>
      <point x="329.1789073074869" y="509.17414569897363" type="curve" smooth="yes"/>
      <point x="323.466311803173" y="576.4319798345157"/>
      <point x="413.14342398389584" y="584.0487738402676"/>
    </contour>
  </outline>
</glyph>
<glyph name="ampersand" format="2">
  <advance width="634"/>
  <unicode hex="0026"/>
  <outline>
    <contour>
      <point x="415" y="578" type="curve" smooth="yes"/>
      <point x="377" y="592"/>
      <point x="339" y="600"/>
      <point x="302" y="600" type="curve" smooth="yes"/>
      <point x="231" y="600"/>
      <point x="170" y="578"/>
      <point x="170" y="503" type="curve" smooth="yes"/>
      <point x="170" y="430"/>
      <point x="256" y="393"/>
      <point x="368" y="393.0" type="curve" smooth="yes"/>
      <point x="480" y="393"/>
      <point x="482.0" y="393.0"/>
      <point x="549.0" y="393.0" type="curve" smooth="yes"/>
      <point x="616.0" y="393.0"/>
      <point x="616.0" y="303.0"/>
      <point x="549.0" y="303.0" type="curve" smooth="yes"/>
      <point x="482.0" y="303.0"/>
      <point x="481" y="303"/>
      <point x="368" y="303.0" type="curve" smooth="yes"/>
      <point x="246" y="303"/>
      <point x="153" y="271"/>
      <point x="153" y="180" type="curve" smooth="yes"/>
      <point x="153" y="115"/>
      <point x="209" y="79"/>
      <point x="288" y="79" type="curve" smooth="yes"/>
      <point x="371" y="79"/>
      <point x="426" y="120"/>
      <point x="426" y="198" type="curve" smooth="yes"/>
      <point x="426" y="288"/>
      <point x="426" y="314"/>
      <point x="426" y="370" type="curve" smooth="yes"/>
      <point x="426" y="418"/>
      <point x="426" y="443"/>
      <point x="426" y="471" type="curve" smooth="yes"/>
      <point x="426" y="539"/>
      <point x="516" y="539"/>
      <point x="516" y="471" type="curve" smooth="yes"/>
      <point x="516" y="430"/>
      <point x="516" y="402"/>
      <point x="516" y="370" type="curve" smooth="yes"/>
      <point x="516" y="287"/>
      <point x="516" y="259"/>
      <point x="516" y="198" type="curve" smooth="yes"/>
      <point x="516" y="72"/>
      <point x="423" y="-11"/>
      <point x="288" y="-11" type="curve" smooth="yes"/>
      <point x="153" y="-11"/>
      <point x="63" y="69"/>
      <point x="63" y="180" type="curve" smooth="yes"/>
      <point x="63" y="315"/>
      <point x="178" y="393"/>
      <point x="368" y="393.0" type="curve" smooth="yes"/>
      <point x="480" y="393"/>
      <point x="482.0" y="393.0"/>
      <point x="549.0" y="393.0" type="curve" smooth="yes"/>
      <point x="616.0" y="393.0"/>
      <point x="616.0" y="303.0"/>
      <point x="549.0" y="303.0" type="curve" smooth="yes"/>
      <point x="482.0" y="303.0"/>
      <point x="481" y="303"/>
      <point x="368" y="303" type="curve" smooth="yes"/>
      <point x="183" y="303"/>
      <point x="80" y="390"/>
      <point x="80" y="503" type="curve" smooth="yes"/>
      <point x="80" y="631"/>
      <point x="181" y="690"/>
      <point x="302" y="690" type="curve" smooth="yes"/>
      <point x="349" y="690"/>
      <point x="395" y="680"/>
      <point x="445" y="664" type="curve" smooth="yes"/>
      <point x="508" y="642"/>
      <point x="479" y="557"/>
    </contour>
  </outline>
</glyph>
<glyph name="parenleft" format="2">
  <advance width="452"/>
  <unicode hex="0028"/>
  <outline>
    <contour>
      <point x="378.95601176368876" y="-179.35830002795035" type="curve" smooth="yes"/>
      <point x="220.27754426748328" y="-135.28094757270628"/>
      <point x="68.9999948888471" y="26.210746253662215"/>
      <point x="69.00000338125335" y="305.00000053308054" type="curve" smooth="yes"/>
      <point x="69.0000118736596" y="583.7892548124988"/>
      <point x="220.27756863861558" y="745.2809459498721"/>
      <point x="378.9560388201669" y="789.3582984051162" type="curve" smooth="yes"/>
      <point x="443.9934977596091" y="807.4242590687611"/>
      <point x="468.08144531113567" y="720.7076471495047"/>
      <point x="403.04398637169345" y="702.6416864858599" type="curve" smooth="yes"/>
      <point x="273.85094902649405" y="666.7547319714099"/>
      <point x="159.00001029561142" y="531.9849850954204"/>
      <point x="159.00000338125332" y="304.9999977915237" type="curve" smooth="yes"/>
      <point x="158.99999646689523" y="78.01501048762701"/>
      <point x="273.85092453481826" y="-56.75473369936725"/>
      <point x="403.04395969365925" y="-92.64168821381736" type="curve" smooth="yes"/>
      <point x="468.081418554259" y="-110.70764916129527"/>
      <point x="443.99347062428853" y="-197.42426097542824"/>
    </contour>
  </outline>
</glyph>
<glyph name="asterisk" format="2">
  <advance width="614"/>
  <unicode hex="002A"/>
  <outline>
    <contour>
      <point x="85.00000990006606" y="508.9999967405936" type="curve" smooth="yes"/>
      <point x="133.73820883480107" y="508.9999967405936"/>
      <point x="154.2945368840686" y="508.9999967405936"/>
      <point x="187.00000834651723" y="508.9999967405936" type="curve" smooth="yes"/>
      <point x="263.7811542607072" y="508.9999967405936"/>
      <point x="353.6718760076807" y="453.01328764164543"/>
      <point x="389.1839142149976" y="390.12738162598373" type="curve" smooth="yes"/>
      <point x="409.2747042886348" y="354.54993802853875"/>
      <point x="419.23327211506836" y="338.04078208428626"/>
      <point x="439.3370774315525" y="301.85393053044874" type="curve" smooth="yes"/>
      <point x="472.1179739126147" y="242.84831362919192"/>
      <point x="393.4438180442723" y="199.14045165444224"/>
      <point x="360.6629215632101" y="258.14606855569906" type="curve" smooth="yes"/>
      <point x="340.7610565036846" y="293.9694276270803"/>
      <point x="331.1102113188516" y="309.93510835346535"/>
      <point x="310.81609166411846" y="345.87261477953075" type="curve" smooth="yes"/>
      <point x="290.85810814612375" y="381.2148800825722"/>
      <point x="230.15148378991796" y="418.9999967405936"/>
      <point x="187.00000834651723" y="418.9999967405936" type="curve" smooth="yes"/>
      <point x="138.26180941178217" y="418.9999967405936"/>
      <point x="117.70548136251459" y="418.9999967405936"/>
      <point x="85.00000990006606" y="418.9999967405936" type="curve" smooth="yes"/>
      <point x="17.50000990006606" y="418.9999967405936"/>
      <point x="17.50000990006606" y="508.9999967405936"/>
    </contour>
    <contour>
      <point x="439.35803157466796" y="626.1251171684937" type="curve" smooth="yes"/>
      <point x="419.30468483672" y="590.0290950193732"/>
      <point x="410.5091318774842" y="573.8071412655758"/>
      <point x="390.2048629768916" y="537.8516660942673" type="curve" smooth="yes"/>
      <point x="354.67506491169314" y="474.93431711562187"/>
      <point x="263.8404887842629" y="418.979052789676"/>
      <point x="187.02095229711583" y="418.979052789676" type="curve" smooth="yes"/>
      <point x="138.28275336238082" y="418.979052789676"/>
      <point x="117.7264253131132" y="418.979052789676"/>
      <point x="85.02095385066467" y="418.979052789676" type="curve" smooth="yes"/>
      <point x="17.520953850664668" y="418.979052789676"/>
      <point x="17.520953850664696" y="508.979052789676"/>
      <point x="85.0209538506647" y="508.979052789676" type="curve" smooth="yes"/>
      <point x="133.75915278539972" y="508.979052789676"/>
      <point x="154.31548083466723" y="508.979052789676"/>
      <point x="187.02095229711583" y="508.979052789676" type="curve" smooth="yes"/>
      <point x="230.17242774051655" y="508.979052789676"/>
      <point x="291.8790567959354" y="546.7641712521123"/>
      <point x="311.8370424702688" y="582.1064365607576" type="curve" smooth="yes"/>
      <point x="332.0282886681377" y="617.8617673682643"/>
      <point x="340.742156960174" y="633.9378873683395"/>
      <point x="360.68387774113364" y="669.8329828058979" type="curve" smooth="yes"/>
      <point x="393.46477696918674" y="728.8385981810487"/>
      <point x="472.13893080272106" y="685.1307325436445"/>
    </contour>
    <contour>
      <point x="504.00000351833114" y="418.9999967405936" type="curve" smooth="yes"/>
      <point x="455.261804583596" y="418.9999967405936"/>
      <point x="434.70547653432857" y="418.9999967405936"/>
      <point x="402.00000507187997" y="418.9999967405936" type="curve" smooth="yes"/>
      <point x="325.21885915769" y="418.9999967405936"/>
      <point x="235.32813741071666" y="474.98670583954174"/>
      <point x="199.81609920339957" y="537.8726118552037" type="curve" smooth="yes"/>
      <point x="179.7253091297625" y="573.4500554526485"/>
      <point x="169.76674130332876" y="589.9592113969012"/>
      <point x="149.6629359868447" y="626.1460629507387" type="curve" smooth="yes"/>
      <point x="116.88203950578264" y="685.1516798519956"/>
      <point x="195.55619537412514" y="728.859541826745"/>
      <point x="228.3370918551872" y="669.8539249254882" type="curve" smooth="yes"/>
      <point x="248.23895691471265" y="634.0305658541071"/>
      <point x="257.8898020995456" y="618.064885127722"/>
      <point x="278.18392175427874" y="582.1273787016565" type="curve" smooth="yes"/>
      <point x="298.14190527227345" y="546.7851133986152"/>
      <point x="358.8485296284792" y="508.9999967405936"/>
      <point x="402.00000507187997" y="508.9999967405936" type="curve" smooth="yes"/>
      <point x="450.7382040066151" y="508.9999967405936"/>
      <point x="471.29453205588254" y="508.9999967405936"/>
      <point x="504.00000351833114" y="508.9999967405936" type="curve" smooth="yes"/>
      <point x="571.5000035183311" y="508.9999967405936"/>
      <point x="571.5000035183311" y="418.9999967405936"/>
    </contour>
    <contour>
      <point x="149.68386974492645" y="301.8329884108584" type="curve" smooth="yes"/>
      <point x="170.22561189744994" y="338.80812225801213"/>
      <point x="184.1726152148551" y="358.28402443195347"/>
      <point x="203.83703835793364" y="393.10643943939215" type="curve" smooth="yes"/>
      <point x="239.34908040211005" y="455.9923454650248"/>
      <point x="325.23980310828864" y="508.979052789676"/>
      <point x="402.0209490224786" y="508.979052789676" type="curve" smooth="yes"/>
      <point x="450.7591479572137" y="508.979052789676"/>
      <point x="471.31547600648116" y="508.979052789676"/>
      <point x="504.02094746892976" y="508.979052789676" type="curve" smooth="yes"/>
      <point x="571.5209474689298" y="508.979052789676"/>
      <point x="571.5209474689298" y="418.979052789676"/>
      <point x="504.02094746892976" y="418.979052789676" type="curve" smooth="yes"/>
      <point x="455.28274853419464" y="418.979052789676"/>
      <point x="434.7264204849272" y="418.979052789676"/>
      <point x="402.0209490224786" y="418.979052789676" type="curve" smooth="yes"/>
      <point x="358.8268818658945" y="418.979052789676"/>
      <point x="302.1825436289631" y="384.2288180859086"/>
      <point x="282.2048588645565" y="348.85166897290185" type="curve" smooth="yes"/>
      <point x="261.4060833882315" y="312.02050509825483"/>
      <point x="247.7794318360304" y="293.0836557202634"/>
      <point x="228.35802357846077" y="258.12512277345417" type="curve" smooth="yes"/>
      <point x="195.57712435040764" y="199.11950739830343"/>
      <point x="116.90297051687332" y="242.82737303570764"/>
    </contour>
    <contour>
      <point x="229.35803576009317" y="668.8329809898014" type="curve" smooth="yes"/>
      <point x="249.26985673010367" y="632.9917012785646"/>
      <point x="258.8223045369608" y="616.8805813579081"/>
      <point x="279.1198443086946" y="581.2563224197106" type="curve" smooth="yes"/>
      <point x="307.6935107322733" y="531.1066144780226"/>
      <point x="361.1805841867898" y="438.4582194815229"/>
      <point x="390.00693232257817" y="388.45332699411813" type="curve" smooth="yes"/>
      <point x="410.1932290724578" y="353.43627960602487"/>
      <point x="419.199971198976" y="337.1161585519705"/>
      <point x="439.0918853562687" y="302.30530692100945" type="curve" smooth="yes"/>
      <point x="472.58126234954847" y="243.69889405857617"/>
      <point x="394.4393785329708" y="199.04639140086982"/>
      <point x="360.950001539691" y="257.6528042633031" type="curve" smooth="yes"/>
      <point x="340.9667035131737" y="292.62357767393206"/>
      <point x="332.12898103491483" y="308.64780657387075"/>
      <point x="312.0349613054264" y="343.5047815704846" type="curve" smooth="yes"/>
      <point x="283.11924051807324" y="393.6647082582593"/>
      <point x="229.58432012445166" y="486.39658914068775"/>
      <point x="200.92206445879566" y="536.701780265776" type="curve" smooth="yes"/>
      <point x="180.4492992285356" y="572.6335778109825"/>
      <point x="170.76759647072663" y="588.9744271907117"/>
      <point x="150.68387989175068" y="625.125119015052" type="curve" smooth="yes"/>
      <point x="117.90298341068858" y="684.1307359163088"/>
      <point x="196.5771392790311" y="727.8385978910583"/>
    </contour>
  </outline>
</glyph>
<glyph name="plus" format="2">
  <advance width="540"/>
  <unicode hex="002B"/>
  <outline>
    <contour>
      <point x="315" y="504" type="curve" smooth="yes"/>
      <point x="315" y="385"/>
      <point x="315" y="219"/>
      <point x="315" y="114" type="curve" smooth="yes"/>
      <point x="315" y="46"/>
      <point x="225" y="47"/>
      <point x="225" y="114" type="curve" smooth="yes"/>
      <point x="225" y="235"/>
      <point x="225" y="400"/>
      <point x="225" y="504" type="curve" smooth="yes"/>
      <point x="225" y="572"/>
      <point x="315" y="572"/>
    </contour>
    <contour>
      <point x="460" y="263" type="curve" smooth="yes"/>
      <point x="334" y="263"/>
      <point x="182" y="263"/>
      <point x="80" y="263" type="curve" smooth="yes"/>
      <point x="12" y="263"/>
      <point x="13" y="353"/>
      <point x="80" y="353" type="curve" smooth="yes"/>
      <point x="187" y="353"/>
      <point x="342" y="353"/>
      <point x="460" y="353" type="curve" smooth="yes"/>
      <point x="528" y="353"/>
      <point x="528" y="263"/>
    </contour>
  </outline>
</glyph>
<glyph name="comma" format="2">
  <advance width="269"/>
  <unicode hex="002C"/>
  <outline>
    <contour>
      <point x="66.0519412890061" y="-91.51244553119867" type="curve" smooth="yes"/>
      <point x="90.59270404881151" y="-49.02358948757758"/>
      <point x="114.52503210156935" y="24.304831655854926"/>
      <point x="88.7873138916219" y="47.648635665808506" type="curve" smooth="yes"/>
      <point x="38.78906146182058" y="92.99645539251495"/>
      <point x="99.25282109742919" y="159.66079196558334"/>
      <point x="149.25107352723052" y="114.31297223887691" type="curve" smooth="yes"/>
      <point x="207.5015427270397" y="61.48049014407197"/>
      <point x="199.5279140575457" y="-40.36373307657481"/>
      <point x="143.98643467623145" y="-136.52594062407636" type="curve" smooth="yes"/>
      <point x="110.2263133565732" y="-194.9768106644954"/>
      <point x="32.291819969347834" y="-149.9633155716177"/>
    </contour>
  </outline>
</glyph>
<glyph name="hyphen" format="2">
  <advance width="340"/>
  <unicode hex="002D"/>
  <outline>
    <contour>
      <point x="265.00000031984825" y="262.9999991166095" type="curve" smooth="yes"/>
      <point x="75.00000321371373" y="262.9999991166095" type="line" smooth="yes"/>
      <point x="7.500003213713725" y="262.9999991166095"/>
      <point x="7.500003213713754" y="352.9999991166095"/>
      <point x="75.00000321371375" y="352.9999991166095" type="curve" smooth="yes"/>
      <point x="265.00000031984825" y="352.9999991166095" type="line" smooth="yes"/>
      <point x="332.50000031984825" y="352.9999991166095"/>
      <point x="332.50000031984825" y="262.9999991166095"/>
    </contour>
  </outline>
</glyph>
<glyph name="period" format="2">
  <advance width="260"/>
  <unicode hex="002E"/>
  <outline>
    <contour>
      <point x="89.02093772080893" y="35.98467136571129" type="curve" smooth="yes"/>
      <point x="89.0226827236413" y="49.97688914477913"/>
      <point x="89.02268344000636" y="74.97854880619678"/>
      <point x="89.02093932018354" y="89.97382447811063" type="curve" smooth="yes"/>
      <point x="89.01308830831682" y="157.47382402153"/>
      <point x="179.01308769954264" y="157.48429203735225"/>
      <point x="179.02093871140934" y="89.98429249393288" type="curve" smooth="yes"/>
      <point x="179.02268474310944" y="74.97257923217798"/>
      <point x="179.02268393659347" y="49.98100308358845"/>
      <point x="179.02093702091588" y="35.97344725126628" type="curve" smooth="yes"/>
      <point x="179.01251893508223" y="-31.52655222381395"/>
      <point x="89.01251963497528" y="-31.515328109368937"/>
    </contour>
  </outline>
</glyph>
<glyph name="zero" format="2">
  <advance width="592"/>
  <unicode hex="0030"/>
  <outline>
    <contour>
      <point x="337.8683581291014" y="86.02087707265522" type="curve" smooth="yes"/>
      <point x="364.9199162110315" y="94.28491870550192"/>
      <point x="383.9925120884501" y="111.68302011440657"/>
      <point x="401.3470837586266" y="132.66222190020767" type="curve" smooth="yes"/>
      <point x="439.4827430351308" y="178.76279449867883"/>
      <point x="462.0209408895739" y="254.9915440596336"/>
      <point x="462.0209435089033" y="340.9790560338515" type="curve" smooth="yes"/>
      <point x="462.02094795177385" y="486.82989378201626"/>
      <point x="400.0830705561154" y="599.9790500328884"/>
      <point x="296.02095598298655" y="599.9790500328884" type="curve" smooth="yes"/>
      <point x="191.08698769679245" y="599.9790500328884"/>
      <point x="130.020954381424" y="486.90285294028354"/>
      <point x="130.02094993633085" y="340.9790532922948" type="curve" smooth="yes"/>
      <point x="130.02094731700146" y="254.99154131807688"/>
      <point x="152.56375065986595" y="178.76130222665861"/>
      <point x="190.69604394929965" y="132.66071233122835" type="curve" smooth="yes"/>
      <point x="208.0490650611144" y="111.6815253819822"/>
      <point x="227.11527672513378" y="94.28456240727056"/>
      <point x="254.1642114376169" y="86.02052077442386" type="curve" smooth="yes"/>
      <point x="318.71854981484955" y="66.29775736059803"/>
      <point x="292.4215319297484" y="-19.77469380904553"/>
      <point x="227.86719355251577" y="-0.05193039521969922" type="curve" smooth="yes"/>
      <point x="183.06107290451064" y="13.637320230631486"/>
      <point x="150.09083670545527" y="40.54572206728397"/>
      <point x="121.34583932171282" y="75.29740421435078" type="curve" smooth="yes"/>
      <point x="71.73115681050062" y="135.27979535669425"/>
      <point x="40.02094652826949" y="229.09900008893314"/>
      <point x="40.0209499363309" y="340.9790560338515" type="curve" smooth="yes"/>
      <point x="40.02095630297521" y="549.9836586931845"/>
      <point x="145.725511374028" y="689.9790500328884"/>
      <point x="296.02095598298655" y="689.9790500328884" type="curve" smooth="yes"/>
      <point x="445.21677806166156" y="689.9790500328884"/>
      <point x="552.020949878731" y="550.0881582529574"/>
      <point x="552.0209435089033" y="340.9790532922948" type="curve" smooth="yes"/>
      <point x="552.0209401008419" y="229.09899734737638"/>
      <point x="520.3138530467959" y="135.2782632822986"/>
      <point x="470.6947909830982" y="75.29589464537146" type="curve" smooth="yes"/>
      <point x="441.9472251246352" y="40.54418792179251"/>
      <point x="408.9735097270886" y="13.636963932400112"/>
      <point x="364.1630435102397" y="-0.05228669345107306" type="curve" smooth="yes"/>
      <point x="299.60817068565996" y="-19.773300729304722"/>
      <point x="273.3134853045217" y="66.29986303680158"/>
    </contour>
  </outline>
</glyph>
<glyph name="one" format="2">
  <advance width="344"/>
  <unicode hex="0031"/>
  <outline>
    <contour>
      <point x="46.730638393213994" y="631.1195200061085" type="curve" smooth="yes"/>
      <point x="90.76296800510667" y="650.685127372156"/>
      <point x="144.7684897568999" y="666.992018349832"/>
      <point x="179.0178016328086" y="666.9877766843088" type="curve" smooth="yes"/>
      <point x="229.5940240318685" y="666.9815129841901"/>
      <point x="264.0209555091353" y="652.923434855902"/>
      <point x="264.02094993633085" y="469.9790513275125" type="curve" smooth="yes"/>
      <point x="264.02094540814693" y="321.3275445765706"/>
      <point x="264.02094338523" y="254.91910249466167"/>
      <point x="264.02094064549965" y="164.97905597292797" type="curve" smooth="yes"/>
      <point x="264.0209394250742" y="124.91485343142845"/>
      <point x="264.01898363006904" y="68.59313740965462"/>
      <point x="264.01570055393086" y="39.97913208446798" type="curve" smooth="yes"/>
      <point x="264.0079558276908" y="-27.520867471229906"/>
      <point x="174.00795642009362" y="-27.51054116957647"/>
      <point x="174.0157011463337" y="39.98945838612141" type="curve" smooth="yes"/>
      <point x="174.0205936371247" y="82.63049126221827"/>
      <point x="174.02093882680282" y="105.27476501943447"/>
      <point x="174.02094064549968" y="164.97905871448486" type="curve" smooth="yes"/>
      <point x="174.02094472828838" y="299.0091057850062"/>
      <point x="174.02094689772082" y="370.227366108601"/>
      <point x="174.02094993633088" y="469.9790540690692" type="curve" smooth="yes"/>
      <point x="174.02095021891392" y="479.25570796475506"/>
      <point x="181.571249657374" y="576.9874597578915"/>
      <point x="179.0066554265267" y="576.9877773745193" type="curve" smooth="yes"/>
      <point x="157.59426825469532" y="576.9904292288039"/>
      <point x="110.80501603147249" y="561.1057445968341"/>
      <point x="83.27636689704293" y="548.8734883199267" type="curve" smooth="yes"/>
      <point x="21.591843132406545" y="521.464191942055"/>
      <point x="-14.953885371422395" y="603.7102236282368"/>
    </contour>
  </outline>
</glyph>
<glyph name="two" format="2">
  <advance width="505"/>
  <unicode hex="0032"/>
  <outline>
    <contour>
      <point x="36.154989735009266" y="74.61176710977225" type="curve" smooth="yes"/>
      <point x="50.326679613479044" y="90.80798354989204"/>
      <point x="65.26542588444907" y="107.19208005329752"/>
      <point x="80.67653036613802" y="124.19743460479063" type="curve" smooth="yes"/>
      <point x="94.31913859221949" y="139.25134525521054"/>
      <point x="107.69859835420796" y="154.56267509365824"/>
      <point x="121.47180266560903" y="169.96997708735452" type="curve" smooth="yes"/>
      <point x="166.83133392354011" y="220.71111042006407"/>
      <point x="211.60518810288679" y="270.9693368401939"/>
      <point x="257.5615449204314" y="322.07006021422757" type="curve" smooth="yes"/>
      <point x="330.16182231980963" y="402.7972315823331"/>
      <point x="367.02094771615236" y="453.3448954906837"/>
      <point x="367.0209491976336" y="501.9790535816814" type="curve" smooth="yes"/>
      <point x="367.02095112079655" y="565.1127725087237"/>
      <point x="310.0397991142767" y="599.9790500328884"/>
      <point x="236.02095623429594" y="599.9790500328884" type="curve" smooth="yes"/>
      <point x="199.30395998589162" y="599.9790500328884"/>
      <point x="157.85884978323307" y="590.7996187302738"/>
      <point x="115.01960720260985" y="573.3180812273873" type="curve" smooth="yes"/>
      <point x="52.522917321239845" y="547.8148705692787"/>
      <point x="18.518636443761693" y="631.1437904111054"/>
      <point x="81.0153263251317" y="656.6470010692141" type="curve" smooth="yes"/>
      <point x="136.1445126940909" y="679.1437325928592"/>
      <point x="188.7703979342241" y="689.9790500328884"/>
      <point x="236.02095623429594" y="689.9790500328884" type="curve" smooth="yes"/>
      <point x="365.4842520056166" y="689.9790500328884"/>
      <point x="457.0209525613587" y="612.4036266450744"/>
      <point x="457.0209491976336" y="501.97905084012456" type="curve" smooth="yes"/>
      <point x="457.0209471181689" y="433.7142512250655"/>
      <point x="426.38492302511594" y="375.1998543500341"/>
      <point x="324.48034436677506" y="261.88805060454405" type="curve" smooth="yes"/>
      <point x="278.59726205457525" y="210.86880410307577"/>
      <point x="233.85728985723142" y="160.64836816533162"/>
      <point x="188.57008150402484" y="109.98813836160187" type="curve" smooth="yes"/>
      <point x="175.0637933985471" y="94.8794203791997"/>
      <point x="161.27793589491603" y="79.11249676921955"/>
      <point x="147.36535224994702" y="63.76068224540589" type="curve" smooth="yes"/>
      <point x="132.3284677033272" y="47.16825998462876"/>
      <point x="117.7144572477958" y="31.149283267642975"/>
      <point x="103.88689123614178" y="15.346351233049635" type="curve" smooth="yes"/>
      <point x="59.43782932859976" y="-35.45257489279969"/>
      <point x="-8.29407217253275" y="23.812840983922918"/>
    </contour>
    <contour>
      <point x="422.02413588952777" y="-0.017449672601117072" type="curve" smooth="yes"/>
      <point x="395.02371283455653" y="-0.02146458974226524"/>
      <point x="341.02642971734497" y="-0.023377543397329326"/>
      <point x="301.0167128343577" y="-0.020242558750872774" type="curve" smooth="yes"/>
      <point x="253.40003000184888" y="-0.01651152586124427"/>
      <point x="216.8067567962471" y="-0.007346149802723685"/>
      <point x="192.99669607911508" y="-0.003661530258206369" type="curve" smooth="yes"/>
      <point x="163.74909816307292" y="0.000864551056408707"/>
      <point x="145.7137302445413" y="3.1223285361647868e-06"/>
      <point x="124.99999569727898" y="3.1223285361647868e-06" type="curve" smooth="yes"/>
      <point x="100.63089622991147" y="3.1223285361647868e-06"/>
      <point x="86.35273226620119" y="3.1223285361647868e-06"/>
      <point x="69.99999653497689" y="3.1223285361647868e-06" type="curve" smooth="yes"/>
      <point x="2.499996534976887" y="3.1223285526975185e-06"/>
      <point x="2.4999965349769155" y="90.00000312232855"/>
      <point x="69.99999653497692" y="90.00000312232854" type="curve" smooth="yes"/>
      <point x="94.36909600234442" y="90.00000312232854"/>
      <point x="108.6472599660547" y="90.00000312232854"/>
      <point x="124.999995697279" y="90.00000312232854" type="curve" smooth="yes"/>
      <point x="142.0027899759779" y="90.00000312232854"/>
      <point x="169.0028383875493" y="90.00005260961346"/>
      <point x="193.01062362675398" y="89.99633739209409" type="curve" smooth="yes"/>
      <point x="227.0193194849657" y="89.99107452834373"/>
      <point x="233.01128458859807" y="89.98508632243094"/>
      <point x="301.0237648367578" y="89.97975716496725" type="curve" smooth="yes"/>
      <point x="349.04191208924755" y="89.97599467509933"/>
      <point x="389.60586765088476" y="89.97773078086576"/>
      <point x="422.0107530422239" y="89.98254933239554" type="curve" smooth="yes"/>
      <point x="489.5107522959714" y="89.99258646787341"/>
      <point x="489.52413514327526" y="-0.007412537123241981"/>
    </contour>
  </outline>
</glyph>
<glyph name="three" format="2">
  <advance width="488"/>
  <unicode hex="0033"/>
  <outline>
    <contour>
      <point x="107.85979308616825" y="105.29298987320445" type="curve" smooth="yes"/>
      <point x="146.2495622458627" y="88.71489718058197"/>
      <point x="189.08193214329174" y="80.67550060317251"/>
      <point x="232.7135738188504" y="80.97572511881796" type="curve" smooth="yes"/>
      <point x="302.5458465581905" y="81.45623328799218"/>
      <point x="365.0222210702712" y="126.87607959471043"/>
      <point x="365.01605303478885" y="195.979927206725" type="curve" smooth="yes"/>
      <point x="365.0108809801653" y="253.9252609467521"/>
      <point x="318.61724344376705" y="287.71597461120786"/>
      <point x="240.66294261362475" y="300.60100036736554" type="curve" smooth="yes"/>
      <point x="226.25352107336212" y="302.9827261438839"/>
      <point x="211.44294404706318" y="304.1332007280442"/>
      <point x="196.19437705729572" y="305.08623618557954" type="curve" smooth="yes"/>
      <point x="182.2488795429582" y="305.9578297991336"/>
      <point x="165.8025375332643" y="306.99858987226037"/>
      <point x="150.00203733927123" y="306.998427652504" type="curve" smooth="yes"/>
      <point x="82.50203734282869" y="306.99773464623877"/>
      <point x="82.50111333447504" y="396.9977346414955"/>
      <point x="150.00111333091758" y="396.99842764776076" type="curve" smooth="yes"/>
      <point x="168.18788226610883" y="396.9986143667375"/>
      <point x="185.75680824534348" y="395.9141941811731"/>
      <point x="201.80842293257749" y="394.9109682414572" type="curve" smooth="yes"/>
      <point x="220.5184209811684" y="393.7415933380524"/>
      <point x="237.65948934652295" y="392.3185827319315"/>
      <point x="255.3398555790057" y="389.39620421198" type="curve" smooth="yes"/>
      <point x="386.3544070999158" y="367.740877272974"/>
      <point x="455.00736021916293" y="293.37427302529557"/>
      <point x="455.01605267627843" y="195.9879603801354" type="curve" smooth="yes"/>
      <point x="455.0266549216893" y="77.20525341787625"/>
      <point x="353.36763723828886" y="-8.196198147576862"/>
      <point x="233.3328392357636" y="-9.02214435787252" type="curve" smooth="yes"/>
      <point x="176.93069377451127" y="-9.410241302021047"/>
      <point x="121.8053299020687" y="1.2376015111778451"/>
      <point x="72.17929564762281" y="22.667920417633326" type="curve" smooth="yes"/>
      <point x="10.210493555944467" y="49.42829349654242"/>
      <point x="45.89099099448991" y="132.05336295211353"/>
    </contour>
    <contour>
      <point x="404.003150883421" y="589.9968525434771" type="curve" smooth="yes"/>
      <point x="389.38169120300057" y="589.9968525434771"/>
      <point x="377.5569812000685" y="589.9975171156493"/>
      <point x="341.0039699810199" y="589.9968525509144" type="curve" smooth="yes"/>
      <point x="319.0722057811839" y="589.9964538128465"/>
      <point x="306.46804858218655" y="589.9961416473659"/>
      <point x="276.00858819212885" y="589.9942346378074" type="curve" smooth="yes"/>
      <point x="197.4927827168258" y="589.9893189108176"/>
      <point x="136.08306276566188" y="589.9789017925918"/>
      <point x="91.02080982119567" y="589.9790501854411" type="curve" smooth="yes"/>
      <point x="23.520809821561656" y="589.9792724666862"/>
      <point x="23.521106196555095" y="679.9792724661983"/>
      <point x="91.02110619618911" y="679.9790501849532" type="curve" smooth="yes"/>
      <point x="153.35254485606436" y="679.9788449235834"/>
      <point x="219.24018086684256" y="679.9906806509262"/>
      <point x="276.0029534614657" y="679.9942344614175" type="curve" smooth="yes"/>
      <point x="296.4425887849334" y="679.9955141485633"/>
      <point x="326.2851569552788" y="679.9965849652885"/>
      <point x="341.0023337049118" y="679.9968525360398" type="curve" smooth="yes"/>
      <point x="365.53100918781223" y="679.997298488157"/>
      <point x="394.1915094446863" y="679.9968525434771"/>
      <point x="404.003150883421" y="679.9968525434771" type="curve" smooth="yes"/>
      <point x="471.503150883421" y="679.9968525434771"/>
      <point x="471.503150883421" y="589.9968525434771"/>
    </contour>
    <contour>
      <point x="118.2011439120321" y="386.798860087879" type="curve" smooth="yes"/>
      <point x="129.6123962046865" y="398.2101120329268"/>
      <point x="142.57269173303533" y="410.9943115300489"/>
      <point x="154.84901258031354" y="424.38666181111256" type="curve" smooth="yes"/>
      <point x="163.71666365088737" y="434.0604631710455"/>
      <point x="173.67471756376327" y="445.3992526396475"/>
      <point x="184.00171915801596" y="456.5524145328666" type="curve" smooth="yes"/>
      <point x="223.58792025436148" y="499.30551237404296"/>
      <point x="265.76074024355074" y="545.618306353153"/>
      <point x="304.11681378509064" y="589.5680596663966" type="curve" smooth="yes"/>
      <point x="313.4683306080061" y="600.283360256971"/>
      <point x="322.7694686880949" y="610.8187119805324"/>
      <point x="332.0636897761078" y="621.507076639317" type="curve" smooth="yes"/>
      <point x="343.4570904366472" y="634.6095001571459"/>
      <point x="354.1240203411364" y="645.5949784499643"/>
      <point x="363.45099605559983" y="656.7873488981934" type="curve" smooth="yes"/>
      <point x="406.66344396517025" y="708.6422844941678"/>
      <point x="475.80335809313624" y="651.0256872814073"/>
      <point x="432.5909101835658" y="599.1707516854328" type="curve" smooth="yes"/>
      <point x="421.9300695424918" y="586.3777433837807"/>
      <point x="409.9460968976616" y="573.914100103894"/>
      <point x="399.9782152445882" y="562.451025040932" type="curve" smooth="yes"/>
      <point x="390.61794001969525" y="551.6866980507687"/>
      <point x="381.21060070354247" y="541.0297112606677"/>
      <point x="371.9250901389826" y="530.3900429886284" type="curve" smooth="yes"/>
      <point x="332.9666683041341" y="485.75009757657926"/>
      <point x="290.248047745739" y="438.8301897256368"/>
      <point x="250.04018028818135" y="395.40569220403165" type="curve" smooth="yes"/>
      <point x="240.18320707659313" y="384.7601609718926"/>
      <point x="230.48339188829567" y="373.70654365292336"/>
      <point x="221.1928857997228" y="363.5714459005614" type="curve" smooth="yes"/>
      <point x="207.66496308811327" y="348.8137117403958"/>
      <point x="194.41541148616184" y="335.73390666538427"/>
      <point x="181.8407532495346" y="323.15924881180297" type="curve" smooth="yes"/>
      <point x="134.11104479247754" y="275.4295418086761"/>
      <point x="70.47143545497502" y="339.06915308475214"/>
    </contour>
  </outline>
</glyph>
<glyph name="four" format="2">
  <advance width="525"/>
  <unicode hex="0034"/>
  <outline>
    <contour>
      <point x="472" y="166" type="curve" smooth="yes"/>
      <point x="397" y="166"/>
      <point x="289" y="166"/>
      <point x="228" y="166" type="curve" smooth="yes"/>
      <point x="179" y="166"/>
      <point x="96.0" y="166.0"/>
      <point x="56.0" y="166.0" type="curve" smooth="yes"/>
      <point x="16.0" y="166.0"/>
      <point x="-8.0" y="217.0"/>
      <point x="18.0" y="259.0" type="curve" smooth="yes"/>
      <point x="44.0" y="301.0"/>
      <point x="61.0" y="329.0"/>
      <point x="75.0" y="351.0" type="curve" smooth="yes"/>
      <point x="89.0" y="373.0"/>
      <point x="215.0" y="566.0"/>
      <point x="237.0" y="600.0" type="curve" smooth="yes"/>
      <point x="255.0" y="628.0"/>
      <point x="274.0" y="657.0"/>
      <point x="308.0" y="674.0" type="curve" smooth="yes"/>
      <point x="342.0" y="691.0"/>
      <point x="415.0" y="691.0"/>
      <point x="415.0" y="645.0" type="curve" smooth="yes"/>
      <point x="415.0" y="599.0"/>
      <point x="415" y="532"/>
      <point x="415" y="498" type="curve" smooth="yes"/>
      <point x="415" y="428"/>
      <point x="415.0" y="213"/>
      <point x="415.0" y="163" type="curve" smooth="yes"/>
      <point x="415" y="110"/>
      <point x="415" y="82"/>
      <point x="415" y="40" type="curve" smooth="yes"/>
      <point x="415" y="-28"/>
      <point x="325" y="-27"/>
      <point x="325" y="40" type="curve" smooth="yes"/>
      <point x="325" y="83"/>
      <point x="325" y="115"/>
      <point x="325.0" y="164" type="curve" smooth="yes"/>
      <point x="325" y="224"/>
      <point x="325.0" y="432"/>
      <point x="325.0" y="489" type="curve" smooth="yes"/>
      <point x="325" y="533"/>
      <point x="325" y="540"/>
      <point x="325" y="555" type="curve" smooth="yes"/>
      <point x="325" y="570"/>
      <point x="327" y="576"/>
      <point x="315" y="557" type="curve" smooth="yes"/>
      <point x="303" y="538"/>
      <point x="280" y="501"/>
      <point x="263" y="473" type="curve" smooth="yes"/>
      <point x="241" y="438"/>
      <point x="152.0" y="302.0"/>
      <point x="130.0" y="269.0" type="curve" smooth="yes"/>
      <point x="107.0" y="235.0"/>
      <point x="96.0" y="166.0"/>
      <point x="56.0" y="166.0" type="curve" smooth="yes"/>
      <point x="16.0" y="166.0"/>
      <point x="-8.0" y="217.0"/>
      <point x="18.0" y="259.0" type="curve" smooth="yes"/>
      <point x="44.0" y="301.0"/>
      <point x="90" y="256"/>
      <point x="138" y="256" type="curve" smooth="yes"/>
      <point x="203" y="256"/>
      <point x="395" y="256"/>
      <point x="472" y="256" type="curve" smooth="yes"/>
      <point x="540" y="256"/>
      <point x="540" y="166"/>
    </contour>
  </outline>
</glyph>
<glyph name="six" format="2">
  <advance width="534"/>
  <unicode hex="0036"/>
  <outline>
    <contour>
      <point x="98.38869729685905" y="345.15671864800646" type="curve" smooth="yes"/>
      <point x="135.92225938186394" y="397.69007963556055"/>
      <point x="201.95175702151485" y="439.9899235726768"/>
      <point x="282.01342605945666" y="439.9877804706998" type="curve" smooth="yes"/>
      <point x="405.36444959267806" y="439.98447859321504"/>
      <point x="501.0209440977748" y="349.31056474590906"/>
      <point x="501.0209401885735" y="220.97905511999926" type="curve" smooth="yes"/>
      <point x="501.0209362156392" y="90.55531482076516"/>
      <point x="412.3663281865025" y="-8.020940706742095"/>
      <point x="277.0209373099389" y="-8.020940706742095" type="curve" smooth="yes"/>
      <point x="161.89345255631565" y="-8.020940706742095"/>
      <point x="40.02094151505899" y="79.02500592748656"/>
      <point x="40.02094867216859" y="313.97905644508506" type="curve" smooth="yes"/>
      <point x="40.02095683098692" y="581.8172646402705"/>
      <point x="181.82731699111739" y="686.9772285728926"/>
      <point x="314.02033511611404" y="686.979050074309" type="curve" smooth="yes"/>
      <point x="358.4997180755999" y="686.9796629603768"/>
      <point x="402.8945607049603" y="676.12598695563"/>
      <point x="442.56172612718626" y="654.4912583379945" type="curve" smooth="yes"/>
      <point x="501.8208749209299" y="622.1709352541985"/>
      <point x="458.7271108092019" y="543.1587368625404"/>
      <point x="399.4679620154583" y="575.4790599463364" type="curve" smooth="yes"/>
      <point x="373.1343258206962" y="589.8415954722551"/>
      <point x="343.5498734280838" y="596.9794569563608"/>
      <point x="314.0215752353868" y="596.9790500828528" type="curve" smooth="yes"/>
      <point x="216.73654669322184" y="596.9777095822742"/>
      <point x="130.0209546765013" y="511.0896734513334"/>
      <point x="130.02094867216854" y="313.9790537035282" type="curve" smooth="yes"/>
      <point x="130.0209436801792" y="150.10170791907356"/>
      <point x="196.72103787555614" y="81.9790592932579"/>
      <point x="277.0209373099389" y="81.9790592932579" type="curve" smooth="yes"/>
      <point x="361.6768537419282" y="81.9790592932579"/>
      <point x="411.0209377035801" y="139.40153839073008"/>
      <point x="411.0209401885735" y="220.97905786155604" type="curve" smooth="yes"/>
      <point x="411.0209425543578" y="298.6431744213563"/>
      <point x="356.6610253107574" y="349.9857822610577"/>
      <point x="282.01101692655396" y="349.9877805029438" type="curve" smooth="yes"/>
      <point x="234.06381296076538" y="349.98906396041906"/>
      <point x="194.096331716968" y="324.29739291838996"/>
      <point x="171.61829224467743" y="292.8362979331608" type="curve" smooth="yes"/>
      <point x="132.37797670854317" y="237.914101722297"/>
      <point x="59.148381760724796" y="290.2345224371427"/>
    </contour>
  </outline>
</glyph>
<glyph name="seven" format="2">
  <advance width="483"/>
  <unicode hex="0037"/>
  <outline>
    <contour>
      <point x="75" y="680" type="curve" smooth="yes"/>
      <point x="108" y="680"/>
      <point x="137" y="680"/>
      <point x="167" y="680" type="curve" smooth="yes"/>
      <point x="238" y="680"/>
      <point x="260" y="680"/>
      <point x="306" y="680" type="curve" smooth="yes"/>
      <point x="407" y="680"/>
      <point x="480" y="625"/>
      <point x="416" y="484" type="curve" smooth="yes"/>
      <point x="365" y="371"/>
      <point x="315" y="252"/>
      <point x="259" y="127" type="curve" smooth="yes"/>
      <point x="244" y="92"/>
      <point x="228" y="57"/>
      <point x="213" y="22" type="curve" smooth="yes"/>
      <point x="187" y="-40"/>
      <point x="104" y="-4"/>
      <point x="131" y="58" type="curve" smooth="yes"/>
      <point x="146" y="93"/>
      <point x="162" y="128"/>
      <point x="177" y="163" type="curve" smooth="yes"/>
      <point x="234" y="292"/>
      <point x="284" y="410"/>
      <point x="334" y="520" type="curve" smooth="yes"/>
      <point x="363" y="586"/>
      <point x="353" y="590"/>
      <point x="306" y="590" type="curve" smooth="yes"/>
      <point x="238" y="590"/>
      <point x="214" y="590"/>
      <point x="167" y="590" type="curve" smooth="yes"/>
      <point x="122" y="590"/>
      <point x="97" y="590"/>
      <point x="75" y="590" type="curve" smooth="yes"/>
      <point x="8" y="590"/>
      <point x="8" y="680"/>
    </contour>
  </outline>
</glyph>
<glyph name="eight" format="2">
  <advance width="535"/>
  <unicode hex="0038"/>
  <outline>
    <contour>
      <point x="198.28317814998377" y="-0.4669644919425622" type="curve" smooth="yes"/>
      <point x="105.0551395894175" y="24.734616214422875"/>
      <point x="45.02092690649777" y="101.19833332943811"/>
      <point x="45.01919986930534" y="201.9800309706444" type="curve" smooth="yes"/>
      <point x="45.01699959019354" y="330.3778820084575"/>
      <point x="143.1026838147157" y="403.99476235210574"/>
      <point x="269.0052392851332" y="403.9947623521057" type="curve" smooth="yes"/>
      <point x="333.5433214828942" y="403.9947623521056"/>
      <point x="380.01673865979274" y="437.12075316601147"/>
      <point x="380.0192037555705" y="495.9826821995656" type="curve" smooth="yes"/>
      <point x="380.02186206508367" y="559.4581979699286"/>
      <point x="334.6631437289649" y="598.9790500481192"/>
      <point x="269.0209559296785" y="598.9790500481192" type="curve" smooth="yes"/>
      <point x="202.82316840773638" y="598.9790500481192"/>
      <point x="156.0204619882688" y="557.8604528120304"/>
      <point x="156.02095382639698" y="495.97940996781466" type="curve" smooth="yes"/>
      <point x="156.02146130340887" y="432.13074733862595"/>
      <point x="202.74323130530428" y="403.9738184011881"/>
      <point x="268.0261832509627" y="403.97381840118805" type="curve" smooth="yes"/>
      <point x="393.9287387213802" y="403.973818401188"/>
      <point x="490.02155597060926" y="330.37386350234505"/>
      <point x="490.02093978443725" y="201.9788408186949" type="curve" smooth="yes"/>
      <point x="490.02045491878545" y="100.9471410332232"/>
      <point x="428.66898834432783" y="22.390264857671752"/>
      <point x="335.2208700765766" y="-1.6114810781519395" type="curve" smooth="yes"/>
      <point x="269.84291361528744" y="-18.403527080524096"/>
      <point x="247.4535189454579" y="68.76708153452807"/>
      <point x="312.831475406747" y="85.55912753690023" type="curve" smooth="yes"/>
      <point x="367.35986503639697" y="99.56450911591185"/>
      <point x="400.02065685903625" y="143.0257486582149"/>
      <point x="400.0209397854736" y="201.9792727416335" type="curve" smooth="yes"/>
      <point x="400.0213113931725" y="279.4113558787741"/>
      <point x="343.9551167765552" y="313.973818401188"/>
      <point x="268.0261832509627" y="313.97381840118805" type="curve" smooth="yes"/>
      <point x="151.6329752184576" y="313.9738184011881"/>
      <point x="66.02185861181559" y="382.1426861458706"/>
      <point x="66.02095382923973" y="495.97869463676165" type="curve" smooth="yes"/>
      <point x="66.02007910757148" y="606.0325638364319"/>
      <point x="151.2898655279207" y="688.9790500481192"/>
      <point x="269.0209559296785" y="688.9790500481192" type="curve" smooth="yes"/>
      <point x="385.35599644192746" y="688.9790500481192"/>
      <point x="470.0239148929426" y="608.4740468524619"/>
      <point x="470.01920367664616" y="495.978913063497" type="curve" smooth="yes"/>
      <point x="470.01472657802566" y="389.0740764771701"/>
      <point x="386.21908606568206" y="313.9947623521056"/>
      <point x="269.0052392851332" y="313.9947623521057" type="curve" smooth="yes"/>
      <point x="193.1142702263036" y="313.99476235210574"/>
      <point x="135.01787358186732" y="279.3766452061849"/>
      <point x="135.01919985609078" y="201.98157324817026" type="curve" smooth="yes"/>
      <point x="135.0202146740092" y="142.7616137332237"/>
      <point x="166.98778894505892" y="101.2232182772599"/>
      <point x="221.76917086690185" y="86.4146109202291" type="curve" smooth="yes"/>
      <point x="286.9303524260306" y="68.80011638254057"/>
      <point x="263.4443597091125" y="-18.08145902963109"/>
    </contour>
  </outline>
</glyph>
<glyph name="nine" format="2">
  <advance width="534"/>
  <unicode hex="0039"/>
  <outline>
    <contour>
      <point x="468.126136498007" y="528.8252206764228" type="curve" smooth="yes"/>
      <point x="501.08217536924633" y="364.0450012227625"/>
      <point x="399.69190166336887" y="238.99999948215037"/>
      <point x="252.00000126416228" y="238.99999948215037" type="curve" smooth="yes"/>
      <point x="127.53251950742073" y="238.99999948215037"/>
      <point x="33.00000530943573" y="329.7984919933136"/>
      <point x="33.0000092146769" y="457.99999820275724" type="curve" smooth="yes"/>
      <point x="33.000013187611195" y="588.4237385019912"/>
      <point x="121.65462121674776" y="686.9999940294986"/>
      <point x="257.00001209331145" y="686.9999940294986" type="curve" smooth="yes"/>
      <point x="372.1274968469346" y="686.9999940294986"/>
      <point x="494.0000078881915" y="599.9540473952698"/>
      <point x="494.0000007310818" y="364.9999968776715" type="curve" smooth="yes"/>
      <point x="493.99998995142414" y="11.124710812046953"/>
      <point x="249.24413614955128" y="-59.58693953663008"/>
      <point x="91.83857314930607" y="24.28609904385884" type="curve" smooth="yes"/>
      <point x="32.26771746568136" y="56.028234339405"/>
      <point x="74.59056452640958" y="135.4560419175713"/>
      <point x="134.1614202100343" y="103.71390662202514" type="curve" smooth="yes"/>
      <point x="250.40578752413163" y="41.77347631789014"/>
      <point x="403.99999277028" y="103.66229367849431"/>
      <point x="404.0000007310818" y="364.9999996192282" type="curve" smooth="yes"/>
      <point x="404.00000572307124" y="528.877345403683"/>
      <point x="337.2999115276943" y="596.9999940294986"/>
      <point x="257.00001209331145" y="596.9999940294986" type="curve" smooth="yes"/>
      <point x="172.34409566132217" y="596.9999940294986"/>
      <point x="123.00001169967021" y="539.5775149320266"/>
      <point x="123.00000921467685" y="457.9999954612004" type="curve" smooth="yes"/>
      <point x="123.00000684534037" y="380.21926613323257"/>
      <point x="176.48473007196057" y="328.9999994821504"/>
      <point x="252.00000126416228" y="328.9999994821504" type="curve" smooth="yes"/>
      <point x="346.2356235649279" y="328.9999994821504"/>
      <point x="400.90165545472604" y="406.03585365590396"/>
      <point x="379.8738751688401" y="511.17477109890706" type="curve" smooth="yes"/>
      <point x="366.6360379857033" y="577.3639670957823"/>
      <point x="454.8882993148702" y="595.014416673298"/>
    </contour>
  </outline>
</glyph>
<glyph name="semicolon" format="2">
  <advance width="279"/>
  <unicode hex="003B"/>
  <outline>
    <contour>
      <point x="138.78830627887257" y="355.4788366281728" type="curve" smooth="yes"/>
      <point x="53.857649244785804" y="367.96863918913573"/>
      <point x="53.85764988159722" y="476.0313555798884"/>
      <point x="138.78830767660628" y="488.5211581408513" type="curve" smooth="yes"/>
      <point x="205.57004932006663" y="498.34200245618973"/>
      <point x="218.66450840718454" y="409.2996802649092"/>
      <point x="151.8827667637242" y="399.4788359495708" type="curve" smooth="yes"/>
      <point x="149.31848843960847" y="399.10173619771376"/>
      <point x="149.31848717968313" y="444.89825855442297"/>
      <point x="151.88276548082465" y="444.52115880256594" type="curve" smooth="yes"/>
      <point x="218.66450711161946" y="434.70031440110193"/>
      <point x="205.57004790966738" y="345.6579922267088"/>
    </contour>
    <contour>
      <point x="76.36631058839001" y="-91.49664659659676" type="curve" smooth="yes"/>
      <point x="100.90393972092059" y="-49.00465692565313"/>
      <point x="124.8384382987893" y="24.32697604369041"/>
      <point x="99.10385371611669" y="47.6676464263214" type="curve" smooth="yes"/>
      <point x="49.105319494573024" y="93.01515546151678"/>
      <point x="109.56866487483354" y="159.67986775690832"/>
      <point x="159.5671990963772" y="114.33235872171295" type="curve" smooth="yes"/>
      <point x="217.81057616557993" y="61.5069687576225"/>
      <point x="209.83911802119678" y="-40.33404263711327"/>
      <point x="154.30473077048904" y="-136.5033423153293" type="curve" smooth="yes"/>
      <point x="120.54970898143964" y="-194.95715745190356"/>
      <point x="42.6112887993406" y="-149.95046173317104"/>
    </contour>
  </outline>
</glyph>
<glyph name="less" format="2">
  <advance width="447"/>
  <unicode hex="003C"/>
  <outline>
    <contour>
      <point x="380.1318178766217" y="437.40052472012604" type="curve" smooth="yes"/>
      <point x="103.13181703892383" y="271.4005272484506" type="line"/>
      <point x="103.4372005250094" y="348.4148115895706" type="line"/>
      <point x="380.43719115802384" y="179.41481416358775" type="line" smooth="yes"/>
      <point x="438.0594099131581" y="144.2590193960754"/>
      <point x="391.18501688980825" y="67.42939438922971"/>
      <point x="333.562798134674" y="102.58518915674208" type="curve" smooth="yes"/>
      <point x="56.56280750165952" y="271.5851865827249" type="line" smooth="yes"/>
      <point x="27.67870823942141" y="289.2076157019996"/>
      <point x="27.845246363697616" y="331.2066596615975"/>
      <point x="56.868190987745095" y="348.5994709238449" type="curve" smooth="yes"/>
      <point x="333.86819182544303" y="514.5994683955203" type="line" smooth="yes"/>
      <point x="391.7673995819887" y="549.2971879339043"/>
      <point x="438.03102563316736" y="472.09824425851014"/>
    </contour>
  </outline>
</glyph>
<glyph name="equal" format="2">
  <advance width="490"/>
  <unicode hex="003D"/>
  <outline>
    <contour>
      <point x="410.00000290909634" y="382.999997288905" type="curve" smooth="yes"/>
      <point x="80.0000079352837" y="382.999997288905" type="line" smooth="yes"/>
      <point x="12.500007935283705" y="382.999997288905"/>
      <point x="12.500007935283733" y="472.999997288905"/>
      <point x="80.00000793528373" y="472.999997288905" type="curve" smooth="yes"/>
      <point x="410.00000290909634" y="472.999997288905" type="line" smooth="yes"/>
      <point x="477.50000290909634" y="472.999997288905"/>
      <point x="477.50000290909634" y="382.999997288905"/>
    </contour>
    <contour>
      <point x="409.9999955982783" y="143.000000944314" type="curve" smooth="yes"/>
      <point x="80.0000006244657" y="143.000000944314" type="line" smooth="yes"/>
      <point x="12.500000624465699" y="143.00000094431402"/>
      <point x="12.500000624465727" y="233.00000094431402"/>
      <point x="80.00000062446573" y="233.000000944314" type="curve" smooth="yes"/>
      <point x="409.9999955982783" y="233.000000944314" type="line" smooth="yes"/>
      <point x="477.4999955982783" y="233.00000094431397"/>
      <point x="477.4999955982783" y="143.00000094431397"/>
    </contour>
  </outline>
</glyph>
<glyph name="greater" format="2">
  <advance width="447"/>
  <unicode hex="003E"/>
  <outline>
    <contour>
      <point x="65" y="180" type="curve" smooth="yes"/>
      <point x="125" y="215"/>
      <point x="187" y="257"/>
      <point x="264" y="299" type="curve" smooth="yes"/>
      <point x="284" y="311"/>
      <point x="282" y="307"/>
      <point x="261" y="319" type="curve" smooth="yes"/>
      <point x="186" y="364"/>
      <point x="126" y="400"/>
      <point x="65" y="436" type="curve" smooth="yes"/>
      <point x="7" y="471"/>
      <point x="53" y="548"/>
      <point x="111" y="514" type="curve" smooth="yes"/>
      <point x="172" y="478"/>
      <point x="232" y="442"/>
      <point x="307" y="397" type="curve" smooth="yes"/>
      <point x="425" y="326"/>
      <point x="422" y="286"/>
      <point x="308" y="221" type="curve" smooth="yes"/>
      <point x="233" y="179"/>
      <point x="172" y="139"/>
      <point x="111" y="102" type="curve" smooth="yes"/>
      <point x="53" y="68"/>
      <point x="7" y="145"/>
    </contour>
  </outline>
</glyph>
<glyph name="question" format="2">
  <advance width="511"/>
  <unicode hex="003F"/>
  <outline>
    <contour>
      <point x="70.74801851007182" y="652.5616194363973" type="curve" smooth="yes"/>
      <point x="129.74945665633226" y="677.052782130827"/>
      <point x="188.67798279966686" y="687.9999940142677"/>
      <point x="241.0000121923121" y="687.9999940142677" type="curve" smooth="yes"/>
      <point x="377.8579600986643" y="687.9999940142677"/>
      <point x="472.00000843341684" y="612.6027402957768"/>
      <point x="472.0000052774967" y="508.9999946844261" type="curve" smooth="yes"/>
      <point x="472.00000314487306" y="438.99009026462534"/>
      <point x="425.2175572653293" y="372.81594092921154"/>
      <point x="338.3654775530151" y="336.48565968251927" type="curve" smooth="yes"/>
      <point x="277.000497285285" y="310.8166486558522"/>
      <point x="271.00000195817364" y="299.5330429656515"/>
      <point x="271.00000093669854" y="265.9999983855276" type="curve" smooth="yes"/>
      <point x="270.9999988805309" y="198.49999838552762"/>
      <point x="180.99999888053094" y="198.50000112708457"/>
      <point x="181.00000093669857" y="266.00000112708454" type="curve" smooth="yes"/>
      <point x="181.00000275025354" y="325.5354966975569"/>
      <point x="194.68544364827392" y="373.9408637017855"/>
      <point x="303.6345282499467" y="419.5143364183778" type="curve" smooth="yes"/>
      <point x="350.14054425335866" y="438.9678330607567"/>
      <point x="382.0000041355572" y="471.51233165989805"/>
      <point x="382.0000052774967" y="508.9999974259828" type="curve" smooth="yes"/>
      <point x="382.00000702480185" y="566.3606431246611"/>
      <point x="316.7727170041465" y="597.9999940142677"/>
      <point x="241.0000121923121" y="597.9999940142677" type="curve" smooth="yes"/>
      <point x="199.33423426055998" y="597.9999940142677"/>
      <point x="152.23682259214806" y="588.9414996626278"/>
      <point x="105.25200858564737" y="569.4383695669138" type="curve" smooth="yes"/>
      <point x="42.90957118353475" y="543.5603770102322"/>
      <point x="8.405581107959193" y="626.6836268797157"/>
    </contour>
    <contour>
      <point x="181.99999391526714" y="36.00000463018474" type="curve" smooth="yes"/>
      <point x="181.9999942639601" y="47.44691964204174"/>
      <point x="181.99999518660155" y="77.73545200929955"/>
      <point x="181.99999556020117" y="90.00000380771777" type="curve" smooth="yes"/>
      <point x="181.99999761636886" y="157.50000380771775"/>
      <point x="271.99999761636883" y="157.5000010661609"/>
      <point x="271.9999955602011" y="90.00000106616093" type="curve" smooth="yes"/>
      <point x="271.9999950034574" y="71.7231764656353"/>
      <point x="271.99999443489486" y="53.058371515785275"/>
      <point x="271.9999939152671" y="36.00000188862803" type="curve" smooth="yes"/>
      <point x="271.9999918590996" y="-31.499998111371944"/>
      <point x="181.99999185909962" y="-31.49999536981523"/>
    </contour>
  </outline>
</glyph>
<glyph name="at" format="2">
  <advance width="956"/>
  <unicode hex="0040"/>
  <outline>
    <contour>
      <point x="675.0209470576963" y="427.9790519672089" type="curve" smooth="yes"/>
      <point x="675.0209454245806" y="374.36703313900057"/>
      <point x="675.0209440889636" y="330.52131747066545"/>
      <point x="675.0209420619706" y="263.9790544650717" type="curve" smooth="yes"/>
      <point x="675.02093833535" y="141.64131446310438"/>
      <point x="591.6151647997663" y="56.97905830325129"/>
      <point x="482.02093938133737" y="56.97905830325129" type="curve" smooth="yes"/>
      <point x="371.2631479853982" y="56.97905830325129"/>
      <point x="288.0209429540277" y="144.76356320679614"/>
      <point x="288.0209466769245" y="266.97905716093595" type="curve" smooth="yes"/>
      <point x="288.0209504461304" y="390.71479161574047"/>
      <point x="374.8661014786499" y="476.97919882389886"/>
      <point x="482.0135755742517" y="476.98428921401006" type="curve" smooth="yes"/>
      <point x="590.3283339584059" y="476.9894350597673"/>
      <point x="675.0034927180151" y="393.6085991264391"/>
      <point x="675.0034889525755" y="269.99650766611785" type="curve" smooth="yes"/>
      <point x="675.0034867277486" y="196.95974693819306"/>
      <point x="701.4927454272089" y="161.98677467530945"/>
      <point x="739.0186747326584" y="161.98429396419084" type="curve" smooth="yes"/>
      <point x="792.7883141411232" y="161.98073943683363"/>
      <point x="822.0209372853052" y="225.67038331550705"/>
      <point x="822.0209399144178" y="311.9790564755468" type="curve" smooth="yes"/>
      <point x="822.0209451357885" y="483.386538704086"/>
      <point x="691.645730621659" y="598.9790500481192"/>
      <point x="500.0209556174457" y="598.9790500481192" type="curve" smooth="yes"/>
      <point x="300.1604381611631" y="598.9790500481192"/>
      <point x="157.0209558095813" y="456.2864961163884"/>
      <point x="157.02094982971474" y="259.9790545259953" type="curve" smooth="yes"/>
      <point x="157.0209437476184" y="60.3156104734585"/>
      <point x="295.45663348741135" y="-64.02093848303494"/>
      <point x="488.02093286252466" y="-64.02093848303497" type="curve"/>
      <point x="488.02093286252466" y="-64.02093848303497" type="line"/>
      <point x="541.5269096783353" y="-64.02093848303497"/>
      <point x="599.6244690271577" y="-53.69291116089191"/>
      <point x="659.5816239702799" y="-33.39110026196773" type="curve" smooth="yes"/>
      <point x="723.5159100803501" y="-11.742611640456673"/>
      <point x="752.380561575698" y="-96.9883264538835"/>
      <point x="688.4462754656279" y="-118.63681507539457" type="curve" smooth="yes"/>
      <point x="618.3901404997655" y="-142.35819421247447"/>
      <point x="550.5392751161663" y="-154.02093848303497"/>
      <point x="488.02093286252466" y="-154.02093848303497" type="curve"/>
      <point x="488.02093286252466" y="-154.02093848303497"/>
      <point x="488.02093286252466" y="-154.02093848303497"/>
      <point x="488.02093286252466" y="-154.02093848303497" type="curve"/>
      <point x="246.56973552068473" y="-154.02093848303494"/>
      <point x="67.0209422035377" y="9.626433295598247"/>
      <point x="67.0209498297148" y="259.97905726755204" type="curve" smooth="yes"/>
      <point x="67.02095731272716" y="505.63186239616437"/>
      <point x="249.92194587112095" y="688.9790500481192"/>
      <point x="500.0209556174457" y="688.9790500481192" type="curve" smooth="yes"/>
      <point x="744.2916766114718" y="688.9790500481192"/>
      <point x="912.0209465702794" y="530.4780931552516"/>
      <point x="912.0209399144178" y="311.97905373399" type="curve" smooth="yes"/>
      <point x="912.0209351856008" y="156.7411491195778"/>
      <point x="835.7247454735545" y="71.97790085923737"/>
      <point x="739.0127251399017" y="71.98429416084446" type="curve" smooth="yes"/>
      <point x="665.5634874194216" y="71.98914963928385"/>
      <point x="585.003484597937" y="127.04217189219608"/>
      <point x="585.0034889525755" y="269.9965104076748" type="curve" smooth="yes"/>
      <point x="585.0034910946482" y="340.3166057660641"/>
      <point x="543.6356433015898" y="386.98721666968953"/>
      <point x="482.01785131787324" y="386.98428931557663" type="curve" smooth="yes"/>
      <point x="421.30662682200966" y="386.9814050309081"/>
      <point x="378.02094881260814" y="337.0894141460446"/>
      <point x="378.0209466769245" y="266.9790544193792" type="curve" smooth="yes"/>
      <point x="378.02094455481347" y="197.3142611205739"/>
      <point x="418.887220454295" y="146.9790583032513"/>
      <point x="482.02093938133737" y="146.9790583032513" type="curve" smooth="yes"/>
      <point x="544.3665909361981" y="146.9790583032513"/>
      <point x="585.0209399419812" y="194.38391128492373"/>
      <point x="585.0209420619706" y="263.9790572066287" type="curve" smooth="yes"/>
      <point x="585.0209434221722" y="308.6318373943096"/>
      <point x="585.0209459618038" y="392.00303610007245"/>
      <point x="585.0209470576963" y="427.97905470876583" type="curve" smooth="yes"/>
      <point x="585.0209491138639" y="495.47905470876583"/>
      <point x="675.0209491138639" y="495.4790519672089"/>
    </contour>
  </outline>
</glyph>
<glyph name="B" format="2">
  <advance width="540"/>
  <unicode hex="0042"/>
  <outline>
    <contour>
      <point x="235" y="90" type="curve" smooth="yes"/>
      <point x="288" y="90"/>
      <point x="326" y="86"/>
      <point x="364" y="105" type="curve" smooth="yes"/>
      <point x="398" y="123"/>
      <point x="419" y="156"/>
      <point x="419" y="198" type="curve" smooth="yes"/>
      <point x="419" y="247"/>
      <point x="392" y="281"/>
      <point x="345" y="295" type="curve" smooth="yes"/>
      <point x="324" y="301"/>
      <point x="293" y="303"/>
      <point x="235" y="303" type="curve" smooth="yes"/>
      <point x="167" y="303"/>
      <point x="167" y="393"/>
      <point x="235" y="393" type="curve" smooth="yes"/>
      <point x="280" y="393"/>
      <point x="319" y="395"/>
      <point x="338" y="403" type="curve" smooth="yes"/>
      <point x="370" y="416"/>
      <point x="391" y="438"/>
      <point x="391" y="488" type="curve" smooth="yes"/>
      <point x="391" y="555"/>
      <point x="346" y="590"/>
      <point x="273" y="590" type="curve" smooth="yes"/>
      <point x="246" y="590"/>
      <point x="224" y="590"/>
      <point x="206" y="590" type="curve" smooth="yes"/>
      <point x="168" y="590"/>
      <point x="170" y="587"/>
      <point x="170" y="550" type="curve" smooth="yes"/>
      <point x="170" y="454"/>
      <point x="170" y="336"/>
      <point x="170" y="192" type="curve" smooth="yes"/>
      <point x="170" y="138"/>
      <point x="170" y="99"/>
      <point x="170" y="45" type="curve" smooth="yes"/>
      <point x="170" y="-23"/>
      <point x="80" y="-23"/>
      <point x="80" y="45" type="curve" smooth="yes"/>
      <point x="80" y="89"/>
      <point x="80" y="148"/>
      <point x="80" y="192" type="curve" smooth="yes"/>
      <point x="80" y="288"/>
      <point x="80" y="407"/>
      <point x="80" y="550" type="curve" smooth="yes"/>
      <point x="80" y="640"/>
      <point x="114" y="680"/>
      <point x="206" y="680" type="curve" smooth="yes"/>
      <point x="233" y="680"/>
      <point x="255" y="680"/>
      <point x="273" y="680" type="curve" smooth="yes"/>
      <point x="398" y="680"/>
      <point x="481" y="603"/>
      <point x="481" y="488" type="curve" smooth="yes"/>
      <point x="481" y="398"/>
      <point x="428" y="354"/>
      <point x="372" y="325" type="curve" smooth="yes"/>
      <point x="340" y="309"/>
      <point x="293" y="303"/>
      <point x="235" y="303" type="curve" smooth="yes"/>
      <point x="167" y="303"/>
      <point x="167" y="393"/>
      <point x="235" y="393" type="curve" smooth="yes"/>
      <point x="280" y="393"/>
      <point x="337" y="390"/>
      <point x="366" y="381" type="curve" smooth="yes"/>
      <point x="451" y="355"/>
      <point x="509" y="287"/>
      <point x="509" y="198" type="curve" smooth="yes"/>
      <point x="509" y="120"/>
      <point x="468" y="58"/>
      <point x="404" y="25" type="curve" smooth="yes"/>
      <point x="350" y="-3"/>
      <point x="311" y="0"/>
      <point x="235" y="0" type="curve" smooth="yes"/>
      <point x="167" y="0"/>
      <point x="167" y="90"/>
    </contour>
  </outline>
</glyph>
<glyph name="C" format="2">
  <advance width="600"/>
  <unicode hex="0043"/>
  <outline>
    <contour>
      <point x="539.6243101568708" y="46.309153052215514" type="curve" smooth="yes"/>
      <point x="483.01880395232064" y="9.335626216429064"/>
      <point x="412.54556751001553" y="-7.41492789571538"/>
      <point x="352.47317339725737" y="-8.018668226504012" type="curve" smooth="yes"/>
      <point x="183.2329914686166" y="-9.719568031305123"/>
      <point x="45.02094329767782" y="123.54493035428636"/>
      <point x="45.020949890638256" y="339.97905604908243" type="curve" smooth="yes"/>
      <point x="45.02095647701068" y="556.1969098356285"/>
      <point x="187.18642626246654" y="688.8323433081473"/>
      <point x="356.2482301378535" y="687.9784761268361" type="curve" smooth="yes"/>
      <point x="415.178935037215" y="687.6808394417207"/>
      <point x="482.4683779579717" y="672.8234484501048"/>
      <point x="539.0738819454039" y="637.0132837971312" type="curve" smooth="yes"/>
      <point x="596.1173775592439" y="600.9260338582149"/>
      <point x="548.0010443073553" y="524.8680397064281"/>
      <point x="490.95754869351526" y="560.9552896453445" type="curve" smooth="yes"/>
      <point x="449.59089138386213" y="587.1249499266258"/>
      <point x="398.8595676414727" y="597.7621145018709"/>
      <point x="355.79368000041507" y="597.9796239998641" type="curve" smooth="yes"/>
      <point x="230.9410897861247" y="598.6102071762052"/>
      <point x="135.0209547546917" y="499.65651135548813"/>
      <point x="135.0209498906382" y="339.9790533075256" type="curve" smooth="yes"/>
      <point x="135.02094503387715" y="180.5409917085011"/>
      <point x="226.8964632303385" y="80.7238043317171"/>
      <point x="351.56869994322733" y="81.97678681301983" type="curve" smooth="yes"/>
      <point x="395.46892105219627" y="82.41799336730286"/>
      <point x="449.0404301765566" y="94.6396039697727"/>
      <point x="490.40708910645446" y="121.65943607805721" type="curve" smooth="yes"/>
      <point x="546.9198013758357" y="158.57235186586956"/>
      <point x="596.1370224262521" y="83.22206884002784"/>
    </contour>
  </outline>
</glyph>
<glyph name="D" format="2">
  <advance width="660"/>
  <unicode hex="0044"/>
  <outline>
    <contour>
      <point x="80.01570514546833" y="44.98953312707792" type="curve" smooth="yes"/>
      <point x="80.01937920282607" y="76.55379276899845"/>
      <point x="80.02094247745075" y="99.11846674016499"/>
      <point x="80.02094545845486" y="196.97905822709694" type="curve" smooth="yes"/>
      <point x="80.02095456651563" y="495.9790536730666" type="line" smooth="yes"/>
      <point x="80.0209593388762" y="652.6464085758294"/>
      <point x="112.97959332847142" y="679.9889985618829"/>
      <point x="173.01100969308155" y="679.9889985618829" type="curve" smooth="yes"/>
      <point x="217.4298660838636" y="679.9889985618829"/>
      <point x="234.45897663212946" y="679.9845093267276"/>
      <point x="312.0241231790181" y="679.979050073738" type="curve" smooth="yes"/>
      <point x="508.31134388867457" y="679.9652348275324"/>
      <point x="615.0218217106461" y="537.2515786717398"/>
      <point x="615.0218157318163" y="340.9781806276731" type="curve" smooth="yes"/>
      <point x="615.0218097089976" y="143.26070505011134"/>
      <point x="489.2457868062066" y="-0.024398469931548247"/>
      <point x="303.0201026028781" y="-0.020940820832571205" type="curve" smooth="yes"/>
      <point x="277.01530531453494" y="-0.02045799020532921"/>
      <point x="251.01780975788347" y="-0.018672095364664538"/>
      <point x="225.01056860776043" y="-0.015704547912491762" type="curve" smooth="yes"/>
      <point x="157.51056904718118" y="-0.008002483253127942"/>
      <point x="157.52083846672699" y="89.99199693085255"/>
      <point x="225.02083802730624" y="89.98429486619318" type="curve" smooth="yes"/>
      <point x="253.46819251452692" y="89.98104889043422"/>
      <point x="274.57709229985346" y="89.97958729556706"/>
      <point x="303.02177363147206" y="89.97905916365445" type="curve" smooth="yes"/>
      <point x="440.6875319159471" y="89.9765031258709"/>
      <point x="525.0218112794986" y="194.81721573514932"/>
      <point x="525.0218157318163" y="340.97818336923007" type="curve" smooth="yes"/>
      <point x="525.0218201692703" y="486.6512044440294"/>
      <point x="457.70106890624265" y="589.9687966979939"/>
      <point x="312.0177887260316" y="589.9790502966563" type="curve" smooth="yes"/>
      <point x="253.1438016623537" y="589.9831940133154"/>
      <point x="231.49684841476355" y="589.9889985618829"/>
      <point x="173.01100969308155" y="589.9889985618829" type="curve" smooth="yes"/>
      <point x="169.91879172785295" y="589.9889985618829"/>
      <point x="170.02095481233982" y="504.0489856212525"/>
      <point x="170.02095456651557" y="495.97905093150973" type="curve" smooth="yes"/>
      <point x="170.0209454584548" y="196.97905548554016" type="line" smooth="yes"/>
      <point x="170.02094277570572" y="108.90960053617046"/>
      <point x="170.01901099677013" y="73.38525319212869"/>
      <point x="170.01570453577258" y="44.97905719120277" type="curve" smooth="yes"/>
      <point x="170.00784758386624" y="-22.520942351525434"/>
      <point x="80.00784819356198" y="-22.510466415650285"/>
    </contour>
  </outline>
</glyph>
<glyph name="E" format="2">
  <advance width="523"/>
  <unicode hex="0045"/>
  <outline>
    <contour>
      <point x="423.02052630500214" y="589.9842864298953" type="curve" smooth="yes"/>
      <point x="382.96060489968414" y="589.980005293648"/>
      <point x="329.17933700549804" y="589.9790501851971"/>
      <point x="294.02095518336586" y="589.9790501851971" type="curve" smooth="yes"/>
      <point x="250.15657614210417" y="589.9790501851971"/>
      <point x="237.0911544130086" y="589.9790501851971"/>
      <point x="206.0209565236825" y="589.9790501851971" type="curve" smooth="yes"/>
      <point x="168.36784742281262" y="589.9790501851971"/>
      <point x="170.02095611496532" y="581.0616576482544"/>
      <point x="170.0209549853645" y="543.979050200428" type="curve" smooth="yes"/>
      <point x="170.0209538498725" y="506.7030476452736"/>
      <point x="170.0174642930608" y="450.8269041651713"/>
      <point x="170.01396962893236" y="425.9797056063565" type="curve" smooth="yes"/>
      <point x="170.01199973489798" y="411.97368201952145"/>
      <point x="176.6596207701232" y="394.9999984769129"/>
      <point x="189.0000041504123" y="394.9999984769129" type="curve" smooth="yes"/>
      <point x="242.6120229786209" y="394.9999984769129"/>
      <point x="298.11816253772105" y="394.9999984769129"/>
      <point x="339.00000186578166" y="394.9999984769129" type="curve" smooth="yes"/>
      <point x="496.2069705989522" y="394.9999984769129"/>
      <point x="496.2279145495508" y="304.9790545259953"/>
      <point x="339.0209458163803" y="304.9790545259953" type="curve" smooth="yes"/>
      <point x="285.40892698817197" y="304.9790545259953"/>
      <point x="232.53806098696325" y="304.9790545259953"/>
      <point x="190.02094808578005" y="304.9790545259953" type="curve" smooth="yes"/>
      <point x="177.24535301718325" y="304.9790545259953"/>
      <point x="170.02094777751236" y="307.35922495568815"/>
      <point x="170.0209474613143" y="296.9790539624531" type="curve" smooth="yes"/>
      <point x="170.0209453085711" y="226.30866550708728"/>
      <point x="170.02094305205523" y="152.23161773062043"/>
      <point x="170.02094213050952" y="121.97905662785548" type="curve" smooth="yes"/>
      <point x="170.0209411373222" y="89.37463962341035"/>
      <point x="174.62351341377425" y="89.97905917141097"/>
      <point x="204.02093858171665" y="89.97905917141094" type="curve" smooth="yes"/>
      <point x="240.57458778276788" y="89.97905917141092"/>
      <point x="253.6801922667525" y="89.97905917141094"/>
      <point x="288.0209373023235" y="89.97905917141094" type="curve" smooth="yes"/>
      <point x="334.32222629032157" y="89.97905917141094"/>
      <point x="354.7843926815296" y="89.9779151470173"/>
      <point x="423.0114913748696" y="89.98429496240385" type="curve" smooth="yes"/>
      <point x="490.5114910797648" y="89.99060678785885"/>
      <point x="490.5199068470382" y="-0.009392818668158786"/>
      <point x="423.019907142143" y="-0.015704644123161415" type="curve" smooth="yes"/>
      <point x="377.23652823089645" y="-0.019985780369912803"/>
      <point x="319.0911351916497" y="-0.020940828589067574"/>
      <point x="288.0209373023235" y="-0.020940828589061766" type="curve" smooth="yes"/>
      <point x="236.84582842085155" y="-0.02094082858905311"/>
      <point x="228.55004217855307" y="-0.020940828589073385"/>
      <point x="204.02093858171665" y="-0.020940828589061766" type="curve" smooth="yes"/>
      <point x="125.01059837595331" y="-0.020940828589020934"/>
      <point x="80.02093946115777" y="34.3494093230202"/>
      <point x="80.02094213050958" y="121.97905936941224" type="curve" smooth="yes"/>
      <point x="80.02094350381125" y="167.06189338404224"/>
      <point x="80.02094601672921" y="249.55612308345943"/>
      <point x="80.02094746131436" y="296.97905670400985" type="curve" smooth="yes"/>
      <point x="80.02094934570296" y="358.8398843769516"/>
      <point x="113.88454479600576" y="394.9790545259953"/>
      <point x="190.02094808578005" y="394.9790545259953" type="curve" smooth="yes"/>
      <point x="253.3806067009357" y="394.9790545259953"/>
      <point x="303.0449272076869" y="394.9790545259953"/>
      <point x="339.0209458163803" y="394.9790545259953" type="curve" smooth="yes"/>
      <point x="345.3562216475803" y="394.9790545259953"/>
      <point x="345.3352776969817" y="304.9999984769129"/>
      <point x="339.00000186578166" y="304.9999984769129" type="curve" smooth="yes"/>
      <point x="278.0772531973627" y="304.9999984769129"/>
      <point x="224.97602275910575" y="304.9999984769129"/>
      <point x="189.0000041504123" y="304.9999984769129" type="curve" smooth="yes"/>
      <point x="128.4483628023798" y="304.9999984769129"/>
      <point x="80.00430466728079" y="357.26777954316174"/>
      <point x="80.0139705190933" y="425.9923637644868" type="curve" smooth="yes"/>
      <point x="80.01890986696444" y="461.11132020578873"/>
      <point x="80.02095338046355" y="491.2932619486209"/>
      <point x="80.02095498536457" y="543.9790529419847" type="curve" smooth="yes"/>
      <point x="80.02095773947957" y="634.3913152927078"/>
      <point x="114.21773629064069" y="679.9790501851971"/>
      <point x="206.0209565236825" y="679.9790501851971" type="curve" smooth="yes"/>
      <point x="252.32224551168076" y="679.9790501851971"/>
      <point x="264.5860308671621" y="679.9790501851971"/>
      <point x="294.02095518336586" y="679.9790501851971" type="curve" smooth="yes"/>
      <point x="346.4145190382061" y="679.9790501851971"/>
      <point x="363.31299427710456" y="679.9779061005706"/>
      <point x="423.0109081568655" y="679.9842859159576" type="curve" smooth="yes"/>
      <point x="490.5109077714123" y="679.99149952706"/>
      <point x="490.5205259195489" y="589.9915000409977"/>
    </contour>
  </outline>
</glyph>
<glyph name="F" format="2">
  <advance width="503"/>
  <unicode hex="0046"/>
  <outline>
    <contour>
      <point x="80.02094179543042" y="115.97905946079749" type="curve" smooth="yes"/>
      <point x="80.02094602955935" y="254.9773131762039"/>
      <point x="80.02332221568679" y="442.75168111351877"/>
      <point x="80.0209550267922" y="549.9780580348938" type="curve" smooth="yes"/>
      <point x="80.01905779194746" y="635.916961783427"/>
      <point x="112.98836549305099" y="679.9860315021697"/>
      <point x="210.0139749935841" y="679.9860315021697" type="curve" smooth="yes"/>
      <point x="245.17235681571626" y="679.9860315021697"/>
      <point x="336.59716026022915" y="679.9790501851971"/>
      <point x="423.0209530662748" y="679.9790501851971" type="curve" smooth="yes"/>
      <point x="490.5209530662748" y="679.9790501851971"/>
      <point x="490.5209530662748" y="589.9790501851971"/>
      <point x="423.0209530662748" y="589.9790501851971" type="curve" smooth="yes"/>
      <point x="365.0267934322744" y="589.9790501851971"/>
      <point x="262.40753884842434" y="589.9860315021697"/>
      <point x="210.0139749935841" y="589.9860315021697" type="curve" smooth="yes"/>
      <point x="168.8039457863861" y="589.9860315021697"/>
      <point x="170.02014918561565" y="586.4811785094046"/>
      <point x="170.02095500486035" y="549.9800449247484" type="curve" smooth="yes"/>
      <point x="170.02254349254616" y="478.02643795786344"/>
      <point x="170.0209481051947" y="323.1164021918648"/>
      <point x="170.02094179543036" y="115.9790567192407" type="curve" smooth="yes"/>
      <point x="170.0209397392628" y="48.47905671924073"/>
      <point x="80.02093973926284" y="48.479059460797515"/>
    </contour>
    <contour>
      <point x="170.02094176496863" y="114.9790567344716" type="curve" smooth="yes"/>
      <point x="170.02093639770618" y="-61.21777346968743"/>
      <point x="80.00016688139326" y="-64.43503293194144"/>
      <point x="80.00017219498301" y="109.999828970176" type="curve" smooth="yes"/>
      <point x="80.0001736644748" y="158.24039937728767"/>
      <point x="80.0001740782769" y="171.82471836761565"/>
      <point x="80.00017563715983" y="222.9998272490876" type="curve" smooth="yes"/>
      <point x="80.00017852000437" y="317.63803320550653"/>
      <point x="144.86427854210984" y="374.9867339419794"/>
      <point x="234.0221962880816" y="374.98080006019137" type="curve" smooth="yes"/>
      <point x="298.6045630838157" y="374.97650179773956"/>
      <point x="355.717975407743" y="374.97846083677626"/>
      <point x="402.0169251301351" y="374.98080010241785" type="curve" smooth="yes"/>
      <point x="469.5169250439781" y="374.98421055632815"/>
      <point x="469.5214723158585" y="284.98421067120415"/>
      <point x="402.0214724020155" y="284.98080021729385" type="curve" smooth="yes"/>
      <point x="370.9528442626227" y="284.9792304673368"/>
      <point x="277.35381013817226" y="284.9779159366887"/>
      <point x="234.01620636164165" y="284.9808002595203" type="curve" smooth="yes"/>
      <point x="193.26865081105097" y="284.9835122023729"/>
      <point x="170.0001769546969" y="266.2520185011669"/>
      <point x="170.00017563715977" y="222.9998245075308" type="curve" smooth="yes"/>
      <point x="170.00017459108085" y="188.6590794719598"/>
      <point x="170.0001743848424" y="181.8886696573534"/>
      <point x="170.00017219498298" y="109.99982622861921" type="curve" smooth="yes"/>
      <point x="170.00017196753794" y="102.53325114184787"/>
      <point x="80.0209415352264" y="107.43706443888556"/>
      <point x="80.02094176496868" y="114.97905947602835" type="curve" smooth="yes"/>
      <point x="80.02094382113627" y="182.47905947602834"/>
      <point x="170.0209438211362" y="182.47905673447156"/>
    </contour>
  </outline>
</glyph>
<glyph name="G" format="2">
  <advance width="653"/>
  <unicode hex="0047"/>
  <outline>
    <contour>
      <point x="517.710969834636" y="568.4435792648835" type="curve" smooth="yes"/>
      <point x="464.17824773393977" y="590.7470635798126"/>
      <point x="414.0377306642056" y="601.3827793174054"/>
      <point x="369.42634319006316" y="600.9808760467928" type="curve" smooth="yes"/>
      <point x="222.4571169404741" y="599.6568326566738"/>
      <point x="135.02095472345172" y="485.38096091942475"/>
      <point x="135.02095032471806" y="340.9790532922948" type="curve" smooth="yes"/>
      <point x="135.0209458850442" y="195.23315927048444"/>
      <point x="216.12735802376693" y="79.97905932371967"/>
      <point x="361.0209368758591" y="79.97905932371964" type="curve" smooth="yes"/>
      <point x="417.7569677412253" y="79.97905932371962"/>
      <point x="497.9251710467508" y="102.72963753690011"/>
      <point x="505.2640389152421" y="125.04600493221969" type="curve" smooth="yes"/>
      <point x="515.5416435341011" y="156.2986183772744"/>
      <point x="513.0083101508604" y="195.3323204994277"/>
      <point x="513.0095957671983" y="248.99147885651075" type="curve" smooth="yes"/>
      <point x="513.00992516343" y="262.7398453407893"/>
      <point x="514.8707970298651" y="274.9842909706508"/>
      <point x="506.01570736132953" y="274.9842909706508" type="curve" smooth="yes"/>
      <point x="457.2775084265944" y="274.9842909706508"/>
      <point x="409.9095391975171" y="274.9842909706508"/>
      <point x="387.0157091738032" y="274.9842909706508" type="curve" smooth="yes"/>
      <point x="319.5157091738032" y="274.9842909706508"/>
      <point x="319.5157091738032" y="364.9842909706508"/>
      <point x="387.0157091738032" y="364.9842909706508" type="curve" smooth="yes"/>
      <point x="421.1324484281178" y="364.9842909706508"/>
      <point x="473.31023589888093" y="364.9842909706508"/>
      <point x="506.01570736132953" y="364.9842909706508" type="curve" smooth="yes"/>
      <point x="564.2607653121008" y="364.9842909706508"/>
      <point x="603.0117623713318" y="339.42029870044644"/>
      <point x="603.0095957413669" y="248.98932255227652" type="curve" smooth="yes"/>
      <point x="603.0077957061173" y="173.8593061832391"/>
      <point x="605.1497068435104" y="140.6881120263804"/>
      <point x="590.759682346463" y="96.93026282425578" type="curve" smooth="yes"/>
      <point x="573.8158591902054" y="45.406705047749085"/>
      <point x="492.0118868148917" y="-10.020940676280375"/>
      <point x="361.0209368758591" y="-10.020940676280361" type="curve" smooth="yes"/>
      <point x="165.9928505243486" y="-10.020940676280334"/>
      <point x="45.02094434887636" y="144.80374564497933"/>
      <point x="45.02095032471811" y="340.9790560338515" type="curve" smooth="yes"/>
      <point x="45.02095621878855" y="534.469972310864"/>
      <point x="171.6845801415011" y="689.2030758975834"/>
      <point x="368.61556754220936" y="690.9772239885223" type="curve" smooth="yes"/>
      <point x="423.94064221446604" y="691.4756466943968"/>
      <point x="485.9350320278067" y="679.181300492285"/>
      <point x="552.323952330876" y="651.5215031840269" type="curve" smooth="yes"/>
      <point x="614.6323952702335" y="625.5617663118469"/>
      <point x="580.0194127739935" y="542.4838423927035"/>
    </contour>
  </outline>
</glyph>
<glyph name="H" format="2">
  <advance width="688"/>
  <unicode hex="0048"/>
  <outline>
    <contour>
      <point x="171.0" y="641.0" type="curve" smooth="yes"/>
      <point x="171.0" y="600.0"/>
      <point x="171.0" y="559.0"/>
      <point x="171.0" y="528.0" type="curve" smooth="yes"/>
      <point x="171.0" y="439.0"/>
      <point x="171" y="126"/>
      <point x="171.0" y="40.0" type="curve" smooth="yes"/>
      <point x="171.0" y="-28"/>
      <point x="81.0" y="-28"/>
      <point x="81.0" y="40.0" type="curve" smooth="yes"/>
      <point x="81" y="89"/>
      <point x="81.0" y="226.0"/>
      <point x="81.0" y="264.0" type="curve" smooth="yes"/>
      <point x="81.0" y="354.0"/>
      <point x="148.0" y="399.0"/>
      <point x="216.0" y="399.0" type="curve" smooth="yes"/>
      <point x="321.0" y="399.0"/>
      <point x="404.0" y="399.0"/>
      <point x="474.0" y="399.0" type="curve" smooth="yes"/>
      <point x="510.0" y="399.0"/>
      <point x="519.0" y="411.0"/>
      <point x="519.0" y="444.0" type="curve" smooth="yes"/>
      <point x="519.0" y="473.0"/>
      <point x="519" y="585"/>
      <point x="519.0" y="640.0" type="curve" smooth="yes"/>
      <point x="519.0" y="708"/>
      <point x="609.0" y="708"/>
      <point x="609.0" y="640.0" type="curve" smooth="yes"/>
      <point x="609" y="554"/>
      <point x="609.0" y="198.0"/>
      <point x="609.0" y="154.0" type="curve" smooth="yes"/>
      <point x="609.0" y="121.0"/>
      <point x="609.0" y="80.0"/>
      <point x="609.0" y="39.0" type="curve" smooth="yes"/>
      <point x="609.0" y="-26.0"/>
      <point x="519.0" y="-29.0"/>
      <point x="519.0" y="41.0" type="curve" smooth="yes"/>
      <point x="519.0" y="81.0"/>
      <point x="519.0" y="111.0"/>
      <point x="519.0" y="161.0" type="curve" smooth="yes"/>
      <point x="519.0" y="209.0"/>
      <point x="519" y="528"/>
      <point x="519.0" y="640.0" type="curve" smooth="yes"/>
      <point x="519.0" y="708"/>
      <point x="609.0" y="708"/>
      <point x="609.0" y="640.0" type="curve" smooth="yes"/>
      <point x="609" y="592"/>
      <point x="609.0" y="487.0"/>
      <point x="609.0" y="444.0" type="curve" smooth="yes"/>
      <point x="609.0" y="363.0"/>
      <point x="563.0" y="309.0"/>
      <point x="474.0" y="309.0" type="curve" smooth="yes"/>
      <point x="369.0" y="309.0"/>
      <point x="286.0" y="309.0"/>
      <point x="216.0" y="309.0" type="curve" smooth="yes"/>
      <point x="190.0" y="309.0"/>
      <point x="171.0" y="298.0"/>
      <point x="171.0" y="264.0" type="curve" smooth="yes"/>
      <point x="171.0" y="208.0"/>
      <point x="171.0" y="96.0"/>
      <point x="171.0" y="40.0" type="curve" smooth="yes"/>
      <point x="171.0" y="-28.0"/>
      <point x="81.0" y="-28"/>
      <point x="81.0" y="40.0" type="curve" smooth="yes"/>
      <point x="81" y="151"/>
      <point x="81.0" y="409.0"/>
      <point x="81.0" y="519.0" type="curve" smooth="yes"/>
      <point x="81.0" y="572.0"/>
      <point x="81.0" y="599.0"/>
      <point x="81.0" y="639.0" type="curve" smooth="yes"/>
      <point x="81.0" y="709.0"/>
      <point x="171.0" y="706.0"/>
    </contour>
  </outline>
</glyph>
<glyph name="J" format="2">
  <advance width="448"/>
  <unicode hex="004A"/>
  <outline>
    <contour>
      <point x="88.40124189389772" y="110.59373778926434" type="curve" smooth="yes"/>
      <point x="125.18278623824023" y="93.03784188962715"/>
      <point x="158.76462526296405" y="84.97922530216138"/>
      <point x="188.0211935145847" y="84.97905924684045" type="curve" smooth="yes"/>
      <point x="252.80590548308902" y="84.97869153979958"/>
      <point x="287.0209385721732" y="127.41576316290792"/>
      <point x="287.02094090442444" y="203.97905812048083" type="curve" smooth="yes"/>
      <point x="287.0209433203685" y="283.28982641691863"/>
      <point x="287.02094528512356" y="347.7889217132601"/>
      <point x="287.02094888540074" y="465.9790541299926" type="curve" smooth="yes"/>
      <point x="287.0209510381439" y="536.6494425853585"/>
      <point x="287.02082035228506" y="579.0526653513566"/>
      <point x="287.01571835586657" y="639.9805178720846" type="curve" smooth="yes"/>
      <point x="287.0100660188353" y="707.480517635426"/>
      <point x="377.0100657032904" y="707.4880540848011"/>
      <point x="377.0157180403217" y="639.9880543214597" type="curve" smooth="yes"/>
      <point x="377.0191417039349" y="599.1027900844014"/>
      <point x="377.020950329986" y="513.4019850089866"/>
      <point x="377.02094888540074" y="465.9790513884359" type="curve" smooth="yes"/>
      <point x="377.0209464694567" y="386.6682830919981"/>
      <point x="377.0209445047016" y="322.1691877956566"/>
      <point x="377.02094090442444" y="203.9790553789241" type="curve" smooth="yes"/>
      <point x="377.0209369075229" y="72.76851591302224"/>
      <point x="299.04564590752705" y="-5.021570910576796"/>
      <point x="188.02068268930373" y="-5.0209407517098725" type="curve" smooth="yes"/>
      <point x="147.3136625224557" y="-5.020709705565286"/>
      <point x="100.81078402372326" y="4.944428931319755"/>
      <point x="49.63365844577627" y="29.371361108986513" type="curve" smooth="yes"/>
      <point x="-11.283124064432172" y="58.44704869507744"/>
      <point x="27.484459383689277" y="139.66942537535527"/>
    </contour>
  </outline>
</glyph>
<glyph name="M" format="2">
  <advance width="808"/>
  <unicode hex="004D"/>
  <outline>
    <contour>
      <point x="80.01605508166645" y="39.98819333634858" type="curve" smooth="yes"/>
      <point x="80.01988467406571" y="80.56386675663964"/>
      <point x="80.02094397863863" y="111.39955713585981"/>
      <point x="80.02094521476093" y="151.97905891248607" type="curve" smooth="yes"/>
      <point x="80.02094830318428" y="253.36602044607656"/>
      <point x="80.02112656841932" y="375.89046197030643"/>
      <point x="80.02113117083573" y="526.9788786679852" type="curve" smooth="yes"/>
      <point x="80.02113752810565" y="735.6757404499639"/>
      <point x="180.7216827797097" y="757.0869945052376"/>
      <point x="262.066099479719" y="542.9823333833245" type="curve" smooth="yes"/>
      <point x="308.14063066732416" y="421.7106802512657"/>
      <point x="357.19466531876196" y="286.5307503974065"/>
      <point x="401.3297597312821" y="164.27678391232956" type="curve" smooth="yes"/>
      <point x="404.57027105355655" y="155.30058554091585"/>
      <point x="403.3027024570256" y="154.61576156395844"/>
      <point x="406.5577595457877" y="163.8880749535429" type="curve" smooth="yes"/>
      <point x="449.51860712083385" y="286.26578795073146"/>
      <point x="500.9737399661882" y="424.4404127447585"/>
      <point x="545.9049515816637" y="543.8290510426735" type="curve" smooth="yes"/>
      <point x="627.3485329114201" y="760.2362638345082"/>
      <point x="727.9998360749925" y="737.7374418984706"/>
      <point x="727.9998296860296" y="528.0001689279637" type="curve" smooth="yes"/>
      <point x="727.9998251578451" y="379.3486621770218"/>
      <point x="728.0191945776369" y="256.7324893844863"/>
      <point x="728.0191915390271" y="156.98080142401815" type="curve" smooth="yes"/>
      <point x="728.0191904657916" y="121.74855520733554"/>
      <point x="728.0188516386154" y="75.20935860843782"/>
      <point x="728.0156971361681" y="39.980265821014676" type="curve" smooth="yes"/>
      <point x="728.0096530147481" y="-27.519733908382328"/>
      <point x="638.0096533755521" y="-27.51167507982229"/>
      <point x="638.0156974969722" y="39.988324649574714" type="curve" smooth="yes"/>
      <point x="638.0195252413592" y="82.73610007238472"/>
      <point x="638.0191902367387" y="114.22920230060778"/>
      <point x="638.0191915390271" y="156.98080416557494" type="curve" smooth="yes"/>
      <point x="638.0191960672115" y="305.63231091651676"/>
      <point x="637.9998266474198" y="428.2484837090525"/>
      <point x="637.9998296860296" y="528.0001716695207" type="curve" smooth="yes"/>
      <point x="637.9998300421302" y="539.6902639770923"/>
      <point x="634.6767043775935" y="524.1905571810073"/>
      <point x="630.1372967171446" y="512.1287035212785" type="curve" smooth="yes"/>
      <point x="585.4561924558561" y="393.40463613901557"/>
      <point x="534.1988476687603" y="255.77352508415606"/>
      <point x="491.47713951449316" y="134.07702153823033" type="curve" smooth="yes"/>
      <point x="431.41463461545743" y="-37.016250622812564"/>
      <point x="376.471322363159" y="-31.91310257777754"/>
      <point x="316.67721680309074" y="133.71623784733384" type="curve" smooth="yes"/>
      <point x="272.7438868236608" y="255.4113179729452"/>
      <point x="223.79747451719365" y="390.30074980763925"/>
      <point x="177.93357393520304" y="511.01800724462163" type="curve" smooth="yes"/>
      <point x="173.40648742325942" y="522.933641566321"/>
      <point x="170.0211315246388" y="538.5935482836284"/>
      <point x="170.02113117083567" y="526.9788759264285" type="curve" smooth="yes"/>
      <point x="170.02112808241225" y="425.5919143928379"/>
      <point x="170.020949817177" y="303.0674728686082"/>
      <point x="170.02094521476087" y="151.9790561709294" type="curve" smooth="yes"/>
      <point x="170.0209441970719" y="118.57029619150225"/>
      <point x="170.01920755178648" y="73.3853071286379"/>
      <point x="170.01605468081252" y="39.97969900254353" type="curve" smooth="yes"/>
      <point x="170.00968393045875" y="-27.520300696816015"/>
      <point x="80.00968433131268" y="-27.51180636301097"/>
    </contour>
  </outline>
</glyph>
<glyph name="N" format="2">
  <advance width="688"/>
  <unicode hex="004E"/>
  <outline>
    <contour>
      <point x="80.01675226230921" y="39.987080945373144" type="curve" smooth="yes"/>
      <point x="80.02058576838999" y="84.99410692046261"/>
      <point x="80.0209432953404" y="118.96820061959623"/>
      <point x="80.0209446664496" y="163.97905872971572" type="curve" smooth="yes"/>
      <point x="80.02094863788956" y="294.353740880132"/>
      <point x="80.02095372920951" y="461.4919167037804"/>
      <point x="80.02095639422012" y="548.9790528658305" type="curve" smooth="yes"/>
      <point x="80.0209609821208" y="699.5909442619941"/>
      <point x="134.47276956372812" y="716.2622165943081"/>
      <point x="224.40879591696824" y="592.4461755129023" type="curve" smooth="yes"/>
      <point x="310.79614762466986" y="473.51563875621287"/>
      <point x="454.2489676249278" y="259.9585769179839"/>
      <point x="535.6056295934361" y="146.1730304504358" type="curve" smooth="yes"/>
      <point x="540.2307335930683" y="139.70435322925056"/>
      <point x="518.0209370396942" y="132.60744458879748"/>
      <point x="518.020937294708" y="140.97905908002576" type="curve" smooth="yes"/>
      <point x="518.0209403382419" y="240.89236689623263"/>
      <point x="518.0209461275701" y="430.94482756608284"/>
      <point x="518.0209487178612" y="515.9790533684492" type="curve" smooth="yes"/>
      <point x="518.020950088971" y="560.9899114785685"/>
      <point x="518.0205946318064" y="594.9647191403724"/>
      <point x="518.0167638679438" y="639.979409385522" type="curve" smooth="yes"/>
      <point x="518.0110195973874" y="707.4794091411025"/>
      <point x="608.0110192714945" y="707.4870681685111"/>
      <point x="608.016763542051" y="639.9870684129306" type="curve" smooth="yes"/>
      <point x="608.0199111192622" y="603.0003946649731"/>
      <point x="608.0209498444435" y="552.9625756710078"/>
      <point x="608.0209487178612" y="515.9790506268922" type="curve" smooth="yes"/>
      <point x="608.02094485777" y="389.259733396581"/>
      <point x="608.0209393370528" y="208.02527283648845"/>
      <point x="608.020937294708" y="140.97905633846892" type="curve" smooth="yes"/>
      <point x="608.0209322907369" y="-23.291613895620518"/>
      <point x="553.1497233778654" y="-33.1036136269117"/>
      <point x="462.39435776494105" y="93.82697350959066" type="curve" smooth="yes"/>
      <point x="383.16471766132304" y="204.6376640847146"/>
      <point x="240.28452103004565" y="417.44866025314195"/>
      <point x="151.5912280868842" y="539.5538148611872" type="curve" smooth="yes"/>
      <point x="147.0876191212926" y="545.7539890884557"/>
      <point x="170.02095662396232" y="556.5210451614165"/>
      <point x="170.02095639422006" y="548.9790501242735" type="curve" smooth="yes"/>
      <point x="170.02095242278003" y="418.6043679738573"/>
      <point x="170.02094733146012" y="251.46619215020877"/>
      <point x="170.02094466644954" y="163.97905598815888" type="curve" smooth="yes"/>
      <point x="170.02094353986698" y="126.99553094404334"/>
      <point x="170.019901766215" y="76.95979147039822"/>
      <point x="170.01675193583853" y="39.97941513012447" type="curve" smooth="yes"/>
      <point x="170.01100257440206" y="-27.520584625022515"/>
      <point x="80.01100290087275" y="-27.512918809773844"/>
    </contour>
  </outline>
</glyph>
<glyph name="P" format="2">
  <advance width="555"/>
  <unicode hex="0050"/>
  <outline>
    <contour>
      <point x="224.98717950897787" y="342.9828948383792" type="curve" smooth="yes"/>
      <point x="263" y="343"/>
      <point x="280" y="343"/>
      <point x="306.98000615565525" y="342.97905530793014" type="curve" smooth="yes"/>
      <point x="380" y="343"/>
      <point x="429.9804515391368" y="391.9636363315012"/>
      <point x="429.9825371378639" y="465.9838113415155" type="curve" smooth="yes"/>
      <point x="429.9846594777992" y="541.3079719275229"/>
      <point x="378.6778735633716" y="589.9879249444162"/>
      <point x="294.9889799310953" y="589.9902203092789" type="curve" smooth="yes"/>
      <point x="262.0386885907042" y="589.9911240485649"/>
      <point x="238.9425125669965" y="589.991267489899"/>
      <point x="205.991262715154" y="589.991267489899" type="curve" smooth="yes"/>
      <point x="168.2816174238675" y="589.991267489899"/>
      <point x="169.9790481022898" y="587.1173398798968"/>
      <point x="169.9790492335867" y="549.9790528505995" type="curve" smooth="yes"/>
      <point x="169.97905232201015" y="448.59209131700896"/>
      <point x="169.9790564083335" y="314.44601553374156"/>
      <point x="169.9790605653546" y="177.9790585164835" type="curve" smooth="yes"/>
      <point x="169.9790621036721" y="127.47907136854458"/>
      <point x="169.97872162453194" y="90.48212132358525"/>
      <point x="169.98255529782116" y="39.98596631067627" type="curve" smooth="yes"/>
      <point x="169.9876799047582" y="-27.514033494793388"/>
      <point x="80" y="-28"/>
      <point x="79.98255555719496" y="39.97913350142685" type="curve" smooth="yes"/>
      <point x="80" y="90"/>
      <point x="79.97906182932537" y="136.48534474982145"/>
      <point x="79.97906056535464" y="177.9790557749267" type="curve" smooth="yes"/>
      <point x="79.97905777581086" y="269.55437586978275"/>
      <point x="79.97905383600319" y="398.89063341136386"/>
      <point x="79.97904923358675" y="549.9790501090428" type="curve" smooth="yes"/>
      <point x="79.97904647947172" y="640.3913124597656"/>
      <point x="114.18804248211215" y="679.991267489899"/>
      <point x="205.991262715154" y="679.991267489899" type="curve" smooth="yes"/>
      <point x="233.02533776752105" y="679.991267489899"/>
      <point x="267.9581597287833" y="679.9909617269896"/>
      <point x="294.9914483930578" y="679.9902202754273" type="curve" smooth="yes"/>
      <point x="431.2174326147467" y="679.9864839572132"/>
      <point x="519.9859917761579" y="588.5914268072491"/>
      <point x="519.9825371021387" y="465.98127549388556" type="curve" smooth="yes"/>
      <point x="519.979044082013" y="342.01017901977673"/>
      <point x="429.69088122411273" y="252.97645922208991"/>
      <point x="306.97810212019897" y="252.979055328071" type="curve" smooth="yes"/>
      <point x="278.2298404967768" y="252.9796635249882"/>
      <point x="264" y="253"/>
      <point x="224.97861071329197" y="252.98289524629178" type="curve" smooth="yes"/>
      <point x="157" y="253"/>
      <point x="157" y="343"/>
    </contour>
  </outline>
</glyph>
<glyph name="Q" format="2">
  <advance width="732"/>
  <unicode hex="0051"/>
  <outline>
    <contour>
      <point x="525.9030566604417" y="-52.93803706624599" type="curve" smooth="yes"/>
      <point x="493.75304295882705" y="-1.6989502417218167"/>
      <point x="454.4096355936138" y="64.78277672195566"/>
      <point x="422.68046267085583" y="116.42045286061183" type="curve" smooth="yes"/>
      <point x="417.39842765160495" y="125.01670635707457"/>
      <point x="493.99108692147956" y="172.22392429597633"/>
      <point x="499.29072425076856" y="163.6385115337355" type="curve" smooth="yes"/>
      <point x="513.2521197396869" y="141.02105008089075"/>
      <point x="529.7740683022635" y="141.98017595115684"/>
      <point x="547.8800161978257" y="168.4185574539551" type="curve" smooth="yes"/>
      <point x="580.5246270233131" y="216.08635590300216"/>
      <point x="597.016078950501" y="274.7436400378996"/>
      <point x="597.0174518701293" y="340.98347801380555" type="curve" smooth="yes"/>
      <point x="597.0205770365012" y="491.76471082510403"/>
      <point x="506.0269759181244" y="599.9790500328884"/>
      <point x="368.02095595252484" y="599.9790500328884" type="curve" smooth="yes"/>
      <point x="228.95455165075924" y="599.9790500328884"/>
      <point x="135.02095555237713" y="492.8429794623211"/>
      <point x="135.02095092633746" y="340.9790532922948" type="curve" smooth="yes"/>
      <point x="135.02094586608288" y="174.86069592629536"/>
      <point x="246.10959198221022" y="66.38896900290678"/>
      <point x="389.2269464877101" y="81.7229712213067" type="curve" smooth="yes"/>
      <point x="456.34281437978325" y="88.91395704341635"/>
      <point x="465.9307954759295" y="-0.5738668126812208"/>
      <point x="398.81492758385633" y="-7.764852634790877" type="curve" smooth="yes"/>
      <point x="206.08128867803356" y="-28.41488530730376"/>
      <point x="45.020944111781226" y="117.27036874829541"/>
      <point x="45.02095092633751" y="340.9790560338515" type="curve" smooth="yes"/>
      <point x="45.02095714050277" y="544.9780684051611"/>
      <point x="181.2128715900334" y="689.9790500328884"/>
      <point x="368.02095595252484" y="689.9790500328884" type="curve" smooth="yes"/>
      <point x="553.8712500051407" y="689.9790500328884"/>
      <point x="687.0216604577074" y="544.0360624466541"/>
      <point x="687.0174518507978" y="340.9816126293133" type="curve" smooth="yes"/>
      <point x="687.0156753165367" y="255.26840757611996"/>
      <point x="664.3775896234824" y="179.2466957926485"/>
      <point x="622.1360276410322" y="117.56538877641447" type="curve" smooth="yes"/>
      <point x="563.447825320257" y="31.868628152775944"/>
      <point x="467.9606192735523" y="43.05256593045951"/>
      <point x="422.7064736270363" y="116.36428434384513" type="curve" smooth="yes"/>
      <point x="309.84224428888564" y="299.20434202194815"/>
      <point x="386.8720555629888" y="346.6085909916286"/>
      <point x="499.36141563489275" y="163.53766258834455" type="curve" smooth="yes"/>
      <point x="531.3796705490854" y="111.42951965600426"/>
      <point x="570.2798944595008" y="45.67130392082233"/>
      <point x="602.1388082116787" y="-5.103842336763272" type="curve" smooth="yes"/>
      <point x="638.0144542587907" y="-62.28065600019098"/>
      <point x="561.7787027075537" y="-110.11485072967369"/>
    </contour>
  </outline>
</glyph>
<glyph name="R" format="2">
  <advance width="595"/>
  <unicode hex="0052"/>
  <outline>
    <contour>
      <point x="80.01570457912027" y="39.9901878635614" type="curve" smooth="yes"/>
      <point x="80.02208587906009" y="88.72200698290987"/>
      <point x="80.02094279045726" y="125.6438645477253"/>
      <point x="80.02094386682884" y="160.9790587754083" type="curve" smooth="yes"/>
      <point x="80.02094566010696" y="219.8489074078157"/>
      <point x="80.02095171424067" y="418.59439371027105"/>
      <point x="80.0209546502854" y="514.97905338368" type="curve" smooth="yes"/>
      <point x="80.02095810388089" y="628.3539038079352"/>
      <point x="105.7610475019513" y="679.9860315021697"/>
      <point x="197.01397589220545" y="679.9860315021697" type="curve" smooth="yes"/>
      <point x="227.47535022641495" y="679.9860315021697"/>
      <point x="254.14803488517916" y="679.9860315021697"/>
      <point x="280.0139746280432" y="679.9860315021697" type="curve" smooth="yes"/>
      <point x="413.72967823893714" y="679.9860315021697"/>
      <point x="500.0203046059562" y="592.2001472133205"/>
      <point x="500.0209484353996" y="475.9793018937257" type="curve" smooth="yes"/>
      <point x="500.0216124049829" y="356.1228600578107"/>
      <point x="411.87672734865777" y="272.9790550133832"/>
      <point x="292.0209461057668" y="272.9790550133832" type="curve" smooth="yes"/>
      <point x="255.02094666930907" y="272.9790550133832" type="line" smooth="yes"/>
      <point x="88.1934855276294" y="272.9790550133832"/>
      <point x="89.98588354596208" y="362.99999896430074"/>
      <point x="255.00000271871045" y="362.99999896430074" type="curve" smooth="yes"/>
      <point x="338.47778082488475" y="362.99999896430074"/>
      <point x="393.1496386074058" y="316.15942833702786"/>
      <point x="432.7887707739085" y="259.91768764245876" type="curve" smooth="yes"/>
      <point x="475.65564688222446" y="199.09628216003784"/>
      <point x="512.6285212895874" y="134.1505841738912"/>
      <point x="557.7843756086688" y="64.45005569592335" type="curve" smooth="yes"/>
      <point x="594.4856342934766" y="7.799657542416746"/>
      <point x="518.951770088801" y="-41.135354037326834"/>
      <point x="482.25051140399324" y="15.51504411617977" type="curve" smooth="yes"/>
      <point x="435.64635901800096" y="87.45109979609107"/>
      <point x="400.75777024042776" y="149.1396606616665"/>
      <point x="359.22414068703665" y="208.06939740852994" type="curve" smooth="yes"/>
      <point x="335.3780753291308" y="241.90324167160972"/>
      <point x="305.2184722929454" y="272.99999896430074"/>
      <point x="255.00000271871045" y="272.99999896430074" type="curve" smooth="yes"/>
      <point x="248.13678723491054" y="272.99999896430074"/>
      <point x="248.08231123513767" y="362.9790550133832"/>
      <point x="255.02094666930907" y="362.9790550133832" type="curve" smooth="yes"/>
      <point x="292.0209461057668" y="362.9790550133832" type="line" smooth="yes"/>
      <point x="362.09862157685944" y="362.9790550133832"/>
      <point x="410.0213366487174" y="405.9007416112742"/>
      <point x="410.02094843678054" y="475.97880332008555" type="curve" smooth="yes"/>
      <point x="410.02056247556385" y="545.6505763462421"/>
      <point x="360.17352024477333" y="589.9860315021697"/>
      <point x="280.0139746280432" y="589.9860315021697" type="curve" smooth="yes"/>
      <point x="241.46815154553457" y="589.9860315021697"/>
      <point x="217.45489555623575" y="589.9860315021697"/>
      <point x="197.01397589220545" y="589.9860315021697" type="curve" smooth="yes"/>
      <point x="163.19831972565916" y="589.9860315021697"/>
      <point x="170.02095593008644" y="556.9924416369231"/>
      <point x="170.02095465028535" y="514.9790506421231" type="curve" smooth="yes"/>
      <point x="170.02095027494624" y="371.34514147151236"/>
      <point x="170.0209465391995" y="248.70781411637466"/>
      <point x="170.0209438668288" y="160.97905603385152" type="curve" smooth="yes"/>
      <point x="170.02094298329305" y="131.97428932312982"/>
      <point x="170.02094187453173" y="79.97974053199223"/>
      <point x="170.01570380749655" y="39.97840260702799" type="curve" smooth="yes"/>
      <point x="170.0068648650965" y="-27.52159681425421"/>
      <point x="80.00686563672022" y="-27.509811557720795"/>
    </contour>
  </outline>
</glyph>
<glyph name="S" format="2">
  <advance width="521"/>
  <unicode hex="0053"/>
  <outline>
    <contour>
      <point x="120.29091146234488" y="115.10820891635191" type="curve" smooth="yes"/>
      <point x="167.85879932023101" y="93.96350905146974"/>
      <point x="215.7438654084493" y="82.97952044701574"/>
      <point x="258.02142839931116" y="82.97905927534978" type="curve" smooth="yes"/>
      <point x="328.3853787941912" y="82.97829173204943"/>
      <point x="384.0209371998749" y="112.61587558870328"/>
      <point x="384.0209393432601" y="182.9790584403292" type="curve" smooth="yes"/>
      <point x="384.0209415945996" y="256.8861739704429"/>
      <point x="307.7934367090115" y="281.8781823127006"/>
      <point x="247.99253091801427" y="306.32532662896233" type="curve" smooth="yes"/>
      <point x="149.6913535098706" y="346.51172579412577"/>
      <point x="63.02095048092162" y="388.106913791903"/>
      <point x="63.02095401058883" y="503.9790535512196" type="curve" smooth="yes"/>
      <point x="63.02095745513019" y="617.0566761530199"/>
      <point x="147.45277549252518" y="687.0898339666795"/>
      <point x="270.6967116622042" y="687.977881890006" type="curve" smooth="yes"/>
      <point x="317.59120871427643" y="688.3157854170825"/>
      <point x="371.1750489274409" y="679.2596004997299"/>
      <point x="426.99812935693905" y="658.050454453818" type="curve" smooth="yes"/>
      <point x="490.09738134419644" y="634.0768356479599"/>
      <point x="458.1325562697189" y="549.9444996649501"/>
      <point x="395.03330428246153" y="573.9181184708082" type="curve" smooth="yes"/>
      <point x="350.8890183710235" y="590.6900808882286"/>
      <point x="308.4288589796369" y="598.2474286771605"/>
      <point x="271.3451998620737" y="597.9802182366942" type="curve" smooth="yes"/>
      <point x="200.98876635160636" y="597.4732571105452"/>
      <point x="153.02095597697883" y="568.5318270627031"/>
      <point x="153.02095401058878" y="503.97905080966274" type="curve" smooth="yes"/>
      <point x="153.0209519404059" y="436.0189549764094"/>
      <point x="224.39480106383678" y="413.2024821902896"/>
      <point x="282.0493628166065" y="389.6327824839518" type="curve" smooth="yes"/>
      <point x="380.85891792198447" y="349.23855397628824"/>
      <point x="474.02094306316786" y="305.0964234552941"/>
      <point x="474.0209393432601" y="182.9790556987723" type="curve" smooth="yes"/>
      <point x="474.02093564827544" y="61.67986766855091"/>
      <point x="379.32095786135864" y="-7.022263888250552"/>
      <point x="258.020446662262" y="-7.02094071929573" type="curve" smooth="yes"/>
      <point x="204.34291663443173" y="-7.020355194629737"/>
      <point x="144.12788599596965" y="6.021082588715192"/>
      <point x="83.73351725233987" y="32.86736183551081" type="curve" smooth="yes"/>
      <point x="22.05288194170904" y="60.28540749301458"/>
      <point x="58.610276151714054" y="142.52625457385568"/>
    </contour>
  </outline>
</glyph>
<glyph name="T" format="2">
  <advance width="498"/>
  <unicode hex="0054"/>
  <outline>
    <contour>
      <point x="423.0" y="590.0" type="curve" smooth="yes"/>
      <point x="312.0" y="590.0"/>
      <point x="200.0" y="590.0"/>
      <point x="75.0" y="590.0" type="curve" smooth="yes"/>
      <point x="8.0" y="590.0"/>
      <point x="8.0" y="680.0"/>
      <point x="75.0" y="680.0" type="curve" smooth="yes"/>
      <point x="151.0" y="680.0"/>
      <point x="295.0" y="650.0"/>
      <point x="295.0" y="534.0" type="curve" smooth="yes"/>
      <point x="295.0" y="438.0"/>
      <point x="294.0" y="269.0"/>
      <point x="294.0" y="201.0" type="curve" smooth="yes"/>
      <point x="294.0" y="121.0"/>
      <point x="294.0" y="78.0"/>
      <point x="294.0" y="40.0" type="curve" smooth="yes"/>
      <point x="294.0" y="-27.0"/>
      <point x="204.0" y="-27.0"/>
      <point x="204.0" y="40.0" type="curve" smooth="yes"/>
      <point x="204.0" y="82.0"/>
      <point x="204.0" y="125.0"/>
      <point x="204.0" y="201.0" type="curve" smooth="yes"/>
      <point x="204.0" y="270.0"/>
      <point x="205.0" y="414.0"/>
      <point x="205.0" y="504.0" type="curve" smooth="yes"/>
      <point x="205.0" y="576.0"/>
      <point x="200.0" y="590.0"/>
      <point x="75.0" y="590.0" type="curve" smooth="yes"/>
      <point x="8.0" y="590.0"/>
      <point x="8.0" y="680.0"/>
      <point x="75.0" y="680.0" type="curve" smooth="yes"/>
      <point x="170.0" y="680.0"/>
      <point x="349.0" y="680.0"/>
      <point x="423.0" y="680.0" type="curve" smooth="yes"/>
      <point x="490.0" y="680.0"/>
      <point x="490.0" y="590.0"/>
    </contour>
  </outline>
</glyph>
<glyph name="U" format="2">
  <advance width="668"/>
  <unicode hex="0055"/>
  <outline>
    <contour>
      <point x="160.0157226753933" y="639.9910157033952" type="curve" smooth="yes"/>
      <point x="160.02095845742227" y="604.9800259282172"/>
      <point x="160.02095608977788" y="538.984803736396"/>
      <point x="160.0209550234417" y="503.9790508096628" type="curve" smooth="yes"/>
      <point x="160.02095172009447" y="395.5365581798771"/>
      <point x="160.02095113781786" y="376.4215470339341"/>
      <point x="160.02094783447066" y="267.97905440414837" type="curve" smooth="yes"/>
      <point x="160.02094450138304" y="158.56024243051988"/>
      <point x="231.27516377372248" y="79.97871537992525"/>
      <point x="335.0182858102813" y="79.98080464383742" type="curve" smooth="yes"/>
      <point x="442.32496462312963" y="79.9829656735729"/>
      <point x="508.02093782024497" y="158.23141352059864"/>
      <point x="508.0209411633492" y="267.9790571457051" type="curve" smooth="yes"/>
      <point x="508.0209433800401" y="340.7487311496533"/>
      <point x="508.0209461356294" y="431.2093795472714"/>
      <point x="508.02094835232026" y="503.9790535512196" type="curve" smooth="yes"/>
      <point x="508.02094955293524" y="543.3929154544154"/>
      <point x="508.0216121099708" y="600.5577982869403"/>
      <point x="508.0157170106631" y="639.9775564901493" type="curve" smooth="yes"/>
      <point x="508.0056226007286" y="707.4775557353558"/>
      <point x="598.0056215943374" y="707.4910149486017"/>
      <point x="598.0157160042719" y="639.9910157033951" type="curve" smooth="yes"/>
      <point x="598.0209517863009" y="604.9800259282171"/>
      <point x="598.0209494186564" y="538.984803736396"/>
      <point x="598.0209483523203" y="503.97905080966274" type="curve" smooth="yes"/>
      <point x="598.020945048973" y="395.53655817987703"/>
      <point x="598.0209444666964" y="376.4215470339341"/>
      <point x="598.0209411633492" y="267.97905440414837" type="curve" smooth="yes"/>
      <point x="598.0209362836249" y="107.78715611937874"/>
      <point x="491.64907009671094" y="-10.016041015466794"/>
      <point x="335.0200983034721" y="-10.01919533791186" type="curve" smooth="yes"/>
      <point x="182.8335601342745" y="-10.022260194992173"/>
      <point x="70.0209429449797" y="107.46653469641257"/>
      <point x="70.02094783447072" y="267.9790571457051" type="curve" smooth="yes"/>
      <point x="70.02095005116173" y="340.7487311496533"/>
      <point x="70.02095280675069" y="431.20937954727134"/>
      <point x="70.02095502344176" y="503.9790535512195" type="curve" smooth="yes"/>
      <point x="70.0209562240567" y="543.3929154544154"/>
      <point x="70.02161878109231" y="600.5577982869402"/>
      <point x="70.01572368178455" y="639.9775564901491" type="curve" smooth="yes"/>
      <point x="70.00562927184994" y="707.4775557353557"/>
      <point x="160.00562826545868" y="707.4910149486018"/>
    </contour>
  </outline>
</glyph>
<glyph name="V" format="2">
  <advance width="620"/>
  <unicode hex="0056"/>
  <outline>
    <contour>
      <point x="590.7094433687046" y="625.7629759606385" type="curve" smooth="yes"/>
      <point x="580.6173628121903" y="595.4655891842135"/>
      <point x="561.3536196359933" y="545.4523277802676"/>
      <point x="541.8364751876779" y="485.12661456860934" type="curve" smooth="yes"/>
      <point x="517.4465409619153" y="409.7395526318119"/>
      <point x="462.02921062139023" y="253.46405136236848"/>
      <point x="424.56726910897225" y="144.37722129674478" type="curve" smooth="yes"/>
      <point x="354.8572372730414" y="-58.61403035086873"/>
      <point x="281.72702959864324" y="-90.0057944332644"/>
      <point x="203.61615430968095" y="129.91804824984112" type="curve" smooth="yes"/>
      <point x="161.3522364220197" y="248.91355552475633"/>
      <point x="110.48560176365237" y="395.4211603356941"/>
      <point x="76.5604965328925" y="492.07571380981017" type="curve" smooth="yes"/>
      <point x="57.90071553978811" y="545.2384906839119"/>
      <point x="39.4645297916564" y="595.3459814215101"/>
      <point x="29.326464775698845" y="625.7495682455507" type="curve" smooth="yes"/>
      <point x="7.974387998866586" y="689.7834562839656"/>
      <point x="93.35290538341985" y="718.2528919864086"/>
      <point x="114.70498216025211" y="654.2190039479937" type="curve" smooth="yes"/>
      <point x="124.56723608849666" y="624.6425617851006"/>
      <point x="142.29977179619448" y="576.5319762973523"/>
      <point x="161.48141284383263" y="521.8823904596869" type="curve" smooth="yes"/>
      <point x="194.0590127174181" y="429.06695635501"/>
      <point x="244.42356402192644" y="283.9296689011696"/>
      <point x="288.425729144102" y="160.04006704680657" type="curve" smooth="yes"/>
      <point x="317.17289987158233" y="79.10142400553246"/>
      <point x="313.7912801964873" y="98.90188276217948"/>
      <point x="339.4466857874778" y="173.60881884132868" type="curve" smooth="yes"/>
      <point x="377.40196991772126" y="284.132231746553"/>
      <point x="432.13353128388127" y="438.42318710574636"/>
      <point x="456.20646932372733" y="512.8304427470358" type="curve" smooth="yes"/>
      <point x="476.17935872199917" y="574.5648220277262"/>
      <point x="495.46019633464005" y="624.5995554307208"/>
      <point x="505.3219890674572" y="654.2055962329058" type="curve" smooth="yes"/>
      <point x="526.6539542716574" y="718.2461869588415"/>
      <point x="612.0414085729047" y="689.8035666865742"/>
    </contour>
  </outline>
</glyph>
<glyph name="W" format="2">
  <advance width="888"/>
  <unicode hex="0057"/>
  <outline>
    <contour>
      <point x="123.00463936905646" y="653.2905583215414" type="curve" smooth="yes"/>
      <point x="135.87994808127715" y="611.7011131000858"/>
      <point x="162.21808111429374" y="531.1956548841162"/>
      <point x="175.14519193085334" y="487.835966603758" type="curve" smooth="yes"/>
      <point x="210.27790330007548" y="369.994986122499"/>
      <point x="239.2857436485882" y="274.99010536683545"/>
      <point x="275.08140181316907" y="157.04798909140274" type="curve" smooth="yes"/>
      <point x="278.2619399451658" y="146.5685226584163"/>
      <point x="270.64260444953857" y="144.9803437908192"/>
      <point x="273.566555676619" y="155.7701344373301" type="curve" smooth="yes"/>
      <point x="305.70381691056" y="274.3611415153418"/>
      <point x="342.1932047244891" y="428.31494803787945"/>
      <point x="371.3455873527671" y="544.9133351739562" type="curve" smooth="yes"/>
      <point x="421.3907500629816" y="745.0748564594705"/>
      <point x="464.82365635140707" y="738.0703108304942"/>
      <point x="514.6854495488712" y="537.8555031750127" type="curve" smooth="yes"/>
      <point x="544.0232133970864" y="420.0527855180183"/>
      <point x="582.4594205982785" y="265.97834545749976"/>
      <point x="612.6161020996296" y="148.13529906544602" type="curve" smooth="yes"/>
      <point x="615.241868524546" y="137.8746105804663"/>
      <point x="612.8374656513671" y="152.09331499971228"/>
      <point x="616.0328207857434" y="162.36508340897632" type="curve" smooth="yes"/>
      <point x="652.6072800236993" y="279.9371087981622"/>
      <point x="684.796869375352" y="388.1141543058204"/>
      <point x="719.8969767073602" y="505.8368604748619" type="curve" smooth="yes"/>
      <point x="732.7795177218015" y="549.0437822146918"/>
      <point x="751.9840632522047" y="611.1263884498985"/>
      <point x="765.0282736646868" y="653.28404031434" type="curve" smooth="yes"/>
      <point x="784.9805229849035" y="717.7678192596214"/>
      <point x="870.9588949119454" y="691.1648201659992"/>
      <point x="851.0066455917288" y="626.6810412207178" type="curve" smooth="yes"/>
      <point x="838.060962404747" y="584.8418200117512"/>
      <point x="818.9301512121992" y="523.0018098238536"/>
      <point x="806.1449162809479" y="480.12124422109963" type="curve" smooth="yes"/>
      <point x="770.9188548977664" y="361.9760991228318"/>
      <point x="738.6763610583484" y="253.62535262112917"/>
      <point x="701.9706571701435" y="135.63142900917336" type="curve" smooth="yes"/>
      <point x="643.5395236936384" y="-52.20092317743588"/>
      <point x="573.4412544538169" y="-61.80692520128752"/>
      <point x="525.4257751094963" y="125.82281647489562" type="curve" smooth="yes"/>
      <point x="495.2058314779364" y="243.9130718360365"/>
      <point x="456.7522718153068" y="398.05624911853084"/>
      <point x="427.35296374723066" y="516.106091143736" type="curve" smooth="yes"/>
      <point x="424.74041428662485" y="526.5965098431623"/>
      <point x="461.28007874761863" y="533.5707922328864"/>
      <point x="458.65792149132574" y="523.0831655164228" type="curve" smooth="yes"/>
      <point x="429.34235522182064" y="405.8321061917063"/>
      <point x="392.7505947928382" y="251.4847019657132"/>
      <point x="360.43344173413305" y="132.22986879161448" type="curve" smooth="yes"/>
      <point x="307.07207675694616" y="-64.68106165875417"/>
      <point x="247.00449671086994" y="-60.337466377228736"/>
      <point x="188.96048608802815" y="130.9101262357067" type="curve" smooth="yes"/>
      <point x="153.1076628636186" y="249.04059407328185"/>
      <point x="124.08553689643792" y="344.09296810926384"/>
      <point x="88.89671918219106" y="462.12213864051495" type="curve" smooth="yes"/>
      <point x="76.15037167073216" y="504.8755166112521"/>
      <point x="50.08822254085915" y="584.4952108150885"/>
      <point x="37.03030206350706" y="626.6745232135164" type="curve" smooth="yes"/>
      <point x="17.068275732488306" y="691.1552761926785"/>
      <point x="103.04261303803771" y="717.7713113007035"/>
    </contour>
  </outline>
</glyph>
<glyph name="X" format="2">
  <advance width="617"/>
  <unicode hex="0058"/>
  <outline>
    <contour>
      <point x="138.9330859676943" y="665.7157514775174" type="curve" smooth="yes"/>
      <point x="161.83515560648962" y="632.8577698069646"/>
      <point x="186.42125522979677" y="598.7089091556759"/>
      <point x="209.66528437106484" y="566.097878440125" type="curve" smooth="yes"/>
      <point x="253.34931538300143" y="504.8098259922771"/>
      <point x="301.92306506321984" y="433.8211412921869"/>
      <point x="345.73113049009567" y="372.0030907550887" type="curve" smooth="yes"/>
      <point x="391.9601995863042" y="306.7687348933209"/>
      <point x="434.63849675094815" y="251.37877775353766"/>
      <point x="479.6865268944207" y="188.0680336167829" type="curve" smooth="yes"/>
      <point x="508.24671202624154" y="147.92939564259711"/>
      <point x="537.5379123281314" y="106.27603861093495"/>
      <point x="566.4534046601344" y="66.3925992358699" type="curve" smooth="yes"/>
      <point x="606.0737146425914" y="11.74389351566073"/>
      <point x="533.2087736823124" y="-41.08318646094848"/>
      <point x="493.5884636998555" y="13.565519259260682" type="curve" smooth="yes"/>
      <point x="464.49657507091786" y="53.69226388169949"/>
      <point x="435.0897654583211" y="95.50658112491368"/>
      <point x="406.3553515484057" y="135.89008116201515" type="curve" smooth="yes"/>
      <point x="361.1293369707737" y="199.45096558094218"/>
      <point x="318.3497999841097" y="254.9845141925325"/>
      <point x="272.3002912692258" y="319.9654903942077" type="curve" smooth="yes"/>
      <point x="229.40174842495074" y="380.50010345402933"/>
      <point x="180.98125661743757" y="451.28058373538806"/>
      <point x="136.37662532550854" y="513.8602248241345" type="curve" smooth="yes"/>
      <point x="112.93193414785179" y="546.7527814228422"/>
      <point x="88.19813960146162" y="581.1111812736838"/>
      <point x="65.09836000871178" y="614.2528207160269" type="curve" smooth="yes"/>
      <point x="26.501161937594034" y="669.6288651852639"/>
      <point x="100.33588789657655" y="721.0917959467544"/>
    </contour>
    <contour>
      <point x="558.4140758451972" y="613.5113229885826" type="curve" smooth="yes"/>
      <point x="534.4720402000275" y="580.5910253553376"/>
      <point x="510.3190499988067" y="546.7692121254768"/>
      <point x="486.5616416209333" y="513.7154284651606" type="curve" smooth="yes"/>
      <point x="441.30074448969685" y="450.74374913665804"/>
      <point x="391.451194266535" y="382.537219153137"/>
      <point x="345.37458550192287" y="319.43230108647253" type="curve" smooth="yes"/>
      <point x="298.1153347615607" y="254.70767777276714"/>
      <point x="256.10640129551916" y="195.73584507930798"/>
      <point x="212.44492591904037" y="135.55381397902096" type="curve" smooth="yes"/>
      <point x="182.667650513201" y="94.5094631158468"/>
      <point x="152.62699224213142" y="52.42562914368201"/>
      <point x="124.4534103373953" y="13.565517804386111" type="curve" smooth="yes"/>
      <point x="84.83309817262652" y="-41.08318633364699"/>
      <point x="11.968159321915714" y="11.74389655271137"/>
      <point x="51.58847148668449" y="66.39260069074447" type="curve" smooth="yes"/>
      <point x="80.53290344437536" y="106.31595343771829"/>
      <point x="110.60833864094299" y="148.4470126713752"/>
      <point x="139.59696065707107" y="188.4043007997771" type="curve" smooth="yes"/>
      <point x="184.40817903765233" y="250.17111273107355"/>
      <point x="226.63467020967116" y="309.4314827604709"/>
      <point x="272.6882521832965" y="372.5048641364474" type="curve" smooth="yes"/>
      <point x="318.6001097577289" y="435.3841447129312"/>
      <point x="368.3811970440443" y="503.49615655330535"/>
      <point x="413.4802596377376" y="566.242674799099" type="curve" smooth="yes"/>
      <point x="437.3467742462404" y="599.4482584236981"/>
      <point x="461.57583953346716" y="633.375292668423"/>
      <point x="485.62782931257647" y="666.4467772295027" type="curve" smooth="yes"/>
      <point x="525.3294199932666" y="721.0364621289683"/>
      <point x="598.1156665258873" y="668.1010078880482"/>
    </contour>
    <contour>
      <point x="493.567519749257" y="13.586463210178259" type="curve" smooth="yes"/>
      <point x="464.7658227093929" y="53.312943555008246"/>
      <point x="435.78446786035636" y="95.41307824160137"/>
      <point x="406.60687095107124" y="135.5322756683269" type="curve" smooth="yes"/>
      <point x="379.4175802601161" y="172.91755193060646"/>
      <point x="354.7916121702683" y="210.19234713313668"/>
      <point x="319.25389731834247" y="256.6647453281958" type="curve" smooth="yes"/>
      <point x="306.7884184172899" y="272.96575684780464"/>
      <point x="308.3026490271943" y="267.4328588581802"/>
      <point x="295.4990658935562" y="249.67855774098214" type="curve" smooth="yes"/>
      <point x="264.2556863533827" y="206.35440679937568"/>
      <point x="238.0443253799241" y="171.1580659711067"/>
      <point x="212.51904420181108" y="135.70628798150594" type="curve" smooth="yes"/>
      <point x="183.61697935256598" y="95.56453285933061"/>
      <point x="153.46624633530968" y="53.633053105130045"/>
      <point x="124.4324663867967" y="13.58646175530371" type="curve" smooth="yes"/>
      <point x="84.81215422202793" y="-41.062242382729394"/>
      <point x="11.947215371317121" y="11.764840503628967"/>
      <point x="51.5675275360859" y="66.41354464166207" type="curve" smooth="yes"/>
      <point x="80.52604195721648" y="106.3563214753228"/>
      <point x="110.65381370047419" y="148.25602079029335"/>
      <point x="139.48095447310317" y="188.29371469912738" type="curve" smooth="yes"/>
      <point x="164.6044212141037" y="223.18741710405087"/>
      <point x="190.75465759027034" y="258.2999357971575"/>
      <point x="222.50093719831062" y="302.3214414670126" type="curve" smooth="yes"/>
      <point x="285.2149859151842" y="389.2849182981752"/>
      <point x="329.6881445667562" y="391.18027982172157"/>
      <point x="390.746103336585" y="311.33525363610494" type="curve" smooth="yes"/>
      <point x="427.1500271153466" y="263.73012064547004"/>
      <point x="452.8508211255223" y="224.9633889267726"/>
      <point x="479.3931195905579" y="188.46772701230643" type="curve" smooth="yes"/>
      <point x="508.47191863272417" y="148.4843766585458"/>
      <point x="537.5314261236988" y="106.27704084216501"/>
      <point x="566.4324607095359" y="66.4135431867875" type="curve" smooth="yes"/>
      <point x="606.0527706919929" y="11.764837466578342"/>
      <point x="533.1878297317139" y="-41.062242510030906"/>
    </contour>
  </outline>
</glyph>
<glyph name="Y" format="2">
  <advance width="582"/>
  <unicode hex="0059"/>
  <anchor x="291" y="0" name="below"/>
  <anchor x="291" y="680" name="above"/>
  <outline>
    <contour>
      <point x="541.0" y="618.0" type="curve" smooth="yes"/>
      <point x="520.0" y="580.0"/>
      <point x="500.0" y="542.0"/>
      <point x="479.0" y="504.0" type="curve" smooth="yes"/>
      <point x="439.0" y="432.0"/>
      <point x="411.0" y="381.0"/>
      <point x="372.0" y="308.0" type="curve" smooth="yes"/>
      <point x="353.0" y="273.0"/>
      <point x="336.0" y="234.0"/>
      <point x="336.0" y="188.0" type="curve" smooth="yes"/>
      <point x="336.0" y="129.0"/>
      <point x="336.0" y="83.0"/>
      <point x="336.0" y="40.0" type="curve" smooth="yes"/>
      <point x="336.0" y="-28.0"/>
      <point x="246.0" y="-28.0"/>
      <point x="246.0" y="40.0" type="curve" smooth="yes"/>
      <point x="246.0" y="79.0"/>
      <point x="246.0" y="125.0"/>
      <point x="246.0" y="189.0" type="curve" smooth="yes"/>
      <point x="246.0" y="290.0"/>
      <point x="215.0" y="302.0"/>
      <point x="164.0" y="390.0" type="curve" smooth="yes"/>
      <point x="121.0" y="465.0"/>
      <point x="96.0" y="516.0"/>
      <point x="40.0" y="619.0" type="curve" smooth="yes"/>
      <point x="8.0" y="678.0"/>
      <point x="88.0" y="721.0"/>
      <point x="120.0" y="661.0" type="curve" smooth="yes"/>
      <point x="174.0" y="560.0"/>
      <point x="199.0" y="510.0"/>
      <point x="242.0" y="435.0" type="curve" smooth="yes"/>
      <point x="306.0" y="324.0"/>
      <point x="336.0" y="315.0"/>
      <point x="336.0" y="189.0" type="curve" smooth="yes"/>
      <point x="336.0" y="129.0"/>
      <point x="336.0" y="83.0"/>
      <point x="336.0" y="40.0" type="curve" smooth="yes"/>
      <point x="336.0" y="-28.0"/>
      <point x="246.0" y="-28.0"/>
      <point x="246.0" y="40.0" type="curve" smooth="yes"/>
      <point x="246.0" y="79.0"/>
      <point x="246.0" y="129.0"/>
      <point x="246.0" y="189.0" type="curve" smooth="yes"/>
      <point x="246.0" y="250.0"/>
      <point x="267.0" y="303.0"/>
      <point x="292.0" y="350.0" type="curve" smooth="yes"/>
      <point x="331.0" y="423.0"/>
      <point x="360.0" y="475.0"/>
      <point x="401.0" y="548.0" type="curve" smooth="yes"/>
      <point x="421.0" y="586.0"/>
      <point x="442.0" y="624.0"/>
      <point x="463.0" y="662.0" type="curve" smooth="yes"/>
      <point x="495.0" y="721.0"/>
      <point x="574.0" y="677.0"/>
    </contour>
  </outline>
</glyph>
<glyph name="Z" format="2">
  <advance width="595"/>
  <unicode hex="005A"/>
  <outline>
    <contour>
      <point x="105.0199611412649" y="679.9825407746168" type="curve" smooth="yes"/>
      <point x="181.78687767366554" y="679.9782875643596"/>
      <point x="254.6707370091886" y="679.9790501851971"/>
      <point x="357.0209547721323" y="679.9790501851971" type="curve" smooth="yes"/>
      <point x="561.5134539405776" y="679.9790501851971"/>
      <point x="571.0358135937496" y="639.1858922447495"/>
      <point x="460.3574645814271" y="487.4750229971813" type="curve" smooth="yes"/>
      <point x="376.46052654532707" y="372.47441528799885"/>
      <point x="296.4185490056918" y="262.5464475864965"/>
      <point x="212.4495376101199" y="146.60170751230544" type="curve" smooth="yes"/>
      <point x="164.28478395885332" y="80.0956268758952"/>
      <point x="159.20339746427885" y="89.97905917141097"/>
      <point x="275.02093804863614" y="89.97905917141094" type="curve" smooth="yes"/>
      <point x="362.74969613115945" y="89.97905917141094"/>
      <point x="440.06121188084893" y="89.97829645652088"/>
      <point x="490.0136125787593" y="89.9825496667786" type="curve" smooth="yes"/>
      <point x="557.5136123340814" y="89.98829697198836"/>
      <point x="557.5212754076944" y="-0.011702701774415562"/>
      <point x="490.0212756523723" y="-0.017450006984184085" type="curve" smooth="yes"/>
      <point x="456.5010214941502" y="-0.020304097815351675"/>
      <point x="333.89078668104366" y="-0.020940828589067574"/>
      <point x="275.02093804863614" y="-0.020940828589061766" type="curve" smooth="yes"/>
      <point x="21.950474791515543" y="-0.02094082858903506"/>
      <point x="34.31365617377625" y="54.07028052634784"/>
      <point x="139.5574427167397" y="199.3913135162761" type="curve" smooth="yes"/>
      <point x="223.61849964711055" y="315.4631504257152"/>
      <point x="303.6606244006341" y="425.3913180428481"/>
      <point x="387.6495289658283" y="540.5179876439462" type="curve" smooth="yes"/>
      <point x="431.2598989017081" y="600.2963199936968"/>
      <point x="437.5967278788992" y="589.9790501851971"/>
      <point x="357.0209547721323" y="589.9790501851971" type="curve" smooth="yes"/>
      <point x="288.3394647009904" y="589.9790501851971"/>
      <point x="156.52894640663672" y="589.9796868219189"/>
      <point x="105.0149747624925" y="589.98254091275" type="curve" smooth="yes"/>
      <point x="37.51497486609239" y="589.9862806968292"/>
      <point x="37.51996124486479" y="679.9862805586961"/>
    </contour>
  </outline>
</glyph>
<glyph name="bracketleft" format="2">
  <advance width="430"/>
  <unicode hex="005B"/>
  <outline>
    <contour>
      <point x="345.0000124283906" y="677.9999927957981" type="curve" smooth="yes"/>
      <point x="158.00001527656343" y="677.9999927957981" type="line"/>
      <point x="203.0000152765634" y="722.9999914250197" type="line"/>
      <point x="202.9999898105474" y="-112.99999584197225" type="line"/>
      <point x="157.99998981054742" y="-67.99999447119387" type="line"/>
      <point x="344.9999869623746" y="-67.99999447119387" type="line" smooth="yes"/>
      <point x="412.4999869623746" y="-67.99999447119389"/>
      <point x="412.4999869623746" y="-157.99999447119387"/>
      <point x="344.9999869623746" y="-157.99999447119387" type="curve" smooth="yes"/>
      <point x="157.99998981054742" y="-157.99999447119387" type="line" smooth="yes"/>
      <point x="133.14717553283947" y="-157.99999447119387"/>
      <point x="112.99998905348744" y="-137.85280737812343"/>
      <point x="112.99998981054745" y="-112.9999931004155" type="curve" smooth="yes"/>
      <point x="113.00001527656346" y="722.9999941665765" type="line" smooth="yes"/>
      <point x="113.00001603362344" y="747.852807373639"/>
      <point x="133.14720206950085" y="767.9999927957981"/>
      <point x="158.00001527656343" y="767.9999927957981" type="curve" smooth="yes"/>
      <point x="345.0000124283906" y="767.9999927957981" type="line" smooth="yes"/>
      <point x="412.5000124283906" y="767.9999927957981"/>
      <point x="412.5000124283906" y="677.9999927957981"/>
    </contour>
  </outline>
</glyph>
<glyph name="bracketright" format="2">
  <advance width="430"/>
  <unicode hex="005D"/>
  <outline>
    <contour>
      <point x="85" y="678" type="curve" smooth="yes"/>
      <point x="17" y="678"/>
      <point x="17" y="768"/>
      <point x="85" y="768" type="curve" smooth="yes"/>
      <point x="293" y="768"/>
      <point x="317" y="771"/>
      <point x="317" y="577" type="curve" smooth="yes"/>
      <point x="317" y="314"/>
      <point x="317" y="218"/>
      <point x="317" y="41" type="curve" smooth="yes"/>
      <point x="317" y="-152"/>
      <point x="299" y="-158"/>
      <point x="85" y="-158" type="curve" smooth="yes"/>
      <point x="17" y="-158"/>
      <point x="17" y="-68"/>
      <point x="85" y="-68" type="curve" smooth="yes"/>
      <point x="236" y="-68"/>
      <point x="227" y="-75"/>
      <point x="227" y="61" type="curve" smooth="yes"/>
      <point x="227" y="324"/>
      <point x="227" y="380"/>
      <point x="227" y="557" type="curve" smooth="yes"/>
      <point x="227" y="691"/>
      <point x="228" y="678"/>
    </contour>
  </outline>
</glyph>
<glyph name="grave" format="2">
  <advance width="500"/>
  <unicode hex="0060"/>
  <outline>
    <contour>
      <point x="233" y="570" type="curve" smooth="yes"/>
      <point x="198" y="600"/>
      <point x="165" y="628"/>
      <point x="132" y="656" type="curve" smooth="yes"/>
      <point x="80" y="700"/>
      <point x="139" y="768"/>
      <point x="190" y="724" type="curve" smooth="yes"/>
      <point x="225" y="694"/>
      <point x="258" y="666"/>
      <point x="291" y="638" type="curve" smooth="yes"/>
      <point x="343" y="594"/>
      <point x="284" y="526"/>
    </contour>
  </outline>
</glyph>
<glyph name="a" format="2">
  <advance width="584"/>
  <unicode hex="0061"/>
  <outline>
    <contour>
      <point x="519" y="452" type="curve" smooth="yes"/>
      <point x="519" y="384"/>
      <point x="519" y="343"/>
      <point x="519" y="227" type="curve" smooth="yes"/>
      <point x="519" y="76"/>
      <point x="417" y="-11"/>
      <point x="280" y="-11" type="curve" smooth="yes"/>
      <point x="143" y="-11"/>
      <point x="39" y="98"/>
      <point x="39" y="249" type="curve" smooth="yes"/>
      <point x="39" y="400"/>
      <point x="142" y="508"/>
      <point x="279" y="508" type="curve" smooth="yes"/>
      <point x="415" y="508"/>
      <point x="519" y="402"/>
      <point x="519" y="251" type="curve" smooth="yes"/>
      <point x="519" y="206"/>
      <point x="519" y="163"/>
      <point x="519" y="129" type="curve" smooth="yes"/>
      <point x="519" y="93"/>
      <point x="519" y="65"/>
      <point x="519" y="29" type="curve" smooth="yes"/>
      <point x="519" y="-39"/>
      <point x="429" y="-39"/>
      <point x="429" y="29" type="curve" smooth="yes"/>
      <point x="429" y="62"/>
      <point x="429" y="96"/>
      <point x="429" y="129" type="curve" smooth="yes"/>
      <point x="429" y="152"/>
      <point x="429" y="221"/>
      <point x="429" y="251" type="curve" smooth="yes"/>
      <point x="429" y="350"/>
      <point x="367" y="418"/>
      <point x="279" y="418" type="curve" smooth="yes"/>
      <point x="190" y="418"/>
      <point x="129" y="348"/>
      <point x="129" y="249" type="curve" smooth="yes"/>
      <point x="129" y="150"/>
      <point x="191" y="79"/>
      <point x="280" y="79" type="curve" smooth="yes"/>
      <point x="369" y="79"/>
      <point x="429" y="128"/>
      <point x="429" y="227" type="curve" smooth="yes"/>
      <point x="429" y="305"/>
      <point x="429" y="406"/>
      <point x="429" y="452" type="curve" smooth="yes"/>
      <point x="429" y="520"/>
      <point x="519" y="519"/>
    </contour>
  </outline>
</glyph>
<glyph name="b" format="2">
  <advance width="584"/>
  <unicode hex="0062"/>
  <outline>
    <contour>
      <point x="66.0167517666066" y="43.986594810774456" type="curve" smooth="yes"/>
      <point x="66.0216449626066" y="109.77827218087047"/>
      <point x="66.0209420678537" y="97.67218574881369"/>
      <point x="66.02094670738626" y="249.9790574198608" type="curve" smooth="yes"/>
      <point x="66.02095131018446" y="401.0800095339139"/>
      <point x="167.21688191293188" y="507.9790528049069"/>
      <point x="305.02095024094825" y="507.9790528049069" type="curve" smooth="yes"/>
      <point x="441.6845085824078" y="507.9790528049069"/>
      <point x="546.020945311523" y="399.15555729887575"/>
      <point x="546.0209407064231" y="247.9790547087657" type="curve" smooth="yes"/>
      <point x="546.0209360874271" y="96.34636410718225"/>
      <point x="438.2376064536635" y="-11.016519695896582"/>
      <point x="306.0060666373987" y="-11.008723278130297" type="curve" smooth="yes"/>
      <point x="164.71338696827334" y="-11.0003926123939"/>
      <point x="77.44059469402815" y="103.20005493768402"/>
      <point x="71.1019495733999" y="196.96539984855443" type="curve" smooth="yes"/>
      <point x="57.08971838079647" y="404.24340102100336"/>
      <point x="66.02095295400623" y="455.0434918361139"/>
      <point x="66.02095758222805" y="606.9790519824398" type="curve" smooth="yes"/>
      <point x="66.02095854725087" y="638.6588812900178"/>
      <point x="66.02064232768569" y="657.2047299236244"/>
      <point x="66.01851687319336" y="694.9789607031736" type="curve" smooth="yes"/>
      <point x="66.01471882952592" y="762.4789605963207"/>
      <point x="156.01471868705545" y="762.484024654544"/>
      <point x="156.0185167307229" y="694.9840247613969" type="curve" smooth="yes"/>
      <point x="156.01994300401094" y="669.6358573325837"/>
      <point x="156.02095822980073" y="628.2376056914749"/>
      <point x="156.020957582228" y="606.9790492408831" type="curve" smooth="yes"/>
      <point x="156.0209530119367" y="456.94523576121225"/>
      <point x="147.06016261443366" y="407.7191932404655"/>
      <point x="160.8970055441626" y="203.03564887207855" type="curve" smooth="yes"/>
      <point x="164.69498120810542" y="146.8535324551569"/>
      <point x="221.35193108029378" y="78.9962681157001"/>
      <point x="306.01137306883004" y="78.99127656543519" type="curve" smooth="yes"/>
      <point x="391.7145421891835" y="78.98622347665405"/>
      <point x="456.02093771271524" y="149.70142909585596"/>
      <point x="456.0209407064231" y="247.97905745032259" type="curve" smooth="yes"/>
      <point x="456.02094371359516" y="346.6986894383135"/>
      <point x="394.26349755809207" y="417.9790528049069"/>
      <point x="305.02095024094825" y="417.9790528049069" type="curve" smooth="yes"/>
      <point x="214.94360719637837" y="417.9790528049069"/>
      <point x="156.02094971606243" y="348.748071174543"/>
      <point x="156.0209467073862" y="249.979054678304" type="curve" smooth="yes"/>
      <point x="156.02094359405615" y="147.77445635815212"/>
      <point x="156.0200350670533" y="88.12900541272596"/>
      <point x="156.01675151768887" y="43.97990114287622" type="curve" smooth="yes"/>
      <point x="156.01173126676522" y="-23.52009867043548"/>
      <point x="66.01173151568294" y="-23.513405002537247"/>
    </contour>
  </outline>
</glyph>
<glyph name="c" format="2">
  <advance width="475"/>
  <unicode hex="0063"/>
  <outline>
    <contour>
      <point x="420.0640132782981" y="31.289807795197802" type="curve" smooth="yes"/>
      <point x="381.38635648037746" y="3.8337019391910747"/>
      <point x="324.8314448631573" y="-10.3706453432327"/>
      <point x="278.65024961176493" y="-11.016540060624848" type="curve" smooth="yes"/>
      <point x="150.329415281741" y="-12.811247810693677"/>
      <point x="39.02094132281919" y="86.96414607587124"/>
      <point x="39.02094622761384" y="247.97905745032253" type="curve" smooth="yes"/>
      <point x="39.020951063484425" y="406.7313252449205"/>
      <point x="147.77676572715637" y="506.9790528201378"/>
      <point x="275.0209498373302" y="506.9790528201378" type="curve" smooth="yes"/>
      <point x="322.5562695032216" y="506.9790528201378"/>
      <point x="380.2532188602014" y="494.29252322321173"/>
      <point x="420.2785942927628" y="465.52551209831745" type="curve" smooth="yes"/>
      <point x="475.09042847451013" y="426.13118720712737"/>
      <point x="422.56466195292336" y="353.0487416314643"/>
      <point x="367.75282777117604" y="392.44306652265436" type="curve" smooth="yes"/>
      <point x="343.9017505035347" y="409.5852968623798"/>
      <point x="303.347194626801" y="416.9790528201378"/>
      <point x="275.0209498373302" y="416.9790528201378" type="curve" smooth="yes"/>
      <point x="192.3437882747709" y="416.9790528201378"/>
      <point x="129.02094936973035" y="351.128656277292"/>
      <point x="129.0209462276138" y="247.97905470876574" type="curve" smooth="yes"/>
      <point x="129.02094303433358" y="143.14984706251298"/>
      <point x="193.84798640023044" y="77.80620924654824"/>
      <point x="277.3916238962594" y="78.97465873852589" type="curve" smooth="yes"/>
      <point x="305.14512199648306" y="79.36282187970284"/>
      <point x="344.723287790087" y="88.178494691171"/>
      <point x="367.9673867922633" y="104.6787818224628" type="curve" smooth="yes"/>
      <point x="423.0091173127122" y="143.75125168698875"/>
      <point x="475.10574379874697" y="70.36227765972376"/>
    </contour>
  </outline>
</glyph>
<glyph name="e" format="2">
  <advance width="548"/>
  <unicode hex="0065"/>
  <outline>
    <contour>
      <point x="160.01450259742305" y="293.9912729985495" type="curve" smooth="yes"/>
      <point x="242.88007381195496" y="293.98063997290507"/>
      <point x="274.4061472231535" y="293.9912733690152"/>
      <point x="367.00872519915004" y="293.9912733690152" type="curve" smooth="yes"/>
      <point x="400.18879037650794" y="293.99127336901523"/>
      <point x="416.57404645407644" y="288.74747941255384"/>
      <point x="411.82634051491175" y="313.50337926732016" type="curve" smooth="yes"/>
      <point x="399.1929064238933" y="379.3777264123477"/>
      <point x="349.3641270505314" y="417.9790528049069"/>
      <point x="282.02095031710263" y="417.9790528049069" type="curve" smooth="yes"/>
      <point x="191.49322055730983" y="417.9790528049069"/>
      <point x="129.02094990401932" y="350.4183278580049"/>
      <point x="129.02094678354055" y="247.97905470876574" type="curve" smooth="yes"/>
      <point x="129.02094348353543" y="139.64627881348747"/>
      <point x="197.13253133602984" y="78.97905933895053"/>
      <point x="291.0209371119376" y="78.97905933895052" type="curve" smooth="yes"/>
      <point x="334.0394378730383" y="78.97905933895052"/>
      <point x="381.59983716470566" y="92.50767239561648"/>
      <point x="428.9156839275334" y="119.18364775440998" type="curve" smooth="yes"/>
      <point x="487.71471362005855" y="152.33367199599303"/>
      <point x="531.9147459421692" y="73.9349657392928"/>
      <point x="473.1157162496441" y="40.78494149770975" type="curve" smooth="yes"/>
      <point x="410.4974246582855" y="5.48167382348253"/>
      <point x="347.95207559465706" y="-11.020940661049487"/>
      <point x="291.0209371119376" y="-11.02094066104948" type="curve" smooth="yes"/>
      <point x="150.9312052216774" y="-11.020940661049465"/>
      <point x="39.0209418596437" y="86.33705911540684"/>
      <point x="39.0209467835406" y="247.97905745032253" type="curve" smooth="yes"/>
      <point x="39.02095151940305" y="403.44824905891215"/>
      <point x="144.62957168625593" y="507.9790528049069"/>
      <point x="282.02095031710263" y="507.9790528049069" type="curve" smooth="yes"/>
      <point x="392.6863160485297" y="507.9790528049069"/>
      <point x="479.4549633168193" y="438.70636165257577"/>
      <point x="500.2155462287393" y="330.45473063759925" type="curve" smooth="yes"/>
      <point x="516.4300488740519" y="245.9076654179652"/>
      <point x="480.32624348769207" y="203.99127336901523"/>
      <point x="367.00872519915004" y="203.9912733690152" type="curve" smooth="yes"/>
      <point x="304.8683294204978" y="203.99127336901518"/>
      <point x="215.60939081958932" y="203.98413851240306"/>
      <point x="160.00295410645757" y="203.99127373948087" type="curve" smooth="yes"/>
      <point x="92.50295466215609" y="203.99993510770497"/>
      <point x="92.51450315312157" y="293.9999343667736"/>
    </contour>
  </outline>
</glyph>
<glyph name="f" format="2">
  <advance width="364"/>
  <unicode hex="0066"/>
  <outline>
    <contour>
      <point x="317.7074455968982" y="635.8300059835118" type="curve" smooth="yes"/>
      <point x="259.94700376118095" y="665.0313638778993"/>
      <point x="208.02095627275665" y="644.9916399118748"/>
      <point x="208.02095441420684" y="583.9790495911932" type="curve" smooth="yes"/>
      <point x="208.02094921793025" y="413.39535331962037"/>
      <point x="208.0209455710064" y="293.6739083588404"/>
      <point x="208.02094256458932" y="194.97905551600192" type="curve" smooth="yes"/>
      <point x="208.02094126944402" y="152.4619426148187"/>
      <point x="208.01977856713094" y="74.31722277658974"/>
      <point x="208.01692343026448" y="39.979331831849855" type="curve" smooth="yes"/>
      <point x="208.0113109208026" y="-27.52066793481486"/>
      <point x="118.01131123191628" y="-27.51318458886559"/>
      <point x="118.01692374137818" y="39.98681517779912" type="curve" smooth="yes"/>
      <point x="118.02117851045413" y="91.15767084901323"/>
      <point x="118.02094063454376" y="131.61939964240304"/>
      <point x="118.02094256458938" y="194.9790582575587" type="curve" smooth="yes"/>
      <point x="118.02094458202728" y="261.2076379690172"/>
      <point x="118.02095092727718" y="469.5099022141799"/>
      <point x="118.0209544142069" y="583.9790523327499" type="curve" smooth="yes"/>
      <point x="118.02095827328688" y="710.6651734440672"/>
      <point x="238.3801370944618" y="776.7825349190582"/>
      <point x="358.3135195550726" y="716.1490370888686" type="curve" smooth="yes"/>
      <point x="418.55279288409025" y="685.6944816202379"/>
      <point x="377.94671892591583" y="605.3754505148811"/>
    </contour>
    <contour>
      <point x="309.0139668831454" y="407.9860342741881" type="curve" smooth="yes"/>
      <point x="275.0083783257475" y="407.9860342741881"/>
      <point x="247.01144629420065" y="407.987488534827"/>
      <point x="222.00436950657638" y="407.99039790184247" type="curve" smooth="yes"/>
      <point x="180.67564757400402" y="407.99520615757774"/>
      <point x="152.33402314172994" y="407.99533271455493"/>
      <point x="111.0149809945187" y="407.9903979182335" type="curve" smooth="yes"/>
      <point x="92.01412727810758" y="407.98812861724895"/>
      <point x="78.01742247736463" y="407.9860342741881"/>
      <point x="57.01397072132482" y="407.9860342741881" type="curve" smooth="yes"/>
      <point x="-10.486029278675183" y="407.9860342741881"/>
      <point x="-10.486029278675169" y="497.9860342741881"/>
      <point x="57.01397072132483" y="497.9860342741881" type="curve" smooth="yes"/>
      <point x="79.76002912969383" y="497.9860342741881"/>
      <point x="90.42692260521738" y="497.98793969684544"/>
      <point x="111.00423215711415" y="497.9903972763584" type="curve" smooth="yes"/>
      <point x="149.0059395899364" y="497.9949358783274"/>
      <point x="184.0042301954843" y="497.9948195135516"/>
      <point x="222.01484026380308" y="497.99039729274944" type="curve" smooth="yes"/>
      <point x="252.47982983500512" y="497.9868529426222"/>
      <point x="267.5864977886207" y="497.9860342741881"/>
      <point x="309.0139668831454" y="497.9860342741881" type="curve" smooth="yes"/>
      <point x="376.5139668831454" y="497.9860342741881"/>
      <point x="376.5139668831454" y="407.9860342741881"/>
    </contour>
  </outline>
</glyph>
<glyph name="j" format="2">
  <advance width="245"/>
  <unicode hex="006A"/>
  <outline>
    <contour>
      <point x="174.01606311055656" y="457.98767811269164" type="curve" smooth="yes"/>
      <point x="174.01891615526532" y="423.6440789862894"/>
      <point x="174.0209465974314" y="340.1194500304918"/>
      <point x="174.02094470452667" y="277.97905425183956" type="curve" smooth="yes"/>
      <point x="174.0209421435046" y="193.9056610894216"/>
      <point x="174.02094003185326" y="124.58424038489922"/>
      <point x="174.0209357183129" y="-17.020941255053476" type="curve" smooth="yes"/>
      <point x="174.02093154267743" y="-154.09896999506574"/>
      <point x="65.37883761699906" y="-192.71815886037416"/>
      <point x="-30.982943846354544" y="-156.07353731601452" type="curve" smooth="yes"/>
      <point x="-94.07493217937888" y="-132.08080908045278"/>
      <point x="-62.084627865296554" y="-47.95815796975367"/>
      <point x="1.0073604677277785" y="-71.95088620531541" type="curve" smooth="yes"/>
      <point x="46.36154526789468" y="-89.19825245587732"/>
      <point x="84.02093375298456" y="-81.53886411745054"/>
      <point x="84.02093571831296" y="-17.020938513496713" type="curve" smooth="yes"/>
      <point x="84.02093861288802" y="78.00235591028793"/>
      <point x="84.02094298596855" y="221.56211872067263"/>
      <point x="84.02094470452673" y="277.9790569933965" type="curve" smooth="yes"/>
      <point x="84.02094752536262" y="370.58163496939306"/>
      <point x="84.0203150724211" y="406.8008394014629"/>
      <point x="84.01606342111121" y="457.9802014931924" type="curve" smooth="yes"/>
      <point x="84.01045595648682" y="525.4802012602764"/>
      <point x="174.01045564593215" y="525.4876778797757"/>
    </contour>
    <contour>
      <point x="84.02095578873391" y="638.9818566634135" type="curve" smooth="yes"/>
      <point x="84.02182850329032" y="652.9749467307705"/>
      <point x="84.02200345648752" y="667.9806759980831"/>
      <point x="84.02095713683684" y="681.9756850996764" type="curve" smooth="yes"/>
      <point x="84.01591058233234" y="749.4756849110267"/>
      <point x="174.01591033079936" y="749.4824136503662"/>
      <point x="174.02095688530386" y="681.9824138390159" type="curve" smooth="yes"/>
      <point x="174.0220038284424" y="667.9790652986336"/>
      <point x="174.02182884829233" y="652.9776719477527"/>
      <point x="174.020955613697" y="638.9762435851337" type="curve" smooth="yes"/>
      <point x="174.01674580498712" y="571.4762437164114"/>
      <point x="84.01674598002403" y="571.4818567946912"/>
    </contour>
  </outline>
</glyph>
<glyph name="k" format="2">
  <advance width="501"/>
  <unicode hex="006B"/>
  <outline>
    <contour>
      <point x="160.01746884211877" y="694.9850374144991" type="curve" smooth="yes"/>
      <point x="160.01966732549337" y="655.3724812400923"/>
      <point x="160.02095672504547" y="601.5894064106704"/>
      <point x="160.020955518445" y="561.9790499262723" type="curve" smooth="yes"/>
      <point x="160.02095230548832" y="456.50390445987574"/>
      <point x="160.0209484263634" y="329.15974743083257"/>
      <point x="160.02094363836574" y="171.97905586631194" type="curve" smooth="yes"/>
      <point x="160.02094243055836" y="132.32907912284023"/>
      <point x="160.0196519875326" y="79.62782425549561"/>
      <point x="160.01744888951032" y="39.98004940227244" type="curve" smooth="yes"/>
      <point x="160.01369813384164" y="-27.519950493518905"/>
      <point x="70.01369827278651" y="-27.51494948596067"/>
      <point x="70.01744902845519" y="39.98505040983068" type="curve" smooth="yes"/>
      <point x="70.02013568034981" y="88.33504135156484"/>
      <point x="70.02094216545903" y="123.62638248710584"/>
      <point x="70.0209436383658" y="171.97905860786872" type="curve" smooth="yes"/>
      <point x="70.02094685132239" y="277.45420407426525"/>
      <point x="70.02095073044731" y="404.7983611033084"/>
      <point x="70.02095551844505" y="561.979052667829" type="curve" smooth="yes"/>
      <point x="70.02095699208863" y="610.3559172208684"/>
      <point x="70.0201540293337" y="646.6004913698345"/>
      <point x="70.01746898072832" y="694.9800424451631" type="curve" smooth="yes"/>
      <point x="70.01372275372631" y="762.480042341206"/>
      <point x="160.01372261511676" y="762.4850373105419"/>
    </contour>
    <contour>
      <point x="441.1293903978587" y="422.0606406148841" type="curve" smooth="yes"/>
      <point x="387.8011893705307" y="381.81263449825457"/>
      <point x="327.57347443909583" y="339.62247512305106"/>
      <point x="267.61063931268677" y="295.68704260212945" type="curve" smooth="yes"/>
      <point x="220.37354261235112" y="261.07589938005384"/>
      <point x="221.081869093932" y="272.64368166959395"/>
      <point x="266.97713870573523" y="236.24310421669423" type="curve" smooth="yes"/>
      <point x="329.721124495719" y="186.4794284878001"/>
      <point x="396.5926638774815" y="125.91371183232935"/>
      <point x="454.34921993616035" y="73.22353438911762" type="curve" smooth="yes"/>
      <point x="504.2159326484889" y="27.731106851492285"/>
      <point x="443.55936259832174" y="-38.75784343161238"/>
      <point x="393.6926498859932" y="6.734584106012953" type="curve" smooth="yes"/>
      <point x="337.45116215748396" y="58.04259431830236"/>
      <point x="272.1488712722316" y="117.27069560062102"/>
      <point x="211.05078392678894" y="165.72897200804096" type="curve" smooth="yes"/>
      <point x="101.85577884026117" y="252.33400284764028"/>
      <point x="102.02978250327247" y="285.93745890964095"/>
      <point x="214.41729123989023" y="368.2850296321175" type="curve" smooth="yes"/>
      <point x="275.13858853688464" y="412.7761957744594"/>
      <point x="334.25180247046467" y="454.1532351801692"/>
      <point x="386.9125051949282" y="493.8974651472384" type="curve" smooth="yes"/>
      <point x="440.7901235941939" y="534.5601290494362"/>
      <point x="495.0070087971244" y="462.72330451708194"/>
    </contour>
  </outline>
</glyph>
<glyph name="l" format="2">
  <advance width="231"/>
  <unicode hex="006C"/>
  <outline>
    <contour>
      <point x="70.01570186533823" y="39.98941935120576" type="curve" smooth="yes"/>
      <point x="70.02144306451872" y="90.40864599023898"/>
      <point x="70.02094022893635" y="127.5540922142147"/>
      <point x="70.02094176496865" y="177.9790585164835" type="curve" smooth="yes"/>
      <point x="70.02094500283188" y="284.27184076944144"/>
      <point x="70.0209487894723" y="408.5799060537858"/>
      <point x="70.02095361458618" y="566.9790525916746" type="curve" smooth="yes"/>
      <point x="70.02095496365662" y="611.2664235390218"/>
      <point x="70.02133035532313" y="647.3661000116982"/>
      <point x="70.01746700339308" y="694.978888582336" type="curve" smooth="yes"/>
      <point x="70.01198998215055" y="762.4788883601304"/>
      <point x="160.01198968587636" y="762.4861910551206"/>
      <point x="160.0174667071189" y="694.9861912773262" type="curve" smooth="yes"/>
      <point x="160.02058283284032" y="656.582380849673"/>
      <point x="160.02095470272755" y="602.7006248567526"/>
      <point x="160.02095361458612" y="566.9790498501179" type="curve" smooth="yes"/>
      <point x="160.02095037672282" y="460.68626759715994"/>
      <point x="160.0209465900826" y="336.37820231281563"/>
      <point x="160.02094176496863" y="177.9790557749267" type="curve" smooth="yes"/>
      <point x="160.02094049845064" y="136.4017216604711"/>
      <point x="160.0204351225345" y="81.55177265960963"/>
      <point x="160.01570128185904" y="39.97917111938363" type="curve" smooth="yes"/>
      <point x="160.00801510799243" y="-27.52082844300697"/>
      <point x="70.00801569147163" y="-27.510580211184838"/>
    </contour>
  </outline>
</glyph>
<glyph name="n" format="2">
  <advance width="568"/>
  <unicode hex="006E"/>
  <outline>
    <contour>
      <point x="421.0" y="41.0" type="curve" smooth="yes"/>
      <point x="421.0" y="85.0"/>
      <point x="421.0" y="127.0"/>
      <point x="421.0" y="173.0" type="curve" smooth="yes"/>
      <point x="421.0" y="209.0"/>
      <point x="421.0" y="252.0"/>
      <point x="421.0" y="293.0" type="curve" smooth="yes"/>
      <point x="421.0" y="377.0"/>
      <point x="379.0" y="418.0"/>
      <point x="304.0" y="418.0" type="curve" smooth="yes"/>
      <point x="217.0" y="418.0"/>
      <point x="156.0" y="370.0"/>
      <point x="156.0" y="250.0" type="curve" smooth="yes"/>
      <point x="156.0" y="197.0"/>
      <point x="156.0" y="105.0"/>
      <point x="156.0" y="40.0" type="curve" smooth="yes"/>
      <point x="156.0" y="-28.0"/>
      <point x="66.0" y="-28.0"/>
      <point x="66.0" y="40.0" type="curve" smooth="yes"/>
      <point x="66.0" y="102.0"/>
      <point x="66.0" y="313.0"/>
      <point x="66.0" y="342.0" type="curve" smooth="yes"/>
      <point x="66.0" y="378.0"/>
      <point x="66.0" y="417.0"/>
      <point x="66.0" y="458.0" type="curve" smooth="yes"/>
      <point x="66.0" y="525.0"/>
      <point x="156.0" y="525.0"/>
      <point x="156.0" y="458.0" type="curve" smooth="yes"/>
      <point x="156.0" y="416.0"/>
      <point x="156.0" y="382.0"/>
      <point x="156.0" y="334.0" type="curve" smooth="yes"/>
      <point x="156.0" y="311.0"/>
      <point x="156.0" y="102.0"/>
      <point x="156.0" y="40.0" type="curve" smooth="yes"/>
      <point x="156.0" y="-28.0"/>
      <point x="66.0" y="-28.0"/>
      <point x="66.0" y="40.0" type="curve" smooth="yes"/>
      <point x="66.0" y="102.0"/>
      <point x="66.0" y="182.0"/>
      <point x="66.0" y="249.0" type="curve" smooth="yes"/>
      <point x="66.0" y="385.0"/>
      <point x="172.0" y="508.0"/>
      <point x="311.0" y="508.0" type="curve" smooth="yes"/>
      <point x="426.0" y="508.0"/>
      <point x="511.0" y="431.0"/>
      <point x="511.0" y="293.0" type="curve" smooth="yes"/>
      <point x="511.0" y="259.0"/>
      <point x="511.0" y="220.0"/>
      <point x="511.0" y="177.0" type="curve" smooth="yes"/>
      <point x="511.0" y="132.0"/>
      <point x="511.0" y="85.0"/>
      <point x="511.0" y="40.0" type="curve" smooth="yes"/>
      <point x="511.0" y="-28.0"/>
      <point x="421.0" y="-28.0"/>
    </contour>
  </outline>
</glyph>
<glyph name="o" format="2">
  <advance width="577"/>
  <unicode hex="006F"/>
  <outline>
    <contour>
      <point x="213.51461703976307" y="-0.6148725602844536" type="curve" smooth="yes"/>
      <point x="156.8737484588887" y="18.665183120603306"/>
      <point x="115.83998836019511" y="46.62507603373666"/>
      <point x="83.5785579845989" y="95.01773116783016" type="curve" smooth="yes"/>
      <point x="55.846774515755875" y="136.61584439582356"/>
      <point x="39.02094521664594" y="189.29093897946953"/>
      <point x="39.02094703484999" y="248.97905743509168" type="curve" smooth="yes"/>
      <point x="39.02095158942796" y="398.49703301140835"/>
      <point x="145.73771562394109" y="507.9790528049069"/>
      <point x="288.020950446565" y="507.9790528049069" type="curve" smooth="yes"/>
      <point x="431.36659391492526" y="507.9790528049069"/>
      <point x="538.0209453554504" y="398.34762435804464"/>
      <point x="538.0209408054237" y="248.9790546935349" type="curve" smooth="yes"/>
      <point x="538.0209390209095" y="190.39691319481653"/>
      <point x="521.6593758555326" y="138.03283594794394"/>
      <point x="493.3867900444878" y="95.90331153701166" type="curve" smooth="yes"/>
      <point x="460.66523468670147" y="47.144291954480664"/>
      <point x="422.3088067911363" y="19.710850942049447"/>
      <point x="362.49829916722933" y="-0.6208049545347478" type="curve" smooth="yes"/>
      <point x="298.5898635300184" y="-22.345488022521437"/>
      <point x="269.6236194393696" y="62.86575949375984"/>
      <point x="333.5320550765805" y="84.59044256174653" type="curve" smooth="yes"/>
      <point x="373.6773392577115" y="98.23721026640798"/>
      <point x="396.6921190072532" y="113.32736619772416"/>
      <point x="418.6550848952383" y="146.05480449071783" type="curve" smooth="yes"/>
      <point x="437.66035626516134" y="174.37492524185103"/>
      <point x="448.0209396058456" y="209.59923190178557"/>
      <point x="448.0209408054237" y="248.97905743509168" type="curve" smooth="yes"/>
      <point x="448.0209438094574" y="347.5956670855276"/>
      <point x="382.66108390141875" y="417.9790528049069"/>
      <point x="288.020950446565" y="417.9790528049069" type="curve" smooth="yes"/>
      <point x="194.31680911625313" y="417.9790528049069"/>
      <point x="129.02095003437987" y="347.44781337962536"/>
      <point x="129.02094703484994" y="248.9790546935349" type="curve" smooth="yes"/>
      <point x="129.02094580774272" y="208.69550189590905"/>
      <point x="139.74712708380292" y="173.0149805361826"/>
      <point x="158.46332709888725" y="144.9403848903611" type="curve" smooth="yes"/>
      <point x="179.69926093890984" y="113.08614870782645"/>
      <point x="205.23215721727723" y="97.27551556014592"/>
      <point x="242.51574085945575" y="84.58451016749623" type="curve" smooth="yes"/>
      <point x="306.41527790529125" y="62.833667302726724"/>
      <point x="277.41415408559857" y="-22.365715425053967"/>
    </contour>
  </outline>
</glyph>
<glyph name="p" format="2">
  <advance width="584"/>
  <unicode hex="0070"/>
  <outline>
    <contour>
      <point x="66.01569960143135" y="-125.01046428367405" type="curve" smooth="yes"/>
      <point x="66.0214350274893" y="-75.73674326521683"/>
      <point x="66.02093786496845" y="-40.30039385296379"/>
      <point x="66.02093936610652" y="8.979061090500718" type="curve" smooth="yes"/>
      <point x="66.02094233540743" y="106.4554589599709"/>
      <point x="66.02094373808542" y="152.5026595503907"/>
      <point x="66.02094670738626" y="249.97905741986077" type="curve" smooth="yes"/>
      <point x="66.02095131018446" y="401.0800095339139"/>
      <point x="167.21688191293188" y="507.9790528049069"/>
      <point x="305.02095024094825" y="507.9790528049069" type="curve" smooth="yes"/>
      <point x="441.6845085824078" y="507.9790528049069"/>
      <point x="546.020945311523" y="399.15555729887575"/>
      <point x="546.0209407064231" y="247.9790547087657" type="curve" smooth="yes"/>
      <point x="546.0209360874271" y="96.34636410718225"/>
      <point x="438.2376064536635" y="-11.016519695896582"/>
      <point x="306.0060666373987" y="-11.008723278130297" type="curve" smooth="yes"/>
      <point x="168.92206900700913" y="-11.000640757756686"/>
      <point x="65.99473363722231" y="99.22694753626818"/>
      <point x="66.00174801554573" y="246.00040530460404" type="curve" smooth="yes"/>
      <point x="66.00640623867183" y="343.47212464390583"/>
      <point x="66.0063866820795" y="379.10078186956184"/>
      <point x="66.00000905664956" y="450.9960051136827" type="curve" smooth="yes"/>
      <point x="65.99402131928119" y="518.4960048481049"/>
      <point x="155.9940209651775" y="518.5039884979294"/>
      <point x="156.00000870254587" y="451.0039887635072" type="curve" smooth="yes"/>
      <point x="156.00428836923555" y="402.7591372201488"/>
      <point x="156.00487378501774" y="311.403907584488"/>
      <point x="156.00174791276874" y="245.99610415875668" type="curve" smooth="yes"/>
      <point x="155.9972016868641" y="150.86788822043255"/>
      <point x="217.16318262260597" y="78.99651508577197"/>
      <point x="306.01137306883004" y="78.99127656543519" type="curve" smooth="yes"/>
      <point x="391.7145421891835" y="78.98622347665405"/>
      <point x="456.02093771271524" y="149.70142909585596"/>
      <point x="456.0209407064231" y="247.97905745032259" type="curve" smooth="yes"/>
      <point x="456.02094371359516" y="346.6986894383135"/>
      <point x="394.26349755809207" y="417.9790528049069"/>
      <point x="305.02095024094825" y="417.9790528049069" type="curve" smooth="yes"/>
      <point x="214.94360719637837" y="417.9790528049069"/>
      <point x="156.02094971606243" y="348.748071174543"/>
      <point x="156.0209467073862" y="249.97905467830404" type="curve" smooth="yes"/>
      <point x="156.02094471485495" y="184.56811175340695"/>
      <point x="156.0209413586378" y="74.39000127384107"/>
      <point x="156.02093936610646" y="8.979058348943884" type="curve" smooth="yes"/>
      <point x="156.020938125262" y="-31.75546140479797"/>
      <point x="156.02043990914882" y="-84.29116014244833"/>
      <point x="156.0156989917356" y="-125.0209402195492" type="curve" smooth="yes"/>
      <point x="156.00784203982926" y="-192.5209397622774"/>
      <point x="66.007842649525" y="-192.51046382640226"/>
    </contour>
  </outline>
</glyph>
<glyph name="q" format="2">
  <advance width="584"/>
  <unicode hex="0071"/>
  <outline>
    <contour>
      <point x="429.0034765785049" y="-125.00670549181652" type="curve" smooth="yes"/>
      <point x="429.0009574281514" y="-89.80714489221603"/>
      <point x="428.99998829668897" y="-43.197035076702434"/>
      <point x="428.9999893688522" y="-7.999994699656879" type="curve" smooth="yes"/>
      <point x="428.9999906390908" y="33.699481414965"/>
      <point x="428.99999712892856" y="149.6837783345076"/>
      <point x="429.00086898219666" y="219.99968575135682" type="curve" smooth="yes"/>
      <point x="429.0025698405616" y="357.1757493096949"/>
      <point x="372.2887281081569" y="417.9818367421786"/>
      <point x="280.02490499168135" y="417.97730752988446" type="curve" smooth="yes"/>
      <point x="192.58387393530788" y="417.9730150674709"/>
      <point x="129.02095005739892" y="346.4534842599214"/>
      <point x="129.02094705769625" y="247.97905470876574" type="curve" smooth="yes"/>
      <point x="129.0209440505243" y="149.2594227207749"/>
      <point x="189.77839025171997" y="78.97905933895053"/>
      <point x="279.0209375688637" y="78.97905933895052" type="curve" smooth="yes"/>
      <point x="367.34232575453785" y="78.9790593389505"/>
      <point x="429.02093811495195" y="149.4060795645255"/>
      <point x="429.02094111765666" y="247.97905745032256" type="curve" smooth="yes"/>
      <point x="429.02094445811997" y="357.6400050534767"/>
      <point x="429.0217082376199" y="394.61561252544004"/>
      <point x="429.0174569574726" y="457.97952435085335" type="curve" smooth="yes"/>
      <point x="429.01292817443135" y="525.4795241989284"/>
      <point x="519.0129279718647" y="525.4855625763166"/>
      <point x="519.0174567549059" y="457.9855627282417" type="curve" smooth="yes"/>
      <point x="519.0203095505482" y="415.4655957362274"/>
      <point x="519.0209433592543" y="321.56636549927504"/>
      <point x="519.0209411176567" y="247.97905470876572" type="curve" smooth="yes"/>
      <point x="519.020936507887" y="96.64925078540925"/>
      <point x="414.61244188419107" y="-11.020940661049494"/>
      <point x="279.0209375688637" y="-11.02094066104948" type="curve" smooth="yes"/>
      <point x="142.28716171007892" y="-11.020940661049465"/>
      <point x="39.020942450230564" y="96.72488061538351"/>
      <point x="39.0209470576963" y="247.97905745032253" type="curve" smooth="yes"/>
      <point x="39.02095166977065" y="399.3845262756406"/>
      <point x="145.57898405479912" y="507.97070771543696"/>
      <point x="280.0204869101918" y="507.97730742144313" type="curve" smooth="yes"/>
      <point x="413.36334049832243" y="507.9838531949804"/>
      <point x="519.0033271143441" y="418.25013952773725"/>
      <point x="519.0008689752785" y="219.9985698332523" type="curve" smooth="yes"/>
      <point x="518.9995697260664" y="115.21271808689646"/>
      <point x="518.9999912617817" y="54.1412062005735"/>
      <point x="518.9999893688522" y="-7.999997441213752" type="curve" smooth="yes"/>
      <point x="518.9999880652605" y="-50.794382993136324"/>
      <point x="519.0004134344799" y="-82.20281463290351"/>
      <point x="519.003476348018" y="-125.00026440200284" type="curve" smooth="yes"/>
      <point x="519.0083071653783" y="-192.50026422913768"/>
      <point x="429.00830739586513" y="-192.50670531895136"/>
    </contour>
  </outline>
</glyph>
<glyph name="r" format="2">
  <advance width="389"/>
  <unicode hex="0072"/>
  <outline>
    <contour>
      <point x="322.8956934636677" y="411.4061583599244" type="curve" smooth="yes"/>
      <point x="200.74052831324659" y="428.1629350902265"/>
      <point x="156.02077389463219" y="355.1990009666137"/>
      <point x="156.02077102453381" y="260.97922904368875" type="curve" smooth="yes"/>
      <point x="156.02076987392982" y="223.20712486926914"/>
      <point x="156.0218152500616" y="163.41310809666717"/>
      <point x="156.02181435342254" y="133.9781837804634" type="curve" smooth="yes"/>
      <point x="156.02180819795606" y="-68.09386134516092"/>
      <point x="66.00481453429519" y="-67.10872450363266"/>
      <point x="66.00104482212856" y="129.99809399505347" type="curve" smooth="yes"/>
      <point x="66.00034112156037" y="166.7924629131833"/>
      <point x="66.00034988154589" y="239.6598373401307"/>
      <point x="66.00104920972078" y="273.99986885330765" type="curve" smooth="yes"/>
      <point x="66.0024102533794" y="340.8329864192059"/>
      <point x="66.00699754934719" y="387.15443045691944"/>
      <point x="66.00088033903687" y="453.9950058546556" type="curve" smooth="yes"/>
      <point x="65.994702778599" y="521.4950055719722"/>
      <point x="155.99470240168787" y="521.5032423192226"/>
      <point x="156.00087996212574" y="454.003242601906" type="curve" smooth="yes"/>
      <point x="156.00592888491383" y="398.8354639623345"/>
      <point x="156.00217254696636" y="329.1596592370779"/>
      <point x="156.00104919105812" y="273.9980360205188" type="curve" smooth="yes"/>
      <point x="156.00000704140595" y="222.8239904411438"/>
      <point x="155.99999614020842" y="184.83135236965467"/>
      <point x="156.00104480566873" y="129.99981526526375" type="curve" smooth="yes"/>
      <point x="156.0012164573366" y="121.0246700486382"/>
      <point x="66.02181407313698" y="124.77695257670605"/>
      <point x="66.0218143534226" y="133.9781865220203" type="curve" smooth="yes"/>
      <point x="66.02181568960796" y="177.84256556328197"/>
      <point x="66.02077025242801" y="235.63249140184786"/>
      <point x="66.02077102453384" y="260.9792317852455" type="curve" smooth="yes"/>
      <point x="66.02077533921438" y="402.62183634308053"/>
      <point x="151.4885237362128" y="525.7619680495922"/>
      <point x="335.12700426928075" y="500.571146084796" type="curve" smooth="yes"/>
      <point x="402.0007450629344" y="491.3976629805862"/>
      <point x="389.7694342573214" y="402.2326752557146"/>
    </contour>
  </outline>
</glyph>
<glyph name="t" format="2">
  <advance width="336"/>
  <unicode hex="0074"/>
  <outline>
    <contour>
      <point x="118.0157019131461" y="39.98923393628107" type="curve" smooth="yes"/>
      <point x="118.02038174342741" y="82.63047947289073"/>
      <point x="118.0209391734131" y="90.65330533901383"/>
      <point x="118.02094143750494" y="164.9790587144848" type="curve" smooth="yes"/>
      <point x="118.02094415232874" y="254.10146844965735"/>
      <point x="118.0209460611527" y="316.7644573714801"/>
      <point x="118.02095051510398" y="462.97905417568535" type="curve" smooth="yes"/>
      <point x="118.02095240803325" y="525.1202578174717"/>
      <point x="118.02081067663056" y="542.8942379824182"/>
      <point x="118.01868544483573" y="587.9791986021773" type="curve" smooth="yes"/>
      <point x="118.01550360450548" y="655.4791985271839"/>
      <point x="208.0155035045143" y="655.4834409809577"/>
      <point x="208.01868534484453" y="587.9834410559511" type="curve" smooth="yes"/>
      <point x="208.0201114686927" y="557.7294529077703"/>
      <point x="208.02095178534253" y="504.6785275487505"/>
      <point x="208.02095051510392" y="462.9790514341285" type="curve" smooth="yes"/>
      <point x="208.02094752630703" y="364.8626370467828"/>
      <point x="208.02094548317726" y="297.790648070081"/>
      <point x="208.0209414375049" y="164.97905597292802" type="curve" smooth="yes"/>
      <point x="208.0209399181997" y="115.10321199269394"/>
      <point x="208.01884174272797" y="68.59350456403655"/>
      <point x="208.01570137112904" y="39.97935653430832" type="curve" smooth="yes"/>
      <point x="208.00829331964948" y="-27.520643059178894"/>
      <point x="118.00829386166653" y="-27.51076565720615"/>
    </contour>
    <contour>
      <point x="279.01309446223104" y="407.98690693880974" type="curve" smooth="yes"/>
      <point x="259.00980707552645" y="407.98690693880974"/>
      <point x="241.00991422790048" y="407.98832494341303"/>
      <point x="222.0046964687928" y="407.9903978649677" type="curve" smooth="yes"/>
      <point x="181.66307395606788" y="407.99479797339666"/>
      <point x="151.34743295352337" y="407.99535213670646"/>
      <point x="111.01513391738946" y="407.9903979367833" type="curve" smooth="yes"/>
      <point x="94.0144343772818" y="407.98830966345474"/>
      <point x="78.01654959952415" y="407.98690693880974"/>
      <point x="57.01309784348435" y="407.98690693880974" type="curve" smooth="yes"/>
      <point x="-10.486902156515647" y="407.98690693880974"/>
      <point x="-10.486902156515633" y="497.98690693880974"/>
      <point x="57.01309784348437" y="497.98690693880974" type="curve" smooth="yes"/>
      <point x="82.60065228422033" y="497.98690693880974"/>
      <point x="90.29289618562258" y="497.9878532089491"/>
      <point x="111.00407880777898" y="497.9903972578086" type="curve" smooth="yes"/>
      <point x="148.0056218704723" y="497.9949423258109"/>
      <point x="185.0044162949662" y="497.9944340645836"/>
      <point x="222.01451287512234" y="497.9903973296242" type="curve" smooth="yes"/>
      <point x="242.7098063690949" y="497.9881400695125"/>
      <point x="257.2309760693099" y="497.98690693880974"/>
      <point x="279.01309446223104" y="497.98690693880974" type="curve" smooth="yes"/>
      <point x="346.51309446223104" y="497.98690693880974"/>
      <point x="346.51309446223104" y="407.98690693880974"/>
    </contour>
  </outline>
</glyph>
<glyph name="u" format="2">
  <advance width="568"/>
  <unicode hex="0075"/>
  <outline>
    <contour>
      <point x="147.0" y="458.0" type="curve" smooth="yes"/>
      <point x="147.0" y="387.0"/>
      <point x="147.0" y="299.0"/>
      <point x="147.0" y="207.0" type="curve" smooth="yes"/>
      <point x="147.0" y="123.0"/>
      <point x="185.0" y="79.0"/>
      <point x="258.0" y="79.0" type="curve" smooth="yes"/>
      <point x="347.0" y="79.0"/>
      <point x="413.0" y="145.0"/>
      <point x="413.0" y="224.0" type="curve" smooth="yes"/>
      <point x="413.0" y="256.0"/>
      <point x="413.0" y="389.0"/>
      <point x="413.0" y="458.0" type="curve" smooth="yes"/>
      <point x="413.0" y="525.0"/>
      <point x="503.0" y="525.0"/>
      <point x="503.0" y="458.0" type="curve" smooth="yes"/>
      <point x="503.0" y="387.0"/>
      <point x="503.0" y="232.0"/>
      <point x="503.0" y="164.0" type="curve" smooth="yes"/>
      <point x="503.0" y="110.0"/>
      <point x="503.0" y="81.0"/>
      <point x="503.0" y="38.0" type="curve" smooth="yes"/>
      <point x="503.0" y="-29.0"/>
      <point x="413.0" y="-29.0"/>
      <point x="413.0" y="38.0" type="curve" smooth="yes"/>
      <point x="413.0" y="84.0"/>
      <point x="413.0" y="114.0"/>
      <point x="413.0" y="143.0" type="curve" smooth="yes"/>
      <point x="413.0" y="223.0"/>
      <point x="413.0" y="389.0"/>
      <point x="413.0" y="458.0" type="curve" smooth="yes"/>
      <point x="413.0" y="525.0"/>
      <point x="503.0" y="525.0"/>
      <point x="503.0" y="458.0" type="curve" smooth="yes"/>
      <point x="503.0" y="387.0"/>
      <point x="503.0" y="271.0"/>
      <point x="503.0" y="224.0" type="curve" smooth="yes"/>
      <point x="503.0" y="99.0"/>
      <point x="399.0" y="-11.0"/>
      <point x="258.0" y="-11.0" type="curve" smooth="yes"/>
      <point x="139.0" y="-11.0"/>
      <point x="57.0" y="69.0"/>
      <point x="57.0" y="207.0" type="curve" smooth="yes"/>
      <point x="57.0" y="283.0"/>
      <point x="57.0" y="389.0"/>
      <point x="57.0" y="458.0" type="curve" smooth="yes"/>
      <point x="57.0" y="525.0"/>
      <point x="147.0" y="525.0"/>
    </contour>
  </outline>
</glyph>
<glyph name="v" format="2">
  <advance width="489"/>
  <unicode hex="0076"/>
  <outline>
    <contour>
      <point x="106.06805838564411" y="474.004464311407" type="curve" smooth="yes"/>
      <point x="130.23234314617244" y="410.5789220617302"/>
      <point x="143.1667467746233" y="375.236556724134"/>
      <point x="156.8779335086803" y="340.5015480437195" type="curve" smooth="yes"/>
      <point x="187.91551183159126" y="261.8730111142715"/>
      <point x="205.89452269403455" y="212.18023457681568"/>
      <point x="238.51968823745636" y="134.38175747467673" type="curve" smooth="yes"/>
      <point x="247.15497994566138" y="113.78990658163093"/>
      <point x="244.32553113554644" y="113.60987908191127"/>
      <point x="252.13674510702964" y="133.46337972359123" type="curve" smooth="yes"/>
      <point x="283.1632902962301" y="212.32250931237337"/>
      <point x="304.6536883988105" y="267.46191363702854"/>
      <point x="335.03982410352853" y="346.18354622091687" type="curve" smooth="yes"/>
      <point x="348.2740276632607" y="380.4695153317529"/>
      <point x="363.9781403414565" y="416.0994159541224"/>
      <point x="383.47373944041993" y="472.6499208944707" type="curve" smooth="yes"/>
      <point x="405.4734964758724" y="536.4641880326355"/>
      <point x="490.5591859934255" y="507.13117865203225"/>
      <point x="468.559428957973" y="443.31691151386747" type="curve" smooth="yes"/>
      <point x="448.0622963484381" y="383.86127780830446"/>
      <point x="432.9161394975151" y="349.8218811936054"/>
      <point x="419.00206463536654" y="313.77456344030855" type="curve" smooth="yes"/>
      <point x="388.5369528997765" y="234.84832694937353"/>
      <point x="366.9948655875793" y="179.57628058011142"/>
      <point x="335.88767989132253" y="100.51218971841661" type="curve" smooth="yes"/>
      <point x="278.55572586020577" y="-45.20651550473633"/>
      <point x="218.90262901530016" y="-51.56161464469891"/>
      <point x="155.52219300785026" y="99.57635867489975" type="curve" smooth="yes"/>
      <point x="122.63183296425785" y="178.00722270613113"/>
      <point x="104.45383092503442" y="228.188890779006"/>
      <point x="73.16396284565022" y="307.4565618002764" type="curve" smooth="yes"/>
      <point x="59.209569641181595" y="342.8076935796418"/>
      <point x="45.70823672405022" y="379.64229523369653"/>
      <point x="21.96512103989933" y="441.9623680969312" type="curve" smooth="yes"/>
      <point x="-2.066451120957666" y="505.03957110623975"/>
      <point x="82.03648622478711" y="537.0816673207155"/>
    </contour>
  </outline>
</glyph>
<glyph name="w" format="2">
  <advance width="725"/>
  <unicode hex="0077"/>
  <outline>
    <contour>
      <point x="112" y="473" type="curve" smooth="yes"/>
      <point x="128" y="431"/>
      <point x="141" y="388"/>
      <point x="156" y="346" type="curve" smooth="yes"/>
      <point x="174" y="296"/>
      <point x="191.0" y="242.0"/>
      <point x="219.0" y="162.0" type="curve" smooth="yes"/>
      <point x="233.0" y="125.0"/>
      <point x="305" y="115"/>
      <point x="292.0" y="75.0" type="curve" smooth="yes"/>
      <point x="251" y="-52"/>
      <point x="196.0" y="-47.0"/>
      <point x="153.0" y="71.0" type="curve" smooth="yes"/>
      <point x="142" y="101"/>
      <point x="218" y="129"/>
      <point x="227.0" y="160.0" type="curve" smooth="yes"/>
      <point x="249.0" y="232.0"/>
      <point x="250" y="240"/>
      <point x="264" y="291" type="curve" smooth="yes"/>
      <point x="271" y="315"/>
      <point x="275" y="328"/>
      <point x="291" y="388" type="curve" smooth="yes"/>
      <point x="318.0" y="491"/>
      <point x="383" y="546"/>
      <point x="421" y="422" type="curve" smooth="yes"/>
      <point x="436" y="372"/>
      <point x="442" y="358"/>
      <point x="449" y="335" type="curve" smooth="yes"/>
      <point x="466" y="281"/>
      <point x="480" y="227"/>
      <point x="498.0" y="160.0" type="curve" smooth="yes"/>
      <point x="508.0" y="123.0"/>
      <point x="592" y="115"/>
      <point x="574.0" y="67.0" type="curve" smooth="yes"/>
      <point x="529.0" y="-51.0"/>
      <point x="466.0" y="-47.0"/>
      <point x="430.0" y="74.0" type="curve" smooth="yes"/>
      <point x="414" y="127"/>
      <point x="492.0" y="114.0"/>
      <point x="506.0" y="157.0" type="curve" smooth="yes"/>
      <point x="534.0" y="235.0"/>
      <point x="552" y="288"/>
      <point x="571" y="346" type="curve" smooth="yes"/>
      <point x="583" y="381"/>
      <point x="598" y="431"/>
      <point x="612" y="472" type="curve" smooth="yes"/>
      <point x="633" y="536"/>
      <point x="719" y="508"/>
      <point x="698" y="444" type="curve" smooth="yes"/>
      <point x="684" y="401"/>
      <point x="666" y="351"/>
      <point x="655" y="316" type="curve" smooth="yes"/>
      <point x="637" y="258"/>
      <point x="620" y="201"/>
      <point x="601" y="145" type="curve" smooth="yes"/>
      <point x="591" y="117"/>
      <point x="589" y="107"/>
      <point x="574" y="67" type="curve" smooth="yes"/>
      <point x="529" y="-51"/>
      <point x="466.0" y="-47.0"/>
      <point x="430" y="74" type="curve" smooth="yes"/>
      <point x="419" y="110"/>
      <point x="417" y="119"/>
      <point x="409" y="145" type="curve" smooth="yes"/>
      <point x="395" y="191"/>
      <point x="371.0" y="293.0"/>
      <point x="340.0" y="387.0" type="curve" smooth="yes"/>
      <point x="328.0" y="428.0"/>
      <point x="280" y="346"/>
      <point x="291.0" y="388.0" type="curve" smooth="yes"/>
      <point x="318.0" y="491.0"/>
      <point x="383.0" y="546.0"/>
      <point x="421.0" y="422.0" type="curve" smooth="yes"/>
      <point x="439" y="365"/>
      <point x="392.0" y="399.0"/>
      <point x="380.0" y="357.0" type="curve" smooth="yes"/>
      <point x="354.0" y="269.0"/>
      <point x="332" y="198"/>
      <point x="316" y="146" type="curve" smooth="yes"/>
      <point x="309" y="124"/>
      <point x="305" y="114"/>
      <point x="292" y="75" type="curve" smooth="yes"/>
      <point x="251.0" y="-52.0"/>
      <point x="196" y="-47.0"/>
      <point x="153" y="71" type="curve" smooth="yes"/>
      <point x="138" y="113"/>
      <point x="135" y="122"/>
      <point x="126" y="148" type="curve" smooth="yes"/>
      <point x="106" y="204"/>
      <point x="88" y="267"/>
      <point x="71" y="316" type="curve" smooth="yes"/>
      <point x="56" y="358"/>
      <point x="42" y="401"/>
      <point x="28" y="443" type="curve" smooth="yes"/>
      <point x="5" y="507"/>
      <point x="89" y="537"/>
    </contour>
  </outline>
</glyph>
